Knewave-Regular.ufo
<glyph name="exclam" format="1">
  <advance width="391"/>
  <unicode hex="0021"/>
  <outline>
    <contour>
      <point x="505" y="695" type="line"/>
      <point x="502" y="692"/>
      <point x="500" y="690"/>
      <point x="498" y="688" type="curve"/>
      <point x="496" y="685"/>
      <point x="493" y="683"/>
      <point x="490" y="680" type="curve"/>
      <point x="482" y="664"/>
      <point x="470" y="646"/>
      <point x="458" y="628" type="curve" smooth="yes"/>
      <point x="446" y="610"/>
      <point x="435" y="591"/>
      <point x="428" y="575" type="curve"/>
      <point x="373" y="466"/>
      <point x="346" y="372"/>
      <point x="325" y="296" type="curve" smooth="yes"/>
      <point x="304" y="220"/>
      <point x="287" y="163"/>
      <point x="255" y="124" type="curve"/>
      <point x="252" y="121" type="line"/>
      <point x="216" y="98"/>
      <point x="174" y="87"/>
      <point x="140" y="91" type="curve" smooth="yes"/>
      <point x="106" y="94"/>
      <point x="80" y="114"/>
      <point x="75" y="154" type="curve"/>
      <point x="74" y="191"/>
      <point x="90" y="243"/>
      <point x="111" y="296" type="curve" smooth="yes"/>
      <point x="122" y="322"/>
      <point x="133" y="348"/>
      <point x="145" y="374" type="curve" smooth="yes"/>
      <point x="156" y="399"/>
      <point x="167" y="423"/>
      <point x="176" y="444" type="curve"/>
      <point x="184" y="474"/>
      <point x="194" y="503"/>
      <point x="205" y="532" type="curve" smooth="yes"/>
      <point x="216" y="561"/>
      <point x="226" y="590"/>
      <point x="233" y="620" type="curve"/>
      <point x="242" y="653"/>
      <point x="258" y="696"/>
      <point x="283" y="733" type="curve" smooth="yes"/>
      <point x="307" y="769"/>
      <point x="339" y="801"/>
      <point x="382" y="812" type="curve" smooth="yes"/>
      <point x="417" y="821"/>
      <point x="455" y="821"/>
      <point x="481" y="805" type="curve" smooth="yes"/>
      <point x="507" y="789"/>
      <point x="521" y="759"/>
      <point x="508" y="711" type="curve"/>
    </contour>
    <contour>
      <point x="225" y="-98"/>
      <point x="173" y="-124"/>
      <point x="121" y="-126" type="curve" smooth="yes"/>
      <point x="69" y="-128"/>
      <point x="18" y="-106"/>
      <point x="6" y="-61" type="curve" smooth="yes"/>
      <point x="-5" y="-14"/>
      <point x="28" y="20"/>
      <point x="65" y="31" type="curve"/>
      <point x="100" y="40"/>
      <point x="154" y="46"/>
      <point x="194" y="37" type="curve" smooth="yes"/>
      <point x="234" y="28"/>
      <point x="261" y="4"/>
      <point x="240" y="-43" type="curve"/>
    </contour>
  </outline>
</glyph>
<glyph name="quotedbl" format="1">
  <advance width="458"/>
  <unicode hex="0022"/>
  <outline>
    <contour>
      <point x="381" y="752"/>
      <point x="405" y="786"/>
      <point x="437" y="802" type="curve" smooth="yes"/>
      <point x="468" y="817"/>
      <point x="506" y="815"/>
      <point x="535" y="796" type="curve"/>
      <point x="563" y="776"/>
      <point x="581" y="740"/>
      <point x="572" y="688" type="curve"/>
      <point x="573" y="656"/>
      <point x="564" y="628"/>
      <point x="550" y="601" type="curve" smooth="yes"/>
      <point x="543" y="588"/>
      <point x="535" y="575"/>
      <point x="526" y="563" type="curve"/>
      <point x="517" y="550"/>
      <point x="509" y="538"/>
      <point x="502" y="526" type="curve" smooth="yes"/>
      <point x="489" y="503"/>
      <point x="462" y="490"/>
      <point x="438" y="492" type="curve" smooth="yes"/>
      <point x="414" y="494"/>
      <point x="394" y="511"/>
      <point x="394" y="554" type="curve" smooth="yes"/>
      <point x="394" y="577"/>
      <point x="392" y="599"/>
      <point x="389" y="622" type="curve"/>
      <point x="385" y="645"/>
      <point x="382" y="671"/>
      <point x="381" y="700" type="curve"/>
    </contour>
    <contour>
      <point x="133" y="604"/>
      <point x="137" y="670"/>
      <point x="158" y="719" type="curve" smooth="yes"/>
      <point x="178" y="767"/>
      <point x="217" y="799"/>
      <point x="255" y="800" type="curve" smooth="yes"/>
      <point x="293" y="801"/>
      <point x="329" y="772"/>
      <point x="348" y="701" type="curve"/>
      <point x="337" y="675" type="line"/>
      <point x="338" y="674"/>
      <point x="338" y="673"/>
      <point x="338" y="672" type="curve" smooth="yes"/>
      <point x="338" y="671"/>
      <point x="338" y="670"/>
      <point x="339" y="669" type="curve"/>
      <point x="330" y="652"/>
      <point x="325" y="634"/>
      <point x="323" y="616" type="curve" smooth="yes"/>
      <point x="321" y="598"/>
      <point x="316" y="580"/>
      <point x="309" y="563" type="curve"/>
      <point x="272" y="507" type="line"/>
      <point x="259" y="484"/>
      <point x="233" y="472"/>
      <point x="210" y="474" type="curve" smooth="yes"/>
      <point x="186" y="476"/>
      <point x="166" y="493"/>
      <point x="166" y="533" type="curve"/>
    </contour>
  </outline>
</glyph>
<glyph name="numbersign" format="1">
  <advance width="833"/>
  <unicode hex="0023"/>
  <outline>
    <contour>
      <point x="679" y="307"/>
      <point x="695" y="306"/>
      <point x="718" y="286" type="curve" smooth="yes"/>
      <point x="727" y="278"/>
      <point x="734" y="270"/>
      <point x="739" y="262" type="curve"/>
      <point x="796" y="245"/>
      <point x="820" y="208"/>
      <point x="809" y="176" type="curve" smooth="yes"/>
      <point x="798" y="143"/>
      <point x="753" y="114"/>
      <point x="676" y="110" type="curve"/>
      <point x="651" y="111"/>
      <point x="627" y="113"/>
      <point x="603" y="115" type="curve" smooth="yes"/>
      <point x="579" y="117"/>
      <point x="555" y="119"/>
      <point x="530" y="121" type="curve"/>
      <point x="509" y="53" type="line"/>
      <point x="494" y="34"/>
      <point x="465" y="25"/>
      <point x="439" y="27" type="curve" smooth="yes"/>
      <point x="413" y="29"/>
      <point x="389" y="42"/>
      <point x="388" y="71" type="curve"/>
      <point x="387" y="71" type="line"/>
      <point x="387" y="72"/>
      <point x="387" y="74"/>
      <point x="388" y="75" type="curve"/>
      <point x="387" y="84"/>
      <point x="387" y="93"/>
      <point x="387" y="102" type="curve" smooth="yes"/>
      <point x="387" y="110"/>
      <point x="387" y="119"/>
      <point x="387" y="128" type="curve"/>
      <point x="382" y="129"/>
      <point x="378" y="129"/>
      <point x="374" y="129" type="curve" smooth="yes"/>
      <point x="369" y="129"/>
      <point x="365" y="129"/>
      <point x="360" y="129" type="curve"/>
      <point x="345" y="130"/>
      <point x="329" y="130"/>
      <point x="314" y="130" type="curve"/>
      <point x="298" y="129"/>
      <point x="282" y="129"/>
      <point x="267" y="130" type="curve"/>
      <point x="266" y="130"/>
      <point x="265" y="130"/>
      <point x="265" y="131" type="curve"/>
      <point x="264" y="131"/>
      <point x="264" y="131"/>
      <point x="265" y="131" type="curve"/>
      <point x="260" y="131"/>
      <point x="255" y="131"/>
      <point x="250" y="131" type="curve"/>
      <point x="245" y="130"/>
      <point x="240" y="130"/>
      <point x="235" y="130" type="curve"/>
      <point x="220" y="95"/>
      <point x="206" y="62"/>
      <point x="195" y="26" type="curve"/>
      <point x="194" y="22"/>
      <point x="193" y="19"/>
      <point x="193" y="18" type="curve"/>
      <point x="192" y="18" type="line"/>
      <point x="189" y="6" type="line"/>
      <point x="174" y="-11"/>
      <point x="145" y="-21"/>
      <point x="119" y="-20" type="curve"/>
      <point x="93" y="-20"/>
      <point x="69" y="-6"/>
      <point x="66" y="22" type="curve"/>
      <point x="65" y="22" type="line"/>
      <point x="65" y="23"/>
      <point x="65" y="24"/>
      <point x="66" y="25" type="curve"/>
      <point x="66" y="27" type="line"/>
      <point x="71" y="58"/>
      <point x="75" y="86"/>
      <point x="79" y="117" type="curve"/>
      <point x="72" y="116"/>
      <point x="67" y="115"/>
      <point x="60" y="115" type="curve"/>
      <point x="57" y="114"/>
      <point x="53" y="114"/>
      <point x="49" y="114" type="curve"/>
      <point x="45" y="113"/>
      <point x="41" y="112"/>
      <point x="38" y="111" type="curve"/>
      <point x="37" y="111"/>
      <point x="36" y="111"/>
      <point x="35" y="111" type="curve"/>
      <point x="34" y="110"/>
      <point x="32" y="110"/>
      <point x="31" y="110" type="curve" smooth="yes"/>
      <point x="30" y="110"/>
      <point x="30" y="110"/>
      <point x="30" y="110" type="curve"/>
      <point x="29" y="109"/>
      <point x="29" y="109"/>
      <point x="28" y="109" type="curve"/>
      <point x="29" y="109"/>
      <point x="29" y="109"/>
      <point x="30" y="110" type="curve"/>
      <point x="28" y="109" type="line"/>
      <point x="9" y="104"/>
      <point x="-11" y="100"/>
      <point x="-31" y="97" type="curve"/>
      <point x="-54" y="96"/>
      <point x="-83" y="102"/>
      <point x="-99" y="114" type="curve" smooth="yes"/>
      <point x="-116" y="126"/>
      <point x="-120" y="145"/>
      <point x="-91" y="169" type="curve" smooth="yes"/>
      <point x="-76" y="181"/>
      <point x="-41" y="194"/>
      <point x="-4" y="205" type="curve" smooth="yes"/>
      <point x="32" y="216"/>
      <point x="72" y="226"/>
      <point x="96" y="231" type="curve"/>
      <point x="99" y="243"/>
      <point x="101" y="256"/>
      <point x="104" y="269" type="curve" smooth="yes"/>
      <point x="111" y="301"/>
      <point x="119" y="334"/>
      <point x="127" y="366" type="curve"/>
      <point x="87" y="361"/>
      <point x="47" y="359"/>
      <point x="12" y="378" type="curve"/>
      <point x="-1" y="389"/>
      <point x="-7" y="400"/>
      <point x="-7" y="409" type="curve" smooth="yes"/>
      <point x="-7" y="418"/>
      <point x="-1" y="429"/>
      <point x="12" y="440" type="curve"/>
      <point x="52" y="463"/>
      <point x="106" y="479"/>
      <point x="162" y="494" type="curve"/>
      <point x="172" y="535" type="line"/>
      <point x="175" y="550"/>
      <point x="178" y="566"/>
      <point x="181" y="581" type="curve" smooth="yes"/>
      <point x="184" y="596"/>
      <point x="187" y="612"/>
      <point x="192" y="627" type="curve"/>
      <point x="194" y="634"/>
      <point x="196" y="641"/>
      <point x="198" y="648" type="curve"/>
      <point x="200" y="654"/>
      <point x="202" y="660"/>
      <point x="203" y="667" type="curve"/>
      <point x="203" y="669"/>
      <point x="203" y="671"/>
      <point x="204" y="672" type="curve"/>
      <point x="203" y="685"/>
      <point x="207" y="700"/>
      <point x="216" y="717" type="curve"/>
      <point x="219" y="720"/>
      <point x="220" y="721"/>
      <point x="223" y="724" type="curve"/>
      <point x="258" y="753"/>
      <point x="310" y="770"/>
      <point x="356" y="767" type="curve" smooth="yes"/>
      <point x="402" y="763"/>
      <point x="443" y="738"/>
      <point x="456" y="686" type="curve"/>
      <point x="456" y="682"/>
      <point x="455" y="677"/>
      <point x="453" y="671" type="curve"/>
      <point x="454" y="660"/>
      <point x="453" y="649"/>
      <point x="450" y="637" type="curve"/>
      <point x="411" y="557" type="line"/>
      <point x="483" y="578" type="line"/>
      <point x="486" y="591"/>
      <point x="490" y="605"/>
      <point x="495" y="620" type="curve" smooth="yes"/>
      <point x="500" y="635"/>
      <point x="503" y="649"/>
      <point x="506" y="663" type="curve"/>
      <point x="491" y="688"/>
      <point x="498" y="719"/>
      <point x="538" y="754" type="curve"/>
      <point x="546" y="757" type="line"/>
      <point x="565" y="764" type="line"/>
      <point x="596" y="780"/>
      <point x="637" y="783"/>
      <point x="674" y="774" type="curve"/>
      <point x="697" y="770"/>
      <point x="720" y="760"/>
      <point x="741" y="737" type="curve" smooth="yes"/>
      <point x="751" y="726"/>
      <point x="758" y="712"/>
      <point x="763" y="697" type="curve"/>
      <point x="760" y="673"/>
      <point x="749" y="641"/>
      <point x="734" y="609" type="curve"/>
      <point x="759" y="606" type="line"/>
      <point x="788" y="598"/>
      <point x="804" y="597"/>
      <point x="827" y="577" type="curve" smooth="yes"/>
      <point x="854" y="554"/>
      <point x="858" y="532"/>
      <point x="851" y="512" type="curve"/>
      <point x="868" y="489"/>
      <point x="873" y="456"/>
      <point x="867" y="428" type="curve" smooth="yes"/>
      <point x="861" y="399"/>
      <point x="843" y="375"/>
      <point x="818" y="367" type="curve"/>
      <point x="817" y="367"/>
      <point x="817" y="367"/>
      <point x="817" y="367" type="curve"/>
      <point x="816" y="366"/>
      <point x="815" y="366"/>
      <point x="814" y="366" type="curve"/>
      <point x="785" y="363"/>
      <point x="759" y="366"/>
      <point x="738" y="373" type="curve"/>
      <point x="737" y="372" type="line"/>
      <point x="754" y="369" type="line"/>
      <point x="752" y="369" type="line"/>
      <point x="618" y="378" type="line"/>
      <point x="610" y="358"/>
      <point x="604" y="339"/>
      <point x="597" y="319" type="curve"/>
      <point x="616" y="319"/>
      <point x="633" y="318"/>
      <point x="650" y="315" type="curve"/>
    </contour>
    <contour>
      <point x="293" y="279" type="line"/>
      <point x="333" y="290"/>
      <point x="374" y="297"/>
      <point x="414" y="304" type="curve"/>
      <point x="421" y="332"/>
      <point x="428" y="360"/>
      <point x="436" y="388" type="curve"/>
      <point x="331" y="385" type="line"/>
    </contour>
    <contour>
      <point x="771" y="366"/>
      <point x="773" y="366"/>
      <point x="775" y="366" type="curve"/>
      <point x="776" y="365"/>
      <point x="776" y="365"/>
      <point x="775" y="365" type="curve" smooth="yes"/>
      <point x="770" y="365"/>
      <point x="762" y="366"/>
      <point x="754" y="369" type="curve"/>
      <point x="759" y="369"/>
      <point x="764" y="368"/>
      <point x="770" y="366" type="curve"/>
    </contour>
    <contour>
      <point x="56" y="117"/>
      <point x="56" y="117"/>
      <point x="54" y="117" type="curve"/>
      <point x="52" y="116"/>
      <point x="49" y="115"/>
      <point x="46" y="114" type="curve"/>
      <point x="47" y="114"/>
      <point x="50" y="115"/>
      <point x="54" y="116" type="curve"/>
    </contour>
  </outline>
</glyph>
<glyph name="dollar" format="1">
  <advance width="591"/>
  <unicode hex="0024"/>
  <outline>
    <contour>
      <point x="85" y="-29"/>
      <point x="38" y="0"/>
      <point x="11" y="37" type="curve" smooth="yes"/>
      <point x="-17" y="74"/>
      <point x="-22" y="122"/>
      <point x="-6" y="159" type="curve"/>
      <point x="17" y="191"/>
      <point x="57" y="196"/>
      <point x="100" y="196" type="curve" smooth="yes"/>
      <point x="121" y="196"/>
      <point x="143" y="196"/>
      <point x="164" y="195" type="curve" smooth="yes"/>
      <point x="185" y="194"/>
      <point x="204" y="197"/>
      <point x="220" y="202" type="curve"/>
      <point x="248" y="209"/>
      <point x="269" y="215"/>
      <point x="284" y="220" type="curve" smooth="yes"/>
      <point x="298" y="225"/>
      <point x="307" y="229"/>
      <point x="312" y="232" type="curve" smooth="yes"/>
      <point x="317" y="235"/>
      <point x="317" y="238"/>
      <point x="314" y="241" type="curve"/>
      <point x="307" y="246"/>
      <point x="292" y="251"/>
      <point x="273" y="258" type="curve" smooth="yes"/>
      <point x="264" y="261"/>
      <point x="255" y="266"/>
      <point x="247" y="271" type="curve"/>
      <point x="211" y="288"/>
      <point x="170" y="318"/>
      <point x="139" y="359" type="curve" smooth="yes"/>
      <point x="108" y="399"/>
      <point x="88" y="451"/>
      <point x="95" y="515" type="curve" smooth="yes"/>
      <point x="100" y="572"/>
      <point x="123" y="617"/>
      <point x="152" y="651" type="curve" smooth="yes"/>
      <point x="180" y="685"/>
      <point x="216" y="707"/>
      <point x="251" y="723" type="curve" smooth="yes"/>
      <point x="315" y="751"/>
      <point x="366" y="764"/>
      <point x="415" y="768" type="curve" smooth="yes"/>
      <point x="464" y="771"/>
      <point x="514" y="764"/>
      <point x="577" y="752" type="curve"/>
      <point x="614" y="743"/>
      <point x="639" y="722"/>
      <point x="667" y="702" type="curve"/>
      <point x="692" y="678"/>
      <point x="695" y="654"/>
      <point x="685" y="636" type="curve" smooth="yes"/>
      <point x="675" y="618"/>
      <point x="651" y="605"/>
      <point x="627" y="605" type="curve"/>
      <point x="630" y="592"/>
      <point x="626" y="577"/>
      <point x="613" y="564" type="curve" smooth="yes"/>
      <point x="600" y="551"/>
      <point x="577" y="540"/>
      <point x="538" y="533" type="curve" smooth="yes"/>
      <point x="512" y="529"/>
      <point x="487" y="526"/>
      <point x="462" y="524" type="curve" smooth="yes"/>
      <point x="413" y="520"/>
      <point x="373" y="512"/>
      <point x="353" y="493" type="curve" smooth="yes"/>
      <point x="332" y="473"/>
      <point x="337" y="441"/>
      <point x="361" y="424" type="curve"/>
      <point x="372" y="415"/>
      <point x="386" y="406"/>
      <point x="402" y="395" type="curve" smooth="yes"/>
      <point x="434" y="374"/>
      <point x="471" y="349"/>
      <point x="498" y="317" type="curve" smooth="yes"/>
      <point x="525" y="284"/>
      <point x="540" y="244"/>
      <point x="528" y="193" type="curve" smooth="yes"/>
      <point x="517" y="146"/>
      <point x="485" y="89"/>
      <point x="425" y="43" type="curve" smooth="yes"/>
      <point x="365" y="-3"/>
      <point x="277" y="-37"/>
      <point x="156" y="-30" type="curve"/>
    </contour>
    <contour>
      <point x="343" y="879"/>
      <point x="368" y="907"/>
      <point x="401" y="922" type="curve" smooth="yes"/>
      <point x="434" y="937"/>
      <point x="477" y="938"/>
      <point x="514" y="927" type="curve" smooth="yes"/>
      <point x="551" y="915"/>
      <point x="581" y="889"/>
      <point x="592" y="852" type="curve"/>
      <point x="590" y="847"/>
      <point x="589" y="841"/>
      <point x="588" y="835" type="curve" smooth="yes"/>
      <point x="586" y="822"/>
      <point x="581" y="812"/>
      <point x="569" y="797" type="curve" smooth="yes"/>
      <point x="557" y="782"/>
      <point x="542" y="768"/>
      <point x="530" y="756" type="curve" smooth="yes"/>
      <point x="523" y="749"/>
      <point x="518" y="744"/>
      <point x="515" y="740" type="curve"/>
      <point x="494" y="715"/>
      <point x="479" y="684"/>
      <point x="464" y="655" type="curve"/>
      <point x="344" y="690" type="line"/>
      <point x="357" y="702"/>
      <point x="367" y="728"/>
      <point x="375" y="756" type="curve" smooth="yes"/>
      <point x="382" y="784"/>
      <point x="386" y="813"/>
      <point x="389" y="832" type="curve" smooth="yes"/>
      <point x="390" y="839"/>
      <point x="393" y="846"/>
      <point x="397" y="853" type="curve"/>
      <point x="400" y="860"/>
      <point x="400" y="865"/>
      <point x="395" y="870" type="curve" smooth="yes"/>
      <point x="393" y="872"/>
      <point x="392" y="872"/>
      <point x="391" y="869" type="curve" smooth="yes"/>
      <point x="390" y="866"/>
      <point x="390" y="863"/>
      <point x="389" y="859" type="curve"/>
      <point x="388" y="851"/>
      <point x="387" y="842"/>
      <point x="382" y="839" type="curve"/>
      <point x="379" y="838"/>
      <point x="378" y="838"/>
      <point x="378" y="841" type="curve" smooth="yes"/>
      <point x="378" y="845"/>
      <point x="380" y="854"/>
      <point x="383" y="863" type="curve"/>
      <point x="384" y="868"/>
      <point x="385" y="871"/>
      <point x="385" y="874" type="curve"/>
      <point x="404" y="910"/>
      <point x="441" y="931"/>
      <point x="481" y="939" type="curve" smooth="yes"/>
      <point x="520" y="947"/>
      <point x="563" y="942"/>
      <point x="592" y="924" type="curve" smooth="yes"/>
      <point x="621" y="906"/>
      <point x="638" y="875"/>
      <point x="627" y="834" type="curve"/>
      <point x="617" y="824"/>
      <point x="604" y="811"/>
      <point x="588" y="796" type="curve" smooth="yes"/>
      <point x="555" y="765"/>
      <point x="520" y="731"/>
      <point x="493" y="699" type="curve" smooth="yes"/>
      <point x="479" y="683"/>
      <point x="470" y="669"/>
      <point x="465" y="657" type="curve"/>
      <point x="449" y="638"/>
      <point x="417" y="628"/>
      <point x="390" y="629" type="curve" smooth="yes"/>
      <point x="362" y="630"/>
      <point x="338" y="645"/>
      <point x="338" y="678" type="curve" smooth="yes"/>
      <point x="338" y="701"/>
      <point x="339" y="725"/>
      <point x="341" y="748" type="curve" smooth="yes"/>
      <point x="343" y="771"/>
      <point x="345" y="794"/>
      <point x="346" y="817" type="curve"/>
      <point x="347" y="829"/>
      <point x="347" y="839"/>
      <point x="348" y="846" type="curve"/>
      <point x="348" y="860"/>
      <point x="342" y="857"/>
      <point x="344" y="849" type="curve" smooth="yes"/>
      <point x="345" y="845"/>
      <point x="344" y="841"/>
      <point x="343" y="838" type="curve"/>
    </contour>
    <contour>
      <point x="157" y="103"/>
      <point x="143" y="79"/>
      <point x="140" y="70" type="curve"/>
      <point x="137" y="57"/>
      <point x="135" y="42"/>
      <point x="136" y="24" type="curve"/>
      <point x="136" y="-13"/>
      <point x="135" y="-45"/>
      <point x="133" y="-92" type="curve" smooth="yes"/>
      <point x="132" y="-115"/>
      <point x="130" y="-139"/>
      <point x="129" y="-162" type="curve"/>
      <point x="172" y="-159"/>
      <point x="213" y="-158"/>
      <point x="256" y="-157" type="curve"/>
      <point x="257" y="-156"/>
      <point x="259" y="-149"/>
      <point x="264" y="-137" type="curve" smooth="yes"/>
      <point x="269" y="-126"/>
      <point x="274" y="-113"/>
      <point x="279" y="-99" type="curve" smooth="yes"/>
      <point x="284" y="-85"/>
      <point x="290" y="-72"/>
      <point x="295" y="-60" type="curve" smooth="yes"/>
      <point x="300" y="-49"/>
      <point x="303" y="-43"/>
      <point x="304" y="-42" type="curve"/>
      <point x="306" y="-41"/>
      <point x="307" y="-42"/>
      <point x="307" y="-43" type="curve"/>
      <point x="306" y="-44"/>
      <point x="305" y="-46"/>
      <point x="304" y="-49" type="curve"/>
      <point x="300" y="-54"/>
      <point x="297" y="-62"/>
      <point x="297" y="-66" type="curve" smooth="yes"/>
      <point x="297" y="-68"/>
      <point x="298" y="-67"/>
      <point x="300" y="-63" type="curve"/>
      <point x="301" y="-59"/>
      <point x="303" y="-56"/>
      <point x="304" y="-55" type="curve"/>
      <point x="325" y="-22" type="line" smooth="yes"/>
      <point x="331" y="-13"/>
      <point x="337" y="-4"/>
      <point x="344" y="5" type="curve" smooth="yes"/>
      <point x="357" y="22"/>
      <point x="364" y="39"/>
      <point x="367" y="52" type="curve"/>
      <point x="368" y="59"/>
      <point x="371" y="65"/>
      <point x="374" y="70" type="curve"/>
      <point x="359" y="125"/>
      <point x="310" y="151"/>
      <point x="258" y="152" type="curve" smooth="yes"/>
      <point x="205" y="153"/>
      <point x="150" y="128"/>
      <point x="125" y="83" type="curve"/>
      <point x="128" y="45"/>
      <point x="130" y="7"/>
      <point x="130" y="-32" type="curve" smooth="yes"/>
      <point x="129" y="-71"/>
      <point x="129" y="-111"/>
      <point x="129" y="-150" type="curve" smooth="yes"/>
      <point x="129" y="-182"/>
      <point x="158" y="-198"/>
      <point x="188" y="-199" type="curve" smooth="yes"/>
      <point x="218" y="-200"/>
      <point x="249" y="-185"/>
      <point x="256" y="-157" type="curve"/>
      <point x="289" y="-73" type="line"/>
      <point x="290" y="-70"/>
      <point x="290" y="-71"/>
      <point x="288" y="-75" type="curve" smooth="yes"/>
      <point x="284" y="-83"/>
      <point x="279" y="-97"/>
      <point x="276" y="-106" type="curve"/>
      <point x="274" y="-111"/>
      <point x="274" y="-112"/>
      <point x="276" y="-109" type="curve"/>
      <point x="285" y="-97"/>
      <point x="292" y="-85"/>
      <point x="298" y="-72" type="curve" smooth="yes"/>
      <point x="310" y="-47"/>
      <point x="322" y="-23"/>
      <point x="339" y="-3" type="curve" smooth="yes"/>
      <point x="348" y="7"/>
      <point x="359" y="16"/>
      <point x="372" y="23" type="curve"/>
      <point x="400" y="56"/>
      <point x="402" y="84"/>
      <point x="389" y="105" type="curve" smooth="yes"/>
      <point x="376" y="126"/>
      <point x="348" y="140"/>
      <point x="317" y="148" type="curve"/>
      <point x="301" y="151"/>
      <point x="285" y="153"/>
      <point x="269" y="153" type="curve" smooth="yes"/>
      <point x="252" y="153"/>
      <point x="237" y="151"/>
      <point x="224" y="147" type="curve"/>
      <point x="207" y="143"/>
      <point x="198" y="139"/>
      <point x="191" y="134" type="curve" smooth="yes"/>
      <point x="187" y="131"/>
      <point x="183" y="128"/>
      <point x="179" y="125" type="curve"/>
      <point x="175" y="121"/>
      <point x="170" y="116"/>
      <point x="164" y="111" type="curve"/>
    </contour>
  </outline>
</glyph>
<glyph name="percent" format="1">
  <advance width="976"/>
  <unicode hex="0025"/>
  <outline>
    <contour>
      <point x="261" y="-33" type="line"/>
      <point x="246" y="-53" type="line"/>
      <point x="223" y="-70"/>
      <point x="195" y="-82"/>
      <point x="169" y="-83" type="curve" smooth="yes"/>
      <point x="143" y="-84"/>
      <point x="120" y="-76"/>
      <point x="109" y="-55" type="curve"/>
      <point x="82" y="-48"/>
      <point x="80" y="-21"/>
      <point x="92" y="12" type="curve" smooth="yes"/>
      <point x="104" y="44"/>
      <point x="130" y="84"/>
      <point x="161" y="116" type="curve"/>
      <point x="178" y="131"/>
      <point x="182" y="137"/>
      <point x="190" y="150" type="curve"/>
      <point x="194" y="156"/>
      <point x="201" y="164"/>
      <point x="210" y="175" type="curve" smooth="yes"/>
      <point x="219" y="186"/>
      <point x="234" y="201"/>
      <point x="255" y="221" type="curve" smooth="yes"/>
      <point x="389" y="355" type="line"/>
      <point x="462" y="429" type="line"/>
      <point x="480" y="448" type="line"/>
      <point x="484" y="454" type="line" smooth="yes"/>
      <point x="525" y="514"/>
      <point x="567" y="573"/>
      <point x="612" y="630" type="curve" smooth="yes"/>
      <point x="622" y="643"/>
      <point x="633" y="658"/>
      <point x="644" y="674" type="curve" smooth="yes"/>
      <point x="655" y="689"/>
      <point x="668" y="704"/>
      <point x="681" y="718" type="curve"/>
      <point x="685" y="726"/>
      <point x="687" y="735"/>
      <point x="690" y="744" type="curve"/>
      <point x="706" y="783"/>
      <point x="741" y="809"/>
      <point x="781" y="822" type="curve" smooth="yes"/>
      <point x="820" y="835"/>
      <point x="862" y="836"/>
      <point x="894" y="824" type="curve"/>
      <point x="925" y="811"/>
      <point x="944" y="784"/>
      <point x="937" y="743" type="curve"/>
      <point x="909" y="675"/>
      <point x="865" y="617"/>
      <point x="816" y="562" type="curve" smooth="yes"/>
      <point x="791" y="534"/>
      <point x="766" y="507"/>
      <point x="739" y="481" type="curve" smooth="yes"/>
      <point x="712" y="455"/>
      <point x="685" y="429"/>
      <point x="660" y="403" type="curve" smooth="yes"/>
      <point x="550" y="291" type="line"/>
      <point x="543" y="282"/>
      <point x="535" y="273"/>
      <point x="527" y="264" type="curve" smooth="yes"/>
      <point x="519" y="255"/>
      <point x="511" y="246"/>
      <point x="504" y="237" type="curve"/>
      <point x="431" y="150"/>
      <point x="361" y="65"/>
      <point x="282" y="-15" type="curve"/>
    </contour>
    <contour>
      <point x="510" y="174"/>
      <point x="535" y="203"/>
      <point x="562" y="228" type="curve"/>
      <point x="558" y="260"/>
      <point x="586" y="293"/>
      <point x="638" y="316" type="curve"/>
      <point x="661" y="319"/>
      <point x="684" y="323"/>
      <point x="706" y="328" type="curve" smooth="yes"/>
      <point x="749" y="339"/>
      <point x="790" y="344"/>
      <point x="831" y="335" type="curve" smooth="yes"/>
      <point x="871" y="326"/>
      <point x="928" y="283"/>
      <point x="943" y="227" type="curve" smooth="yes"/>
      <point x="958" y="170"/>
      <point x="944" y="112"/>
      <point x="912" y="62" type="curve" smooth="yes"/>
      <point x="895" y="37"/>
      <point x="877" y="16"/>
      <point x="857" y="0" type="curve" smooth="yes"/>
      <point x="836" y="-17"/>
      <point x="809" y="-28"/>
      <point x="782" y="-36" type="curve" smooth="yes"/>
      <point x="754" y="-44"/>
      <point x="724" y="-49"/>
      <point x="699" y="-53" type="curve" smooth="yes"/>
      <point x="693" y="-54"/>
      <point x="688" y="-55"/>
      <point x="685" y="-55" type="curve" smooth="yes"/>
      <point x="678" y="-55"/>
      <point x="673" y="-54"/>
      <point x="667" y="-53" type="curve"/>
      <point x="664" y="-52"/>
      <point x="659" y="-52"/>
      <point x="653" y="-51" type="curve" smooth="yes"/>
      <point x="613" y="-44"/>
      <point x="580" y="-35"/>
      <point x="553" y="-18" type="curve" smooth="yes"/>
      <point x="525" y="-1"/>
      <point x="504" y="25"/>
      <point x="492" y="66" type="curve" smooth="yes"/>
      <point x="485" y="90"/>
      <point x="494" y="116"/>
      <point x="501" y="139" type="curve"/>
    </contour>
    <contour>
      <point x="331" y="798"/>
      <point x="381" y="808"/>
      <point x="433" y="785" type="curve" smooth="yes"/>
      <point x="477" y="766"/>
      <point x="492" y="740"/>
      <point x="488" y="715" type="curve"/>
      <point x="503" y="698"/>
      <point x="512" y="679"/>
      <point x="517" y="658" type="curve" smooth="yes"/>
      <point x="522" y="638"/>
      <point x="525" y="617"/>
      <point x="514" y="597" type="curve"/>
      <point x="486" y="534"/>
      <point x="427" y="488"/>
      <point x="372" y="453" type="curve" smooth="yes"/>
      <point x="329" y="426"/>
      <point x="267" y="414"/>
      <point x="212" y="422" type="curve" smooth="yes"/>
      <point x="157" y="430"/>
      <point x="110" y="458"/>
      <point x="97" y="513" type="curve" smooth="yes"/>
      <point x="77" y="598"/>
      <point x="93" y="660"/>
      <point x="129" y="703" type="curve" smooth="yes"/>
      <point x="164" y="746"/>
      <point x="217" y="768"/>
      <point x="270" y="775" type="curve"/>
      <point x="271" y="775"/>
      <point x="273" y="775"/>
      <point x="275" y="776" type="curve"/>
      <point x="276" y="776"/>
      <point x="278" y="776"/>
      <point x="279" y="776" type="curve"/>
      <point x="279" y="776"/>
      <point x="279" y="776"/>
      <point x="280" y="777" type="curve"/>
    </contour>
    <contour>
      <point x="810" y="150"/>
      <point x="812" y="154"/>
      <point x="813" y="159" type="curve" smooth="yes"/>
      <point x="814" y="164"/>
      <point x="815" y="168"/>
      <point x="815" y="173" type="curve"/>
      <point x="810" y="172"/>
      <point x="806" y="170"/>
      <point x="801" y="168" type="curve" smooth="yes"/>
      <point x="796" y="166"/>
      <point x="790" y="164"/>
      <point x="785" y="163" type="curve"/>
      <point x="782" y="163"/>
      <point x="776" y="162"/>
      <point x="768" y="161" type="curve" smooth="yes"/>
      <point x="760" y="160"/>
      <point x="754" y="159"/>
      <point x="749" y="159" type="curve"/>
      <point x="746" y="156"/>
      <point x="743" y="154"/>
      <point x="740" y="153" type="curve"/>
      <point x="737" y="151"/>
      <point x="734" y="149"/>
      <point x="733" y="148" type="curve"/>
      <point x="722" y="140"/>
      <point x="696" y="122"/>
      <point x="680" y="102" type="curve" smooth="yes"/>
      <point x="663" y="82"/>
      <point x="654" y="58"/>
      <point x="681" y="41" type="curve"/>
      <point x="706" y="24"/>
      <point x="736" y="41"/>
      <point x="761" y="67" type="curve" smooth="yes"/>
      <point x="785" y="93"/>
      <point x="804" y="126"/>
      <point x="809" y="145" type="curve"/>
    </contour>
    <contour>
      <point x="288" y="575"/>
      <point x="267" y="560"/>
      <point x="240" y="551" type="curve"/>
      <point x="239" y="546"/>
      <point x="239" y="541"/>
      <point x="239" y="536" type="curve" smooth="yes"/>
      <point x="239" y="531"/>
      <point x="241" y="527"/>
      <point x="244" y="523" type="curve"/>
      <point x="271" y="523"/>
      <point x="298" y="530"/>
      <point x="319" y="545" type="curve" smooth="yes"/>
      <point x="339" y="560"/>
      <point x="354" y="581"/>
      <point x="354" y="609" type="curve"/>
      <point x="345" y="606"/>
      <point x="337" y="604"/>
      <point x="329" y="602" type="curve" smooth="yes"/>
      <point x="320" y="600"/>
      <point x="312" y="597"/>
      <point x="304" y="594" type="curve"/>
    </contour>
    <contour>
      <point x="775" y="173"/>
      <point x="779" y="176"/>
      <point x="784" y="179" type="curve" smooth="yes"/>
      <point x="789" y="182"/>
      <point x="791" y="182"/>
      <point x="788" y="181" type="curve"/>
      <point x="783" y="178"/>
      <point x="779" y="175"/>
      <point x="775" y="173" type="curve"/>
      <point x="770" y="171"/>
      <point x="766" y="168"/>
      <point x="761" y="165" type="curve"/>
      <point x="760" y="164"/>
      <point x="759" y="164"/>
      <point x="759" y="164" type="curve"/>
      <point x="762" y="166"/>
      <point x="764" y="168"/>
      <point x="767" y="169" type="curve"/>
      <point x="769" y="170"/>
      <point x="771" y="171"/>
      <point x="772" y="172" type="curve"/>
    </contour>
    <contour>
      <point x="794" y="559" type="line"/>
      <point x="791" y="555" type="line"/>
    </contour>
  </outline>
</glyph>
<glyph name="ampersand" format="1">
  <advance width="712"/>
  <unicode hex="0026"/>
  <outline>
    <contour>
      <point x="680" y="-24"/>
      <point x="669" y="-47"/>
      <point x="640" y="-62" type="curve" smooth="yes"/>
      <point x="611" y="-78"/>
      <point x="565" y="-86"/>
      <point x="524" y="-91" type="curve" smooth="yes"/>
      <point x="501" y="-94"/>
      <point x="483" y="-86"/>
      <point x="467" y="-75" type="curve"/>
      <point x="458" y="-70"/>
      <point x="451" y="-64"/>
      <point x="444" y="-57" type="curve" smooth="yes"/>
      <point x="437" y="-50"/>
      <point x="430" y="-44"/>
      <point x="424" y="-39" type="curve"/>
      <point x="360" y="-84"/>
      <point x="286" y="-92"/>
      <point x="215" y="-91" type="curve" smooth="yes"/>
      <point x="123" y="-90"/>
      <point x="63" y="-72"/>
      <point x="32" y="-30" type="curve" smooth="yes"/>
      <point x="1" y="12"/>
      <point x="0" y="77"/>
      <point x="27" y="176" type="curve"/>
      <point x="46" y="224"/>
      <point x="79" y="268"/>
      <point x="117" y="307" type="curve" smooth="yes"/>
      <point x="155" y="346"/>
      <point x="196" y="378"/>
      <point x="232" y="406" type="curve"/>
      <point x="239" y="411" type="line"/>
      <point x="224" y="499"/>
      <point x="233" y="562"/>
      <point x="255" y="610" type="curve" smooth="yes"/>
      <point x="277" y="657"/>
      <point x="312" y="688"/>
      <point x="355" y="712" type="curve"/>
      <point x="384" y="732"/>
      <point x="429" y="753"/>
      <point x="477" y="764" type="curve" smooth="yes"/>
      <point x="524" y="775"/>
      <point x="573" y="776"/>
      <point x="610" y="757" type="curve" smooth="yes"/>
      <point x="646" y="737"/>
      <point x="670" y="698"/>
      <point x="667" y="627" type="curve" smooth="yes"/>
      <point x="666" y="592"/>
      <point x="651" y="546"/>
      <point x="620" y="501" type="curve" smooth="yes"/>
      <point x="589" y="456"/>
      <point x="544" y="411"/>
      <point x="481" y="379" type="curve"/>
      <point x="484" y="319"/>
      <point x="497" y="258"/>
      <point x="520" y="202" type="curve"/>
      <point x="527" y="209"/>
      <point x="533" y="216"/>
      <point x="544" y="225" type="curve"/>
      <point x="545" y="226"/>
      <point x="547" y="229"/>
      <point x="548" y="232" type="curve"/>
      <point x="550" y="239"/>
      <point x="553" y="247"/>
      <point x="559" y="255" type="curve" smooth="yes"/>
      <point x="562" y="259"/>
      <point x="566" y="262"/>
      <point x="572" y="265" type="curve"/>
      <point x="572" y="265"/>
      <point x="575" y="265"/>
      <point x="581" y="266" type="curve"/>
      <point x="586" y="266"/>
      <point x="592" y="266"/>
      <point x="599" y="267" type="curve" smooth="yes"/>
      <point x="606" y="268"/>
      <point x="612" y="268"/>
      <point x="618" y="269" type="curve"/>
      <point x="623" y="269"/>
      <point x="626" y="269"/>
      <point x="626" y="270" type="curve"/>
      <point x="653" y="315"/>
      <point x="685" y="319"/>
      <point x="700" y="263" type="curve"/>
      <point x="701" y="252"/>
      <point x="696" y="237"/>
      <point x="685" y="220" type="curve"/>
      <point x="662" y="163"/>
      <point x="643" y="106"/>
      <point x="603" y="58" type="curve"/>
      <point x="602" y="57"/>
      <point x="602" y="56"/>
      <point x="601" y="56" type="curve"/>
      <point x="600" y="55"/>
      <point x="600" y="55"/>
      <point x="599" y="54" type="curve"/>
      <point x="608" y="42"/>
      <point x="617" y="37"/>
      <point x="625" y="32" type="curve"/>
      <point x="629" y="29"/>
      <point x="633" y="27"/>
      <point x="638" y="24" type="curve"/>
      <point x="642" y="21"/>
      <point x="647" y="17"/>
      <point x="652" y="12" type="curve"/>
    </contour>
    <contour>
      <point x="267" y="224" type="line"/>
      <point x="248" y="201"/>
      <point x="225" y="168"/>
      <point x="217" y="140" type="curve" smooth="yes"/>
      <point x="208" y="111"/>
      <point x="213" y="88"/>
      <point x="252" y="88" type="curve" smooth="yes"/>
      <point x="262" y="88"/>
      <point x="270" y="88"/>
      <point x="275" y="87" type="curve" smooth="yes"/>
      <point x="280" y="86"/>
      <point x="286" y="86"/>
      <point x="291" y="86" type="curve" smooth="yes"/>
      <point x="301" y="86"/>
      <point x="312" y="87"/>
      <point x="336" y="94" type="curve"/>
      <point x="316" y="117"/>
      <point x="298" y="143"/>
      <point x="289" y="172" type="curve"/>
    </contour>
    <contour>
      <point x="509" y="638" type="line"/>
      <point x="466" y="647"/>
      <point x="435" y="635"/>
      <point x="419" y="612" type="curve" smooth="yes"/>
      <point x="403" y="588"/>
      <point x="401" y="556"/>
      <point x="414" y="527" type="curve"/>
      <point x="417" y="529"/>
      <point x="419" y="531"/>
      <point x="422" y="533" type="curve" smooth="yes"/>
      <point x="425" y="535"/>
      <point x="427" y="537"/>
      <point x="430" y="540" type="curve"/>
      <point x="438" y="547"/>
      <point x="450" y="555"/>
      <point x="465" y="564" type="curve"/>
      <point x="496" y="580"/>
      <point x="522" y="598"/>
      <point x="529" y="615" type="curve" smooth="yes"/>
      <point x="532" y="623"/>
      <point x="526" y="631"/>
      <point x="510" y="638" type="curve"/>
    </contour>
    <contour>
      <point x="463" y="537" type="line"/>
      <point x="425" y="534" type="line"/>
    </contour>
    <contour>
      <point x="423" y="532" type="line"/>
      <point x="420" y="529" type="line"/>
    </contour>
  </outline>
</glyph>
<glyph name="quotesingle" format="1">
  <advance width="158"/>
  <unicode hex="0027"/>
  <outline>
    <contour>
      <point x="15" y="644"/>
      <point x="39" y="678"/>
      <point x="71" y="694" type="curve" smooth="yes"/>
      <point x="102" y="709"/>
      <point x="140" y="707"/>
      <point x="169" y="688" type="curve"/>
      <point x="197" y="668"/>
      <point x="215" y="632"/>
      <point x="206" y="580" type="curve"/>
      <point x="207" y="548"/>
      <point x="198" y="520"/>
      <point x="184" y="493" type="curve" smooth="yes"/>
      <point x="177" y="480"/>
      <point x="169" y="467"/>
      <point x="160" y="455" type="curve"/>
      <point x="151" y="442"/>
      <point x="143" y="430"/>
      <point x="136" y="418" type="curve" smooth="yes"/>
      <point x="123" y="395"/>
      <point x="96" y="382"/>
      <point x="72" y="384" type="curve" smooth="yes"/>
      <point x="48" y="386"/>
      <point x="28" y="403"/>
      <point x="28" y="446" type="curve" smooth="yes"/>
      <point x="28" y="469"/>
      <point x="26" y="491"/>
      <point x="23" y="514" type="curve"/>
      <point x="19" y="537"/>
      <point x="16" y="563"/>
      <point x="15" y="592" type="curve"/>
    </contour>
  </outline>
</glyph>
<glyph name="parenleft" format="1">
  <advance width="391"/>
  <unicode hex="0028"/>
  <outline>
    <contour>
      <point x="193" y="712"/>
      <point x="230" y="756"/>
      <point x="274" y="794" type="curve" smooth="yes"/>
      <point x="317" y="832"/>
      <point x="366" y="865"/>
      <point x="414" y="880" type="curve" smooth="yes"/>
      <point x="461" y="895"/>
      <point x="505" y="890"/>
      <point x="540" y="854" type="curve"/>
      <point x="563" y="826"/>
      <point x="562" y="790"/>
      <point x="546" y="755" type="curve" smooth="yes"/>
      <point x="530" y="720"/>
      <point x="500" y="686"/>
      <point x="465" y="661" type="curve" smooth="yes"/>
      <point x="408" y="620"/>
      <point x="361" y="587"/>
      <point x="325" y="552" type="curve" smooth="yes"/>
      <point x="288" y="516"/>
      <point x="260" y="479"/>
      <point x="239" y="431" type="curve" smooth="yes"/>
      <point x="218" y="382"/>
      <point x="203" y="322"/>
      <point x="191" y="242" type="curve" smooth="yes"/>
      <point x="178" y="169"/>
      <point x="185" y="106"/>
      <point x="198" y="54" type="curve" smooth="yes"/>
      <point x="204" y="28"/>
      <point x="211" y="4"/>
      <point x="218" y="-17" type="curve" smooth="yes"/>
      <point x="232" y="-60"/>
      <point x="237" y="-94"/>
      <point x="228" y="-119" type="curve" smooth="yes"/>
      <point x="223" y="-132"/>
      <point x="212" y="-143"/>
      <point x="194" y="-152" type="curve"/>
      <point x="134" y="-149"/>
      <point x="93" y="-92"/>
      <point x="68" y="-17" type="curve" smooth="yes"/>
      <point x="43" y="58"/>
      <point x="32" y="148"/>
      <point x="29" y="219" type="curve" smooth="yes"/>
      <point x="26" y="287"/>
      <point x="43" y="376"/>
      <point x="71" y="461" type="curve" smooth="yes"/>
      <point x="98" y="545"/>
      <point x="134" y="626"/>
      <point x="170" y="679" type="curve" smooth="yes"/>
    </contour>
  </outline>
</glyph>
<glyph name="parenright" format="1">
  <advance width="427"/>
  <unicode hex="0029"/>
  <outline>
    <contour>
      <point x="165" y="217"/>
      <point x="191" y="320"/>
      <point x="201" y="425" type="curve" smooth="yes"/>
      <point x="211" y="529"/>
      <point x="205" y="638"/>
      <point x="189" y="727" type="curve" smooth="yes"/>
      <point x="180" y="788"/>
      <point x="201" y="831"/>
      <point x="234" y="853" type="curve" smooth="yes"/>
      <point x="267" y="875"/>
      <point x="313" y="876"/>
      <point x="354" y="856" type="curve" smooth="yes"/>
      <point x="394" y="836"/>
      <point x="429" y="795"/>
      <point x="442" y="732" type="curve"/>
      <point x="443" y="724"/>
      <point x="444" y="715"/>
      <point x="445" y="705" type="curve" smooth="yes"/>
      <point x="447" y="684"/>
      <point x="449" y="662"/>
      <point x="450" y="642" type="curve"/>
      <point x="451" y="631"/>
      <point x="451" y="622"/>
      <point x="451" y="614" type="curve" smooth="yes"/>
      <point x="450" y="525"/>
      <point x="427" y="416"/>
      <point x="392" y="311" type="curve" smooth="yes"/>
      <point x="356" y="206"/>
      <point x="308" y="103"/>
      <point x="256" y="30" type="curve" smooth="yes"/>
      <point x="223" y="-18"/>
      <point x="193" y="-54"/>
      <point x="158" y="-86" type="curve" smooth="yes"/>
      <point x="123" y="-118"/>
      <point x="82" y="-147"/>
      <point x="26" y="-182" type="curve" smooth="yes"/>
      <point x="-21" y="-211"/>
      <point x="-64" y="-199"/>
      <point x="-86" y="-175" type="curve" smooth="yes"/>
      <point x="-108" y="-151"/>
      <point x="-110" y="-114"/>
      <point x="-70" y="-91" type="curve"/>
      <point x="-22" y="-58"/>
      <point x="12" y="-26"/>
      <point x="40" y="11" type="curve" smooth="yes"/>
      <point x="68" y="47"/>
      <point x="91" y="87"/>
      <point x="120" y="138" type="curve" smooth="yes"/>
    </contour>
  </outline>
</glyph>
<glyph name="asterisk" format="1">
  <advance width="558"/>
  <unicode hex="002A"/>
  <outline>
    <contour>
      <point x="463" y="748"/>
      <point x="475" y="750"/>
      <point x="484" y="752" type="curve"/>
      <point x="493" y="753"/>
      <point x="504" y="753"/>
      <point x="517" y="752" type="curve"/>
      <point x="550" y="756"/>
      <point x="581" y="755"/>
      <point x="616" y="743" type="curve" smooth="yes"/>
      <point x="660" y="727"/>
      <point x="677" y="705"/>
      <point x="675" y="684" type="curve" smooth="yes"/>
      <point x="673" y="663"/>
      <point x="649" y="640"/>
      <point x="616" y="623" type="curve"/>
      <point x="603" y="619"/>
      <point x="590" y="614"/>
      <point x="578" y="609" type="curve"/>
      <point x="566" y="603"/>
      <point x="553" y="599"/>
      <point x="540" y="596" type="curve" smooth="yes"/>
      <point x="535" y="595"/>
      <point x="536" y="597"/>
      <point x="543" y="600" type="curve" smooth="yes"/>
      <point x="556" y="606"/>
      <point x="576" y="613"/>
      <point x="589" y="618" type="curve"/>
      <point x="595" y="620"/>
      <point x="596" y="620"/>
      <point x="592" y="619" type="curve"/>
      <point x="513" y="591"/>
      <point x="443" y="555"/>
      <point x="372" y="516" type="curve"/>
      <point x="436" y="477"/>
      <point x="500" y="437"/>
      <point x="557" y="390" type="curve"/>
      <point x="570" y="370"/>
      <point x="564" y="358"/>
      <point x="550" y="353" type="curve" smooth="yes"/>
      <point x="536" y="348"/>
      <point x="514" y="346"/>
      <point x="497" y="349" type="curve"/>
      <point x="490" y="349"/>
      <point x="483" y="351"/>
      <point x="477" y="354" type="curve"/>
      <point x="470" y="357"/>
      <point x="464" y="360"/>
      <point x="457" y="362" type="curve"/>
      <point x="418" y="375"/>
      <point x="383" y="392"/>
      <point x="347" y="408" type="curve"/>
      <point x="346" y="397"/>
      <point x="345" y="386"/>
      <point x="345" y="374" type="curve"/>
      <point x="346" y="365"/>
      <point x="346" y="357"/>
      <point x="347" y="348" type="curve" smooth="yes"/>
      <point x="348" y="339"/>
      <point x="349" y="331"/>
      <point x="350" y="322" type="curve"/>
      <point x="347" y="307"/>
      <point x="342" y="294"/>
      <point x="335" y="282" type="curve"/>
      <point x="314" y="239"/>
      <point x="273" y="222"/>
      <point x="234" y="227" type="curve" smooth="yes"/>
      <point x="194" y="231"/>
      <point x="156" y="258"/>
      <point x="137" y="303" type="curve"/>
      <point x="137" y="328"/>
      <point x="140" y="353"/>
      <point x="146" y="378" type="curve"/>
      <point x="148" y="395" type="line"/>
      <point x="102" y="374" type="line"/>
      <point x="93" y="372"/>
      <point x="81" y="371"/>
      <point x="67" y="371" type="curve" smooth="yes"/>
      <point x="38" y="371"/>
      <point x="13" y="378"/>
      <point x="2" y="393" type="curve" smooth="yes"/>
      <point x="-3" y="400"/>
      <point x="-2" y="410"/>
      <point x="6" y="423" type="curve"/>
      <point x="31" y="458"/>
      <point x="69" y="485"/>
      <point x="108" y="513" type="curve"/>
      <point x="105" y="514"/>
      <point x="103" y="515"/>
      <point x="101" y="516" type="curve"/>
      <point x="98" y="516"/>
      <point x="96" y="517"/>
      <point x="94" y="518" type="curve"/>
      <point x="94" y="517"/>
      <point x="94" y="517"/>
      <point x="95" y="517" type="curve"/>
      <point x="95" y="516"/>
      <point x="95" y="516"/>
      <point x="95" y="515" type="curve"/>
      <point x="94" y="512"/>
      <point x="92" y="510"/>
      <point x="89" y="510" type="curve" smooth="yes"/>
      <point x="86" y="510"/>
      <point x="82" y="511"/>
      <point x="77" y="513" type="curve"/>
      <point x="68" y="516"/>
      <point x="57" y="520"/>
      <point x="49" y="521" type="curve"/>
      <point x="1" y="536"/>
      <point x="-24" y="556"/>
      <point x="-34" y="574" type="curve" smooth="yes"/>
      <point x="-44" y="592"/>
      <point x="-37" y="609"/>
      <point x="-18" y="621" type="curve"/>
      <point x="-29" y="657"/>
      <point x="-7" y="676"/>
      <point x="25" y="685" type="curve" smooth="yes"/>
      <point x="56" y="694"/>
      <point x="96" y="691"/>
      <point x="127" y="683" type="curve"/>
      <point x="143" y="678"/>
      <point x="150" y="674"/>
      <point x="158" y="670" type="curve"/>
      <point x="161" y="667"/>
      <point x="165" y="665"/>
      <point x="168" y="662" type="curve" smooth="yes"/>
      <point x="171" y="659"/>
      <point x="176" y="655"/>
      <point x="182" y="651" type="curve"/>
      <point x="186" y="644"/>
      <point x="190" y="638"/>
      <point x="194" y="633" type="curve"/>
      <point x="217" y="721"/>
      <point x="243" y="806"/>
      <point x="275" y="874" type="curve"/>
      <point x="287" y="902"/>
      <point x="316" y="915"/>
      <point x="341" y="912" type="curve"/>
      <point x="365" y="908"/>
      <point x="385" y="889"/>
      <point x="378" y="852" type="curve"/>
      <point x="365" y="803"/>
      <point x="358" y="756"/>
      <point x="355" y="705" type="curve"/>
      <point x="362" y="710"/>
      <point x="370" y="714"/>
      <point x="378" y="718" type="curve"/>
      <point x="389" y="723"/>
      <point x="401" y="728"/>
      <point x="413" y="733" type="curve"/>
      <point x="425" y="737"/>
      <point x="437" y="741"/>
      <point x="448" y="746" type="curve"/>
    </contour>
  </outline>
</glyph>
<glyph name="plus" format="1">
  <advance width="497"/>
  <unicode hex="002B"/>
  <outline>
    <contour>
      <point x="292" y="268"/>
      <point x="280" y="231"/>
      <point x="269" y="208" type="curve" smooth="yes"/>
      <point x="257" y="185"/>
      <point x="246" y="176"/>
      <point x="234" y="172" type="curve"/>
      <point x="228" y="169"/>
      <point x="222" y="167"/>
      <point x="215" y="166" type="curve"/>
      <point x="208" y="164"/>
      <point x="200" y="161"/>
      <point x="192" y="157" type="curve" smooth="yes"/>
      <point x="155" y="138"/>
      <point x="116" y="141"/>
      <point x="92" y="160" type="curve" smooth="yes"/>
      <point x="67" y="179"/>
      <point x="55" y="213"/>
      <point x="71" y="258" type="curve"/>
      <point x="74" y="268"/>
      <point x="77" y="278"/>
      <point x="81" y="288" type="curve"/>
      <point x="84" y="298"/>
      <point x="88" y="308"/>
      <point x="91" y="317" type="curve"/>
      <point x="80" y="322"/>
      <point x="73" y="325"/>
      <point x="70" y="332" type="curve"/>
      <point x="63" y="337"/>
      <point x="58" y="343"/>
      <point x="55" y="351" type="curve"/>
      <point x="40" y="358"/>
      <point x="26" y="365"/>
      <point x="13" y="372" type="curve"/>
      <point x="-1" y="378"/>
      <point x="-13" y="385"/>
      <point x="-22" y="392" type="curve"/>
      <point x="-41" y="411"/>
      <point x="-45" y="425"/>
      <point x="-38" y="437" type="curve" smooth="yes"/>
      <point x="-31" y="449"/>
      <point x="-15" y="458"/>
      <point x="8" y="466" type="curve"/>
      <point x="30" y="465"/>
      <point x="45" y="464"/>
      <point x="54" y="465" type="curve"/>
      <point x="62" y="465"/>
      <point x="67" y="465"/>
      <point x="68" y="466" type="curve"/>
      <point x="70" y="466"/>
      <point x="62" y="467"/>
      <point x="63" y="467" type="curve"/>
      <point x="64" y="466"/>
      <point x="68" y="465"/>
      <point x="75" y="464" type="curve" smooth="yes"/>
      <point x="82" y="463"/>
      <point x="97" y="460"/>
      <point x="118" y="457" type="curve"/>
      <point x="130" y="454"/>
      <point x="141" y="453"/>
      <point x="156" y="452" type="curve"/>
      <point x="176" y="505"/>
      <point x="195" y="558"/>
      <point x="208" y="611" type="curve"/>
      <point x="205" y="621"/>
      <point x="204" y="632"/>
      <point x="206" y="644" type="curve"/>
      <point x="235" y="685"/>
      <point x="288" y="713"/>
      <point x="344" y="710" type="curve"/>
      <point x="367" y="713"/>
      <point x="392" y="711"/>
      <point x="409" y="703" type="curve" smooth="yes"/>
      <point x="426" y="695"/>
      <point x="436" y="680"/>
      <point x="428" y="659" type="curve"/>
      <point x="429" y="656"/>
      <point x="433" y="652"/>
      <point x="439" y="646" type="curve" smooth="yes"/>
      <point x="445" y="640"/>
      <point x="448" y="635"/>
      <point x="448" y="632" type="curve"/>
      <point x="437" y="601"/>
      <point x="422" y="575"/>
      <point x="404" y="548" type="curve" smooth="yes"/>
      <point x="395" y="535"/>
      <point x="385" y="521"/>
      <point x="376" y="508" type="curve" smooth="yes"/>
      <point x="367" y="495"/>
      <point x="358" y="481"/>
      <point x="350" y="467" type="curve"/>
      <point x="349" y="465"/>
      <point x="349" y="463"/>
      <point x="348" y="461" type="curve" smooth="yes"/>
      <point x="347" y="459"/>
      <point x="347" y="457"/>
      <point x="346" y="454" type="curve"/>
      <point x="379" y="457"/>
      <point x="411" y="459"/>
      <point x="450" y="466" type="curve"/>
      <point x="481" y="469"/>
      <point x="518" y="460"/>
      <point x="536" y="445" type="curve" smooth="yes"/>
      <point x="545" y="438"/>
      <point x="548" y="429"/>
      <point x="545" y="419" type="curve" smooth="yes"/>
      <point x="542" y="409"/>
      <point x="530" y="399"/>
      <point x="507" y="388" type="curve"/>
      <point x="498" y="387"/>
      <point x="487" y="385"/>
      <point x="472" y="382" type="curve"/>
      <point x="457" y="378"/>
      <point x="442" y="374"/>
      <point x="426" y="370" type="curve" smooth="yes"/>
      <point x="409" y="366"/>
      <point x="394" y="362"/>
      <point x="379" y="358" type="curve" smooth="yes"/>
      <point x="364" y="354"/>
      <point x="352" y="351"/>
      <point x="343" y="349" type="curve"/>
      <point x="332" y="346"/>
      <point x="322" y="344"/>
      <point x="307" y="329" type="curve"/>
    </contour>
    <contour>
      <point x="344" y="454" type="line"/>
      <point x="345" y="456"/>
      <point x="345" y="458"/>
      <point x="346" y="459" type="curve"/>
      <point x="346" y="460"/>
      <point x="346" y="461"/>
      <point x="346" y="462" type="curve"/>
      <point x="346" y="461"/>
      <point x="346" y="461"/>
      <point x="346" y="461" type="curve"/>
      <point x="345" y="460"/>
      <point x="345" y="459"/>
      <point x="345" y="458" type="curve"/>
      <point x="345" y="458"/>
      <point x="344" y="457"/>
      <point x="343" y="454" type="curve"/>
    </contour>
  </outline>
</glyph>
<glyph name="period" format="1">
  <advance width="235"/>
  <unicode hex="002E"/>
  <outline>
    <contour>
      <point x="6" y="-36"/>
      <point x="2" y="3"/>
      <point x="20" y="37" type="curve" smooth="yes"/>
      <point x="38" y="71"/>
      <point x="79" y="99"/>
      <point x="115" y="106" type="curve" smooth="yes"/>
      <point x="128" y="109"/>
      <point x="138" y="110"/>
      <point x="146" y="109" type="curve" smooth="yes"/>
      <point x="154" y="108"/>
      <point x="163" y="106"/>
      <point x="176" y="102" type="curve"/>
      <point x="178" y="100"/>
      <point x="179" y="99"/>
      <point x="180" y="99" type="curve"/>
      <point x="217" y="68"/>
      <point x="222" y="35"/>
      <point x="207" y="5" type="curve" smooth="yes"/>
      <point x="192" y="-25"/>
      <point x="160" y="-51"/>
      <point x="128" y="-60" type="curve" smooth="yes"/>
      <point x="112" y="-64"/>
      <point x="104" y="-66"/>
      <point x="96" y="-66" type="curve" smooth="yes"/>
      <point x="87" y="-66"/>
      <point x="78" y="-65"/>
      <point x="62" y="-62" type="curve"/>
      <point x="61" y="-62" type="line" smooth="yes"/>
      <point x="61" y="-62"/>
      <point x="60" y="-61"/>
      <point x="59" y="-60" type="curve"/>
    </contour>
  </outline>
</glyph>
<glyph name="zero" format="1">
  <advance width="512"/>
  <unicode hex="0030"/>
  <outline>
    <contour>
      <point x="162" y="710"/>
      <point x="209" y="750"/>
      <point x="264" y="775" type="curve" smooth="yes"/>
      <point x="319" y="800"/>
      <point x="381" y="809"/>
      <point x="434" y="785" type="curve" smooth="yes"/>
      <point x="463" y="772"/>
      <point x="482" y="765"/>
      <point x="494" y="750" type="curve" smooth="yes"/>
      <point x="506" y="734"/>
      <point x="512" y="712"/>
      <point x="516" y="671" type="curve"/>
      <point x="539" y="654"/>
      <point x="547" y="611"/>
      <point x="545" y="559" type="curve" smooth="yes"/>
      <point x="543" y="506"/>
      <point x="532" y="443"/>
      <point x="519" y="385" type="curve" smooth="yes"/>
      <point x="506" y="327"/>
      <point x="489" y="272"/>
      <point x="474" y="236" type="curve"/>
      <point x="451" y="171"/>
      <point x="435" y="127"/>
      <point x="416" y="94" type="curve" smooth="yes"/>
      <point x="396" y="61"/>
      <point x="375" y="38"/>
      <point x="346" y="11" type="curve"/>
      <point x="326" y="-14"/>
      <point x="300" y="-25"/>
      <point x="273" y="-26" type="curve"/>
      <point x="272" y="-27"/>
      <point x="271" y="-28"/>
      <point x="270" y="-29" type="curve" smooth="yes"/>
      <point x="269" y="-30"/>
      <point x="268" y="-31"/>
      <point x="267" y="-32" type="curve"/>
      <point x="262" y="-41"/>
      <point x="253" y="-49"/>
      <point x="242" y="-56" type="curve"/>
      <point x="237" y="-61" type="line"/>
      <point x="206" y="-84"/>
      <point x="171" y="-92"/>
      <point x="136" y="-87" type="curve" smooth="yes"/>
      <point x="101" y="-83"/>
      <point x="69" y="-63"/>
      <point x="49" y="-30" type="curve"/>
      <point x="36" y="-1"/>
      <point x="24" y="37"/>
      <point x="17" y="76" type="curve" smooth="yes"/>
      <point x="9" y="115"/>
      <point x="5" y="154"/>
      <point x="9" y="186" type="curve" smooth="yes"/>
      <point x="21" y="291"/>
      <point x="32" y="372"/>
      <point x="52" y="446" type="curve" smooth="yes"/>
      <point x="71" y="520"/>
      <point x="98" y="587"/>
      <point x="142" y="671" type="curve" smooth="yes"/>
    </contour>
    <contour>
      <point x="304" y="507"/>
      <point x="275" y="434"/>
      <point x="255" y="357" type="curve" smooth="yes"/>
      <point x="234" y="280"/>
      <point x="220" y="198"/>
      <point x="227" y="130" type="curve"/>
      <point x="229" y="130" type="line"/>
      <point x="229" y="130"/>
      <point x="229" y="130"/>
      <point x="230" y="131" type="curve"/>
      <point x="291" y="223"/>
      <point x="338" y="316"/>
      <point x="374" y="427" type="curve" smooth="yes"/>
      <point x="383" y="455"/>
      <point x="397" y="498"/>
      <point x="403" y="538" type="curve" smooth="yes"/>
      <point x="409" y="578"/>
      <point x="409" y="615"/>
      <point x="393" y="630" type="curve"/>
      <point x="390" y="627"/>
      <point x="389" y="626"/>
      <point x="389" y="626" type="curve" smooth="yes"/>
      <point x="388" y="626"/>
      <point x="388" y="627"/>
      <point x="387" y="628" type="curve" smooth="yes"/>
      <point x="386" y="629"/>
      <point x="385" y="630"/>
      <point x="384" y="631" type="curve" smooth="yes"/>
      <point x="383" y="632"/>
      <point x="380" y="633"/>
      <point x="376" y="632" type="curve"/>
      <point x="367" y="619"/>
      <point x="358" y="606"/>
      <point x="350" y="593" type="curve" smooth="yes"/>
      <point x="342" y="580"/>
      <point x="335" y="568"/>
      <point x="329" y="558" type="curve"/>
    </contour>
  </outline>
</glyph>
<glyph name="one" format="1">
  <advance width="385"/>
  <unicode hex="0031"/>
  <outline>
    <contour>
      <point x="404" y="733"/>
      <point x="395" y="710"/>
      <point x="380" y="685" type="curve"/>
      <point x="384" y="676"/>
      <point x="389" y="666"/>
      <point x="396" y="655" type="curve"/>
      <point x="403" y="643"/>
      <point x="404" y="631"/>
      <point x="400" y="619" type="curve"/>
      <point x="383" y="584"/>
      <point x="366" y="548"/>
      <point x="351" y="512" type="curve" smooth="yes"/>
      <point x="335" y="475"/>
      <point x="317" y="440"/>
      <point x="298" y="405" type="curve" smooth="yes"/>
      <point x="296" y="401"/>
      <point x="296" y="402"/>
      <point x="299" y="408" type="curve"/>
      <point x="302" y="413"/>
      <point x="305" y="420"/>
      <point x="308" y="427" type="curve" smooth="yes"/>
      <point x="311" y="434"/>
      <point x="313" y="441"/>
      <point x="316" y="447" type="curve"/>
      <point x="318" y="452"/>
      <point x="318" y="453"/>
      <point x="316" y="449" type="curve" smooth="yes"/>
      <point x="271" y="354"/>
      <point x="231" y="256"/>
      <point x="198" y="155" type="curve" smooth="yes"/>
      <point x="187" y="122"/>
      <point x="178" y="88"/>
      <point x="169" y="53" type="curve" smooth="yes"/>
      <point x="160" y="18"/>
      <point x="147" y="-15"/>
      <point x="132" y="-46" type="curve"/>
      <point x="132" y="-49" type="line"/>
      <point x="131" y="-49" type="line"/>
      <point x="119" y="-80"/>
      <point x="77" y="-94"/>
      <point x="40" y="-90" type="curve" smooth="yes"/>
      <point x="3" y="-87"/>
      <point x="-31" y="-67"/>
      <point x="-28" y="-31" type="curve" smooth="yes"/>
      <point x="-26" y="-12"/>
      <point x="-22" y="7"/>
      <point x="-16" y="28" type="curve" smooth="yes"/>
      <point x="-10" y="48"/>
      <point x="-5" y="67"/>
      <point x="-2" y="86" type="curve" smooth="yes"/>
      <point x="23" y="231"/>
      <point x="58" y="371"/>
      <point x="97" y="512" type="curve"/>
      <point x="78" y="515"/>
      <point x="61" y="521"/>
      <point x="44" y="533" type="curve"/>
      <point x="5" y="558"/>
      <point x="2" y="585"/>
      <point x="15" y="609" type="curve" smooth="yes"/>
      <point x="28" y="633"/>
      <point x="59" y="654"/>
      <point x="91" y="666" type="curve"/>
      <point x="92" y="666"/>
      <point x="93" y="666"/>
      <point x="94" y="667" type="curve"/>
      <point x="95" y="667"/>
      <point x="96" y="667"/>
      <point x="97" y="667" type="curve"/>
      <point x="97" y="667"/>
      <point x="97" y="667"/>
      <point x="98" y="668" type="curve"/>
      <point x="101" y="669"/>
      <point x="105" y="671"/>
      <point x="108" y="673" type="curve" smooth="yes"/>
      <point x="111" y="675"/>
      <point x="114" y="677"/>
      <point x="117" y="679" type="curve"/>
      <point x="145" y="703"/>
      <point x="170" y="730"/>
      <point x="193" y="759" type="curve"/>
      <point x="194" y="760"/>
      <point x="194" y="760"/>
      <point x="194" y="761" type="curve" smooth="yes"/>
      <point x="194" y="762"/>
      <point x="195" y="763"/>
      <point x="196" y="764" type="curve"/>
      <point x="199" y="771" type="line"/>
      <point x="223" y="808"/>
      <point x="271" y="828"/>
      <point x="315" y="826" type="curve" smooth="yes"/>
      <point x="359" y="824"/>
      <point x="399" y="800"/>
      <point x="407" y="753" type="curve"/>
    </contour>
  </outline>
</glyph>
<glyph name="two" format="1">
  <advance width="497"/>
  <unicode hex="0032"/>
  <outline>
    <contour>
      <point x="312" y="511"/>
      <point x="277" y="490"/>
      <point x="237" y="479" type="curve" smooth="yes"/>
      <point x="196" y="467"/>
      <point x="150" y="469"/>
      <point x="118" y="483" type="curve" smooth="yes"/>
      <point x="86" y="497"/>
      <point x="69" y="524"/>
      <point x="86" y="568" type="curve"/>
      <point x="121" y="636"/>
      <point x="167" y="699"/>
      <point x="223" y="734" type="curve"/>
      <point x="282" y="765"/>
      <point x="346" y="790"/>
      <point x="407" y="797" type="curve" smooth="yes"/>
      <point x="467" y="804"/>
      <point x="525" y="791"/>
      <point x="569" y="747" type="curve"/>
      <point x="610" y="711"/>
      <point x="617" y="661"/>
      <point x="605" y="608" type="curve" smooth="yes"/>
      <point x="592" y="555"/>
      <point x="559" y="496"/>
      <point x="523" y="443" type="curve" smooth="yes"/>
      <point x="487" y="390"/>
      <point x="446" y="340"/>
      <point x="417" y="304" type="curve" smooth="yes"/>
      <point x="380" y="257"/>
      <point x="356" y="233"/>
      <point x="331" y="210" type="curve" smooth="yes"/>
      <point x="306" y="187"/>
      <point x="280" y="164"/>
      <point x="236" y="123" type="curve"/>
      <point x="249" y="126"/>
      <point x="264" y="128"/>
      <point x="279" y="128" type="curve" smooth="yes"/>
      <point x="310" y="128"/>
      <point x="340" y="121"/>
      <point x="366" y="107" type="curve" smooth="yes"/>
      <point x="379" y="100"/>
      <point x="389" y="90"/>
      <point x="397" y="79" type="curve"/>
      <point x="414" y="68"/>
      <point x="411" y="48"/>
      <point x="395" y="25" type="curve" smooth="yes"/>
      <point x="379" y="2"/>
      <point x="352" y="-22"/>
      <point x="327" y="-42" type="curve"/>
      <point x="297" y="-49"/>
      <point x="269" y="-57"/>
      <point x="244" y="-64" type="curve" smooth="yes"/>
      <point x="192" y="-79"/>
      <point x="145" y="-86"/>
      <point x="97" y="-80" type="curve" smooth="yes"/>
      <point x="72" y="-77"/>
      <point x="46" y="-69"/>
      <point x="18" y="-55" type="curve"/>
      <point x="-2" y="-46"/>
      <point x="-16" y="-24"/>
      <point x="-21" y="0" type="curve" smooth="yes"/>
      <point x="-26" y="24"/>
      <point x="-25" y="52"/>
      <point x="-14" y="76" type="curve"/>
      <point x="3" y="105"/>
      <point x="16" y="123"/>
      <point x="30" y="140" type="curve" smooth="yes"/>
      <point x="37" y="149"/>
      <point x="44" y="158"/>
      <point x="53" y="167" type="curve"/>
      <point x="61" y="176"/>
      <point x="71" y="187"/>
      <point x="83" y="201" type="curve" smooth="yes"/>
      <point x="105" y="227"/>
      <point x="127" y="252"/>
      <point x="150" y="275" type="curve" smooth="yes"/>
      <point x="194" y="322"/>
      <point x="239" y="367"/>
      <point x="281" y="416" type="curve" smooth="yes"/>
      <point x="323" y="464"/>
      <point x="362" y="518"/>
      <point x="379" y="558" type="curve" smooth="yes"/>
      <point x="388" y="578"/>
      <point x="391" y="600"/>
      <point x="390" y="625" type="curve"/>
      <point x="382" y="616"/>
      <point x="375" y="609"/>
      <point x="368" y="604" type="curve"/>
      <point x="355" y="592"/>
      <point x="344" y="581"/>
      <point x="334" y="568" type="curve"/>
      <point x="329" y="561"/>
      <point x="324" y="553"/>
      <point x="320" y="542" type="curve"/>
    </contour>
  </outline>
</glyph>
<glyph name="three" format="1">
  <advance width="597"/>
  <unicode hex="0033"/>
  <outline>
    <contour>
      <point x="163" y="300"/>
      <point x="153" y="318"/>
      <point x="157" y="342" type="curve"/>
      <point x="160" y="365"/>
      <point x="176" y="393"/>
      <point x="203" y="417" type="curve"/>
      <point x="217" y="432"/>
      <point x="228" y="445"/>
      <point x="237" y="454" type="curve" smooth="yes"/>
      <point x="254" y="472"/>
      <point x="270" y="489"/>
      <point x="291" y="514" type="curve" smooth="yes"/>
      <point x="311" y="538"/>
      <point x="337" y="576"/>
      <point x="352" y="597" type="curve" smooth="yes"/>
      <point x="359" y="607"/>
      <point x="365" y="618"/>
      <point x="368" y="631" type="curve"/>
      <point x="338" y="623"/>
      <point x="314" y="615"/>
      <point x="296" y="608" type="curve" smooth="yes"/>
      <point x="260" y="593"/>
      <point x="239" y="585"/>
      <point x="224" y="589" type="curve"/>
      <point x="208" y="592"/>
      <point x="193" y="608"/>
      <point x="186" y="629" type="curve"/>
      <point x="183" y="640"/>
      <point x="181" y="651"/>
      <point x="181" y="662" type="curve" smooth="yes"/>
      <point x="181" y="685"/>
      <point x="191" y="705"/>
      <point x="218" y="712" type="curve" smooth="yes"/>
      <point x="231" y="715"/>
      <point x="237" y="725"/>
      <point x="245" y="737" type="curve" smooth="yes"/>
      <point x="252" y="748"/>
      <point x="260" y="759"/>
      <point x="280" y="763" type="curve"/>
      <point x="313" y="775"/>
      <point x="354" y="780"/>
      <point x="396" y="778" type="curve" smooth="yes"/>
      <point x="438" y="776"/>
      <point x="479" y="765"/>
      <point x="518" y="748" type="curve"/>
      <point x="550" y="737"/>
      <point x="572" y="705"/>
      <point x="581" y="664" type="curve" smooth="yes"/>
      <point x="590" y="623"/>
      <point x="586" y="570"/>
      <point x="562" y="521" type="curve"/>
      <point x="539" y="490"/>
      <point x="529" y="474"/>
      <point x="515" y="461" type="curve" smooth="yes"/>
      <point x="501" y="448"/>
      <point x="485" y="437"/>
      <point x="450" y="417" type="curve"/>
      <point x="521" y="409"/>
      <point x="559" y="359"/>
      <point x="568" y="295" type="curve" smooth="yes"/>
      <point x="577" y="230"/>
      <point x="557" y="150"/>
      <point x="516" y="79" type="curve" smooth="yes"/>
      <point x="484" y="26"/>
      <point x="429" y="-8"/>
      <point x="366" y="-30" type="curve" smooth="yes"/>
      <point x="302" y="-52"/>
      <point x="232" y="-64"/>
      <point x="172" y="-69" type="curve" smooth="yes"/>
      <point x="79" y="-76"/>
      <point x="11" y="-46"/>
      <point x="0" y="2" type="curve"/>
      <point x="-12" y="34"/>
      <point x="1" y="71"/>
      <point x="23" y="96" type="curve" smooth="yes"/>
      <point x="45" y="121"/>
      <point x="76" y="136"/>
      <point x="104" y="121" type="curve"/>
      <point x="139" y="117"/>
      <point x="160" y="114"/>
      <point x="184" y="117" type="curve" smooth="yes"/>
      <point x="208" y="120"/>
      <point x="233" y="129"/>
      <point x="277" y="150" type="curve" smooth="yes"/>
      <point x="294" y="158"/>
      <point x="316" y="182"/>
      <point x="333" y="207" type="curve" smooth="yes"/>
      <point x="350" y="232"/>
      <point x="363" y="260"/>
      <point x="364" y="280" type="curve" smooth="yes"/>
      <point x="365" y="300"/>
      <point x="354" y="310"/>
      <point x="325" y="302" type="curve"/>
      <point x="313" y="298"/>
      <point x="296" y="292"/>
      <point x="273" y="288" type="curve" smooth="yes"/>
      <point x="261" y="286"/>
      <point x="248" y="285"/>
      <point x="235" y="285" type="curve" smooth="yes"/>
      <point x="221" y="285"/>
      <point x="206" y="287"/>
      <point x="190" y="292" type="curve" smooth="yes"/>
    </contour>
  </outline>
</glyph>
<glyph name="four" format="1">
  <advance width="642"/>
  <unicode hex="0034"/>
  <outline>
    <contour>
      <point x="388" y="-95"/>
      <point x="353" y="-125"/>
      <point x="314" y="-130" type="curve" smooth="yes"/>
      <point x="275" y="-135"/>
      <point x="234" y="-115"/>
      <point x="209" y="-70" type="curve"/>
      <point x="209" y="-69"/>
      <point x="209" y="-66"/>
      <point x="210" y="-61" type="curve" smooth="yes"/>
      <point x="211" y="-56"/>
      <point x="212" y="-51"/>
      <point x="213" y="-45" type="curve" smooth="yes"/>
      <point x="214" y="-40"/>
      <point x="214" y="-35"/>
      <point x="215" y="-30" type="curve"/>
      <point x="216" y="-26"/>
      <point x="216" y="-23"/>
      <point x="216" y="-22" type="curve"/>
      <point x="211" y="-18"/>
      <point x="206" y="-15"/>
      <point x="200" y="-14" type="curve"/>
      <point x="187" y="-11"/>
      <point x="175" y="-9"/>
      <point x="167" y="-3" type="curve" smooth="yes"/>
      <point x="163" y="0"/>
      <point x="161" y="5"/>
      <point x="161" y="12" type="curve"/>
      <point x="168" y="39"/>
      <point x="175" y="66"/>
      <point x="180" y="92" type="curve" smooth="yes"/>
      <point x="185" y="117"/>
      <point x="195" y="141"/>
      <point x="210" y="163" type="curve"/>
      <point x="222" y="196" type="line"/>
      <point x="170" y="192"/>
      <point x="138" y="188"/>
      <point x="112" y="192" type="curve"/>
      <point x="86" y="195"/>
      <point x="68" y="204"/>
      <point x="48" y="227" type="curve" smooth="yes"/>
      <point x="21" y="259"/>
      <point x="8" y="282"/>
      <point x="12" y="310" type="curve"/>
      <point x="15" y="338"/>
      <point x="33" y="370"/>
      <point x="72" y="421" type="curve" smooth="yes"/>
      <point x="129" y="494"/>
      <point x="174" y="551"/>
      <point x="225" y="603" type="curve" smooth="yes"/>
      <point x="276" y="655"/>
      <point x="331" y="704"/>
      <point x="407" y="763" type="curve" smooth="yes"/>
      <point x="430" y="782"/>
      <point x="467" y="791"/>
      <point x="496" y="791" type="curve"/>
      <point x="520" y="790"/>
      <point x="542" y="787"/>
      <point x="561" y="779" type="curve"/>
      <point x="580" y="770"/>
      <point x="594" y="754"/>
      <point x="601" y="729" type="curve"/>
      <point x="601" y="721" type="line"/>
      <point x="621" y="705"/>
      <point x="627" y="684"/>
      <point x="619" y="660" type="curve" smooth="yes"/>
      <point x="610" y="635"/>
      <point x="594" y="610"/>
      <point x="579" y="587" type="curve" smooth="yes"/>
      <point x="572" y="576"/>
      <point x="567" y="565"/>
      <point x="564" y="556" type="curve"/>
      <point x="543" y="476" type="line" smooth="yes"/>
      <point x="540" y="463"/>
      <point x="537" y="452"/>
      <point x="535" y="442" type="curve"/>
      <point x="530" y="421"/>
      <point x="525" y="400"/>
      <point x="520" y="380" type="curve" smooth="yes"/>
      <point x="517" y="369"/>
      <point x="515" y="358"/>
      <point x="512" y="345" type="curve"/>
      <point x="519" y="345"/>
      <point x="524" y="345"/>
      <point x="526" y="346" type="curve"/>
      <point x="528" y="346"/>
      <point x="529" y="346"/>
      <point x="530" y="346" type="curve" smooth="yes"/>
      <point x="531" y="346"/>
      <point x="532" y="346"/>
      <point x="534" y="346" type="curve" smooth="yes"/>
      <point x="536" y="346"/>
      <point x="541" y="346"/>
      <point x="548" y="346" type="curve"/>
      <point x="553" y="348"/>
      <point x="558" y="350"/>
      <point x="563" y="353" type="curve"/>
      <point x="574" y="357"/>
      <point x="585" y="359"/>
      <point x="594" y="358" type="curve"/>
      <point x="599" y="357"/>
      <point x="603" y="355"/>
      <point x="606" y="351" type="curve"/>
      <point x="619" y="332"/>
      <point x="619" y="310"/>
      <point x="614" y="293" type="curve" smooth="yes"/>
      <point x="609" y="276"/>
      <point x="596" y="263"/>
      <point x="584" y="263" type="curve"/>
      <point x="581" y="255"/>
      <point x="551" y="251"/>
      <point x="530" y="251" type="curve"/>
      <point x="519" y="250"/>
      <point x="513" y="250"/>
      <point x="510" y="250" type="curve" smooth="yes"/>
      <point x="507" y="250"/>
      <point x="514" y="250"/>
      <point x="531" y="250" type="curve" smooth="yes"/>
      <point x="535" y="250"/>
      <point x="537" y="250"/>
      <point x="533" y="248" type="curve" smooth="yes"/>
      <point x="531" y="247"/>
      <point x="527" y="245"/>
      <point x="522" y="244" type="curve" smooth="yes"/>
      <point x="516" y="243"/>
      <point x="507" y="241"/>
      <point x="496" y="240" type="curve"/>
      <point x="493" y="239"/>
      <point x="490" y="239"/>
      <point x="485" y="239" type="curve"/>
      <point x="472" y="190"/>
      <point x="454" y="122"/>
      <point x="439" y="74" type="curve"/>
      <point x="435" y="59"/>
      <point x="431" y="45"/>
      <point x="428" y="31" type="curve"/>
      <point x="424" y="16"/>
      <point x="419" y="2"/>
      <point x="412" y="-11" type="curve"/>
      <point x="402" y="-32" type="line"/>
      <point x="402" y="-35"/>
      <point x="402" y="-38"/>
      <point x="403" y="-40" type="curve"/>
    </contour>
    <contour>
      <point x="276" y="435"/>
      <point x="244" y="405"/>
      <point x="221" y="382" type="curve" smooth="yes"/>
      <point x="198" y="359"/>
      <point x="181" y="342"/>
      <point x="171" y="329" type="curve" smooth="yes"/>
      <point x="161" y="316"/>
      <point x="157" y="308"/>
      <point x="158" y="305" type="curve"/>
      <point x="159" y="301"/>
      <point x="164" y="300"/>
      <point x="173" y="301" type="curve" smooth="yes"/>
      <point x="182" y="302"/>
      <point x="193" y="305"/>
      <point x="208" y="310" type="curve" smooth="yes"/>
      <point x="223" y="315"/>
      <point x="239" y="319"/>
      <point x="257" y="324" type="curve"/>
      <point x="261" y="337"/>
      <point x="274" y="368"/>
      <point x="287" y="398" type="curve" smooth="yes"/>
      <point x="299" y="428"/>
      <point x="312" y="459"/>
      <point x="315" y="472" type="curve"/>
    </contour>
    <contour>
      <point x="396" y="-47"/>
      <point x="398" y="-42"/>
      <point x="399" y="-38" type="curve"/>
      <point x="398" y="-41"/>
      <point x="396" y="-45"/>
      <point x="395" y="-50" type="curve" smooth="yes"/>
      <point x="394" y="-55"/>
      <point x="394" y="-57"/>
      <point x="395" y="-54" type="curve"/>
    </contour>
  </outline>
</glyph>
<glyph name="five" format="1">
  <advance width="603"/>
  <unicode hex="0035"/>
  <outline>
    <contour>
      <point x="293" y="747"/>
      <point x="312" y="748"/>
      <point x="335" y="751" type="curve"/>
      <point x="380" y="755"/>
      <point x="431" y="760"/>
      <point x="479" y="764" type="curve" smooth="yes"/>
      <point x="527" y="768"/>
      <point x="567" y="768"/>
      <point x="591" y="761" type="curve"/>
      <point x="603" y="758"/>
      <point x="609" y="752"/>
      <point x="609" y="744" type="curve"/>
      <point x="621" y="707"/>
      <point x="617" y="676"/>
      <point x="602" y="653" type="curve" smooth="yes"/>
      <point x="587" y="630"/>
      <point x="564" y="614"/>
      <point x="536" y="609" type="curve"/>
      <point x="489" y="598"/>
      <point x="452" y="591"/>
      <point x="405" y="596" type="curve" smooth="yes"/>
      <point x="393" y="597"/>
      <point x="381" y="598"/>
      <point x="369" y="598" type="curve"/>
      <point x="365" y="591" type="line" smooth="yes"/>
      <point x="356" y="576"/>
      <point x="343" y="557"/>
      <point x="328" y="534" type="curve" smooth="yes"/>
      <point x="312" y="511"/>
      <point x="296" y="486"/>
      <point x="279" y="461" type="curve"/>
      <point x="260" y="418" type="line"/>
      <point x="272" y="435"/>
      <point x="311" y="448"/>
      <point x="355" y="453" type="curve" smooth="yes"/>
      <point x="398" y="457"/>
      <point x="446" y="453"/>
      <point x="475" y="441" type="curve" smooth="yes"/>
      <point x="546" y="409"/>
      <point x="573" y="361"/>
      <point x="578" y="309" type="curve" smooth="yes"/>
      <point x="582" y="257"/>
      <point x="565" y="202"/>
      <point x="549" y="157" type="curve" smooth="yes"/>
      <point x="530" y="106"/>
      <point x="499" y="63"/>
      <point x="462" y="27" type="curve" smooth="yes"/>
      <point x="425" y="-9"/>
      <point x="382" y="-36"/>
      <point x="342" y="-53" type="curve"/>
      <point x="327" y="-61"/>
      <point x="298" y="-67"/>
      <point x="262" y="-70" type="curve" smooth="yes"/>
      <point x="226" y="-74"/>
      <point x="185" y="-75"/>
      <point x="149" y="-73" type="curve" smooth="yes"/>
      <point x="112" y="-71"/>
      <point x="79" y="-67"/>
      <point x="60" y="-59" type="curve"/>
      <point x="21" y="-48"/>
      <point x="-3" y="-21"/>
      <point x="-14" y="8" type="curve" smooth="yes"/>
      <point x="-25" y="37"/>
      <point x="-21" y="70"/>
      <point x="0" y="91" type="curve" smooth="yes"/>
      <point x="20" y="112"/>
      <point x="57" y="124"/>
      <point x="112" y="112" type="curve" smooth="yes"/>
      <point x="155" y="103"/>
      <point x="189" y="99"/>
      <point x="219" y="109" type="curve" smooth="yes"/>
      <point x="249" y="119"/>
      <point x="274" y="142"/>
      <point x="301" y="189" type="curve"/>
      <point x="305" y="197"/>
      <point x="313" y="214"/>
      <point x="316" y="231" type="curve" smooth="yes"/>
      <point x="319" y="247"/>
      <point x="318" y="263"/>
      <point x="303" y="270" type="curve"/>
      <point x="288" y="275"/>
      <point x="251" y="268"/>
      <point x="208" y="261" type="curve" smooth="yes"/>
      <point x="165" y="254"/>
      <point x="118" y="247"/>
      <point x="86" y="252" type="curve" smooth="yes"/>
      <point x="54" y="257"/>
      <point x="37" y="275"/>
      <point x="53" y="318" type="curve"/>
      <point x="52" y="320"/>
      <point x="53" y="320"/>
      <point x="54" y="317" type="curve" smooth="yes"/>
      <point x="55" y="314"/>
      <point x="56" y="314"/>
      <point x="56" y="316" type="curve"/>
      <point x="38" y="327"/>
      <point x="29" y="346"/>
      <point x="29" y="372" type="curve"/>
      <point x="50" y="433"/>
      <point x="84" y="493"/>
      <point x="115" y="549" type="curve" smooth="yes"/>
      <point x="122" y="562"/>
      <point x="128" y="574"/>
      <point x="135" y="586" type="curve" smooth="yes"/>
      <point x="141" y="597"/>
      <point x="147" y="609"/>
      <point x="153" y="622" type="curve"/>
      <point x="150" y="621"/>
      <point x="148" y="621"/>
      <point x="149" y="624" type="curve"/>
      <point x="149" y="628"/>
      <point x="155" y="637"/>
      <point x="161" y="647" type="curve" smooth="yes"/>
      <point x="164" y="652"/>
      <point x="166" y="656"/>
      <point x="168" y="660" type="curve"/>
      <point x="159" y="692"/>
      <point x="174" y="714"/>
      <point x="198" y="727" type="curve" smooth="yes"/>
      <point x="221" y="740"/>
      <point x="253" y="746"/>
      <point x="277" y="746" type="curve"/>
    </contour>
    <contour>
      <point x="165" y="651"/>
      <point x="164" y="648"/>
      <point x="163" y="645" type="curve"/>
      <point x="162" y="641"/>
      <point x="162" y="637"/>
      <point x="161" y="634" type="curve"/>
      <point x="164" y="639"/>
      <point x="167" y="644"/>
      <point x="170" y="648" type="curve"/>
      <point x="172" y="652"/>
      <point x="171" y="653"/>
      <point x="168" y="652" type="curve" smooth="yes"/>
    </contour>
    <contour>
      <point x="527" y="741"/>
      <point x="532" y="749"/>
      <point x="496" y="744" type="curve"/>
    </contour>
    <contour>
      <point x="238" y="288" type="line"/>
      <point x="235" y="289"/>
      <point x="236" y="289"/>
      <point x="241" y="288" type="curve"/>
      <point x="245" y="287"/>
      <point x="249" y="287"/>
      <point x="253" y="286" type="curve"/>
    </contour>
  </outline>
</glyph>
<glyph name="six" format="1">
  <advance width="582"/>
  <unicode hex="0036"/>
  <outline>
    <contour>
      <point x="457" y="761"/>
      <point x="487" y="759"/>
      <point x="511" y="752" type="curve"/>
      <point x="534" y="744"/>
      <point x="552" y="734"/>
      <point x="545" y="718" type="curve" smooth="yes"/>
      <point x="538" y="703"/>
      <point x="547" y="695"/>
      <point x="558" y="687" type="curve"/>
      <point x="563" y="682"/>
      <point x="569" y="678"/>
      <point x="574" y="675" type="curve"/>
      <point x="584" y="667"/>
      <point x="587" y="658"/>
      <point x="575" y="644" type="curve" smooth="yes"/>
      <point x="569" y="637"/>
      <point x="558" y="628"/>
      <point x="541" y="619" type="curve"/>
      <point x="528" y="615"/>
      <point x="516" y="611"/>
      <point x="503" y="608" type="curve" smooth="yes"/>
      <point x="490" y="605"/>
      <point x="477" y="600"/>
      <point x="465" y="594" type="curve" smooth="yes"/>
      <point x="420" y="571"/>
      <point x="377" y="532"/>
      <point x="340" y="486" type="curve" smooth="yes"/>
      <point x="303" y="440"/>
      <point x="270" y="386"/>
      <point x="246" y="341" type="curve"/>
      <point x="282" y="374"/>
      <point x="337" y="386"/>
      <point x="380" y="378" type="curve" smooth="yes"/>
      <point x="425" y="370"/>
      <point x="463" y="343"/>
      <point x="488" y="307" type="curve" smooth="yes"/>
      <point x="513" y="271"/>
      <point x="528" y="228"/>
      <point x="528" y="188" type="curve" smooth="yes"/>
      <point x="528" y="155"/>
      <point x="519" y="110"/>
      <point x="501" y="68" type="curve" smooth="yes"/>
      <point x="483" y="26"/>
      <point x="457" y="-14"/>
      <point x="428" y="-35" type="curve" smooth="yes"/>
      <point x="368" y="-80"/>
      <point x="315" y="-106"/>
      <point x="239" y="-103" type="curve" smooth="yes"/>
      <point x="44" y="-92"/>
      <point x="-24" y="26"/>
      <point x="15" y="217" type="curve"/>
      <point x="39" y="316"/>
      <point x="64" y="400"/>
      <point x="104" y="476" type="curve" smooth="yes"/>
      <point x="143" y="551"/>
      <point x="196" y="616"/>
      <point x="276" y="679" type="curve"/>
      <point x="279" y="681"/>
      <point x="285" y="686"/>
      <point x="295" y="694" type="curve" smooth="yes"/>
      <point x="314" y="709"/>
      <point x="345" y="727"/>
      <point x="382" y="743" type="curve" smooth="yes"/>
      <point x="401" y="751"/>
      <point x="420" y="756"/>
      <point x="441" y="758" type="curve"/>
    </contour>
    <contour>
      <point x="291" y="221"/>
      <point x="265" y="197"/>
      <point x="246" y="169" type="curve" smooth="yes"/>
      <point x="227" y="140"/>
      <point x="216" y="107"/>
      <point x="213" y="76" type="curve"/>
      <point x="216" y="71"/>
      <point x="218" y="68"/>
      <point x="221" y="67" type="curve"/>
      <point x="244" y="51"/>
      <point x="266" y="64"/>
      <point x="283" y="89" type="curve" smooth="yes"/>
      <point x="300" y="113"/>
      <point x="315" y="149"/>
      <point x="322" y="180" type="curve" smooth="yes"/>
      <point x="325" y="195"/>
      <point x="327" y="208"/>
      <point x="327" y="219" type="curve" smooth="yes"/>
      <point x="327" y="230"/>
      <point x="325" y="235"/>
      <point x="320" y="236" type="curve"/>
    </contour>
  </outline>
</glyph>
<glyph name="seven" format="1">
  <advance width="555"/>
  <unicode hex="0037"/>
  <outline>
    <contour>
      <point x="341" y="559" type="line"/>
      <point x="306" y="561"/>
      <point x="271" y="562"/>
      <point x="236" y="562" type="curve" smooth="yes"/>
      <point x="201" y="562"/>
      <point x="166" y="563"/>
      <point x="130" y="564" type="curve"/>
      <point x="127" y="565"/>
      <point x="123" y="565"/>
      <point x="120" y="566" type="curve"/>
      <point x="117" y="566"/>
      <point x="113" y="567"/>
      <point x="110" y="568" type="curve"/>
      <point x="101" y="570" type="line" smooth="yes"/>
      <point x="70" y="577"/>
      <point x="63" y="611"/>
      <point x="76" y="644" type="curve" smooth="yes"/>
      <point x="89" y="676"/>
      <point x="122" y="708"/>
      <point x="173" y="712" type="curve" smooth="yes"/>
      <point x="237" y="716" type="line"/>
      <point x="241" y="716"/>
      <point x="246" y="716"/>
      <point x="252" y="717" type="curve"/>
      <point x="264" y="718"/>
      <point x="277" y="720"/>
      <point x="285" y="721" type="curve"/>
      <point x="289" y="721"/>
      <point x="291" y="721"/>
      <point x="290" y="720" type="curve"/>
      <point x="297" y="721"/>
      <point x="303" y="723"/>
      <point x="308" y="724" type="curve" smooth="yes"/>
      <point x="317" y="726"/>
      <point x="343" y="731"/>
      <point x="364" y="739" type="curve"/>
      <point x="375" y="742"/>
      <point x="385" y="746"/>
      <point x="395" y="750" type="curve"/>
      <point x="415" y="757"/>
      <point x="435" y="764"/>
      <point x="460" y="771" type="curve"/>
      <point x="488" y="775"/>
      <point x="519" y="777"/>
      <point x="544" y="770" type="curve"/>
      <point x="569" y="762"/>
      <point x="590" y="745"/>
      <point x="598" y="713" type="curve"/>
      <point x="592" y="689" type="line"/>
      <point x="619" y="680"/>
      <point x="642" y="665"/>
      <point x="651" y="645" type="curve" smooth="yes"/>
      <point x="660" y="625"/>
      <point x="656" y="600"/>
      <point x="631" y="569" type="curve"/>
      <point x="562" y="493"/>
      <point x="499" y="401"/>
      <point x="436" y="304" type="curve" smooth="yes"/>
      <point x="405" y="255"/>
      <point x="373" y="206"/>
      <point x="341" y="155" type="curve" smooth="yes"/>
      <point x="309" y="104"/>
      <point x="276" y="55"/>
      <point x="241" y="6" type="curve" smooth="yes"/>
      <point x="228" y="-13"/>
      <point x="214" y="-30"/>
      <point x="199" y="-47" type="curve"/>
      <point x="198" y="-47"/>
      <point x="197" y="-48"/>
      <point x="196" y="-49" type="curve"/>
      <point x="196" y="-50"/>
      <point x="195" y="-52"/>
      <point x="193" y="-54" type="curve" smooth="yes"/>
      <point x="190" y="-57"/>
      <point x="188" y="-60"/>
      <point x="186" y="-63" type="curve" smooth="yes"/>
      <point x="184" y="-66"/>
      <point x="183" y="-67"/>
      <point x="183" y="-66" type="curve"/>
      <point x="151" y="-97"/>
      <point x="113" y="-98"/>
      <point x="66" y="-91" type="curve"/>
      <point x="49" y="-87"/>
      <point x="30" y="-78"/>
      <point x="18" y="-63" type="curve" smooth="yes"/>
      <point x="-2" y="-39"/>
      <point x="1" y="-18"/>
      <point x="12" y="0" type="curve"/>
      <point x="17" y="9"/>
      <point x="24" y="18"/>
      <point x="32" y="27" type="curve" smooth="yes"/>
      <point x="48" y="45"/>
      <point x="60" y="67"/>
      <point x="75" y="92" type="curve" smooth="yes"/>
      <point x="82" y="104"/>
      <point x="90" y="117"/>
      <point x="97" y="130" type="curve" smooth="yes"/>
      <point x="115" y="162"/>
      <point x="133" y="196"/>
      <point x="150" y="231" type="curve" smooth="yes"/>
      <point x="184" y="302"/>
      <point x="218" y="372"/>
      <point x="257" y="439" type="curve" smooth="yes"/>
      <point x="276" y="472"/>
      <point x="298" y="504"/>
      <point x="321" y="533" type="curve" smooth="yes"/>
    </contour>
  </outline>
</glyph>
<glyph name="eight" format="1">
  <advance width="630"/>
  <unicode hex="0038"/>
  <outline>
    <contour>
      <point x="475" y="793"/>
      <point x="499" y="794"/>
      <point x="523" y="787" type="curve" smooth="yes"/>
      <point x="546" y="780"/>
      <point x="568" y="765"/>
      <point x="583" y="730" type="curve"/>
      <point x="624" y="738"/>
      <point x="655" y="717"/>
      <point x="673" y="682" type="curve" smooth="yes"/>
      <point x="691" y="647"/>
      <point x="696" y="599"/>
      <point x="684" y="555" type="curve" smooth="yes"/>
      <point x="672" y="506"/>
      <point x="649" y="463"/>
      <point x="618" y="427" type="curve" smooth="yes"/>
      <point x="587" y="391"/>
      <point x="549" y="360"/>
      <point x="508" y="332" type="curve"/>
      <point x="535" y="313"/>
      <point x="554" y="283"/>
      <point x="567" y="250" type="curve" smooth="yes"/>
      <point x="579" y="217"/>
      <point x="584" y="181"/>
      <point x="581" y="149" type="curve" smooth="yes"/>
      <point x="574" y="69"/>
      <point x="545" y="17"/>
      <point x="509" y="-19" type="curve" smooth="yes"/>
      <point x="472" y="-56"/>
      <point x="427" y="-78"/>
      <point x="387" y="-98" type="curve" smooth="yes"/>
      <point x="310" y="-134"/>
      <point x="216" y="-150"/>
      <point x="137" y="-134" type="curve" smooth="yes"/>
      <point x="58" y="-118"/>
      <point x="-5" y="-71"/>
      <point x="-20" y="20" type="curve"/>
      <point x="-28" y="91"/>
      <point x="-3" y="153"/>
      <point x="36" y="205" type="curve" smooth="yes"/>
      <point x="75" y="257"/>
      <point x="126" y="297"/>
      <point x="167" y="324" type="curve"/>
      <point x="231" y="361" type="line"/>
      <point x="203" y="394"/>
      <point x="179" y="430"/>
      <point x="165" y="468" type="curve" smooth="yes"/>
      <point x="151" y="506"/>
      <point x="148" y="546"/>
      <point x="164" y="593" type="curve" smooth="yes"/>
      <point x="184" y="650"/>
      <point x="226" y="702"/>
      <point x="279" y="738" type="curve" smooth="yes"/>
      <point x="331" y="774"/>
      <point x="395" y="796"/>
      <point x="458" y="793" type="curve"/>
    </contour>
    <contour>
      <point x="355" y="134"/>
      <point x="357" y="154"/>
      <point x="357" y="175" type="curve" smooth="yes"/>
      <point x="357" y="196"/>
      <point x="350" y="215"/>
      <point x="337" y="234" type="curve"/>
      <point x="313" y="225" type="line"/>
      <point x="270" y="202"/>
      <point x="231" y="180"/>
      <point x="196" y="157" type="curve" smooth="yes"/>
      <point x="156" y="132"/>
      <point x="158" y="110"/>
      <point x="179" y="95" type="curve" smooth="yes"/>
      <point x="200" y="79"/>
      <point x="241" y="72"/>
      <point x="278" y="74" type="curve" smooth="yes"/>
      <point x="314" y="76"/>
      <point x="346" y="88"/>
      <point x="351" y="113" type="curve" smooth="yes"/>
    </contour>
    <contour>
      <point x="439" y="576" type="line"/>
      <point x="432" y="573"/>
      <point x="426" y="568"/>
      <point x="420" y="563" type="curve"/>
      <point x="407" y="551"/>
      <point x="394" y="540"/>
      <point x="382" y="532" type="curve"/>
      <point x="376" y="527"/>
      <point x="370" y="525"/>
      <point x="365" y="524" type="curve"/>
      <point x="352" y="497"/>
      <point x="364" y="470"/>
      <point x="383" y="442" type="curve"/>
      <point x="386" y="437" type="line"/>
      <point x="393" y="444"/>
      <point x="400" y="450"/>
      <point x="407" y="455" type="curve" smooth="yes"/>
      <point x="422" y="466"/>
      <point x="439" y="481"/>
      <point x="457" y="502" type="curve" smooth="yes"/>
      <point x="466" y="512"/>
      <point x="475" y="525"/>
      <point x="486" y="542" type="curve"/>
      <point x="490" y="547"/>
      <point x="486" y="557"/>
      <point x="482" y="565" type="curve" smooth="yes"/>
      <point x="480" y="569"/>
      <point x="478" y="573"/>
      <point x="476" y="577" type="curve"/>
      <point x="473" y="581"/>
      <point x="472" y="585"/>
      <point x="471" y="588" type="curve"/>
      <point x="464" y="593" type="line"/>
    </contour>
  </outline>
</glyph>
<glyph name="nine" format="1">
  <advance width="494"/>
  <unicode hex="0039"/>
  <outline>
    <contour>
      <point x="204" y="-83"/>
      <point x="199" y="-86"/>
      <point x="195" y="-89" type="curve"/>
      <point x="186" y="-95"/>
      <point x="179" y="-99"/>
      <point x="169" y="-102" type="curve"/>
      <point x="164" y="-103"/>
      <point x="157" y="-104"/>
      <point x="149" y="-105" type="curve" smooth="yes"/>
      <point x="116" y="-109"/>
      <point x="76" y="-100"/>
      <point x="50" y="-79" type="curve" smooth="yes"/>
      <point x="24" y="-59"/>
      <point x="13" y="-26"/>
      <point x="40" y="19" type="curve"/>
      <point x="60" y="36"/>
      <point x="80" y="53"/>
      <point x="99" y="69" type="curve" smooth="yes"/>
      <point x="138" y="100"/>
      <point x="176" y="132"/>
      <point x="212" y="169" type="curve" smooth="yes"/>
      <point x="229" y="187"/>
      <point x="246" y="207"/>
      <point x="263" y="230" type="curve"/>
      <point x="190" y="211"/>
      <point x="133" y="220"/>
      <point x="86" y="254" type="curve" smooth="yes"/>
      <point x="39" y="288"/>
      <point x="13" y="339"/>
      <point x="10" y="403" type="curve" smooth="yes"/>
      <point x="7" y="466"/>
      <point x="38" y="544"/>
      <point x="86" y="613" type="curve" smooth="yes"/>
      <point x="134" y="682"/>
      <point x="198" y="734"/>
      <point x="271" y="761" type="curve" smooth="yes"/>
      <point x="308" y="774"/>
      <point x="346" y="779"/>
      <point x="385" y="775" type="curve" smooth="yes"/>
      <point x="418" y="772"/>
      <point x="458" y="768"/>
      <point x="494" y="754" type="curve" smooth="yes"/>
      <point x="529" y="740"/>
      <point x="559" y="716"/>
      <point x="571" y="676" type="curve" smooth="yes"/>
      <point x="596" y="600"/>
      <point x="583" y="510"/>
      <point x="552" y="433" type="curve" smooth="yes"/>
      <point x="509" y="328"/>
      <point x="463" y="239"/>
      <point x="407" y="157" type="curve" smooth="yes"/>
      <point x="351" y="75"/>
      <point x="287" y="-2"/>
      <point x="211" y="-79" type="curve"/>
    </contour>
    <contour>
      <point x="255" y="412"/>
      <point x="255" y="406"/>
      <point x="255" y="401" type="curve" smooth="yes"/>
      <point x="255" y="391"/>
      <point x="250" y="385"/>
      <point x="238" y="382" type="curve"/>
      <point x="232" y="381"/>
      <point x="224" y="380"/>
      <point x="213" y="379" type="curve"/>
      <point x="208" y="388"/>
      <point x="216" y="390"/>
      <point x="227" y="390" type="curve" smooth="yes"/>
      <point x="232" y="390"/>
      <point x="238" y="390"/>
      <point x="245" y="389" type="curve" smooth="yes"/>
      <point x="251" y="388"/>
      <point x="256" y="387"/>
      <point x="260" y="387" type="curve"/>
      <point x="279" y="386"/>
      <point x="312" y="397"/>
      <point x="340" y="419" type="curve" smooth="yes"/>
      <point x="368" y="441"/>
      <point x="388" y="473"/>
      <point x="383" y="517" type="curve" smooth="yes"/>
      <point x="382" y="525"/>
      <point x="380" y="535"/>
      <point x="379" y="548" type="curve"/>
      <point x="375" y="573"/>
      <point x="368" y="595"/>
      <point x="353" y="607" type="curve" smooth="yes"/>
      <point x="338" y="619"/>
      <point x="312" y="606"/>
      <point x="292" y="590" type="curve" smooth="yes"/>
      <point x="271" y="574"/>
      <point x="254" y="544"/>
      <point x="250" y="524" type="curve"/>
      <point x="245" y="503"/>
      <point x="246" y="483"/>
      <point x="250" y="460" type="curve"/>
      <point x="251" y="448"/>
      <point x="253" y="434"/>
      <point x="254" y="419" type="curve"/>
    </contour>
  </outline>
</glyph>
<glyph name="colon" format="1">
  <advance width="339"/>
  <unicode hex="003A"/>
  <outline>
    <contour>
      <point x="364" y="437" type="line"/>
      <point x="347" y="409"/>
      <point x="310" y="390"/>
      <point x="270" y="383" type="curve" smooth="yes"/>
      <point x="229" y="375"/>
      <point x="185" y="378"/>
      <point x="155" y="394" type="curve" smooth="yes"/>
      <point x="125" y="409"/>
      <point x="107" y="436"/>
      <point x="122" y="477" type="curve"/>
      <point x="125" y="483" type="line" smooth="yes"/>
      <point x="144" y="519"/>
      <point x="184" y="540"/>
      <point x="227" y="546" type="curve" smooth="yes"/>
      <point x="270" y="552"/>
      <point x="315" y="546"/>
      <point x="344" y="528" type="curve" smooth="yes"/>
      <point x="373" y="510"/>
      <point x="387" y="480"/>
      <point x="367" y="443" type="curve" smooth="yes"/>
    </contour>
    <contour>
      <point x="288" y="224" type="line"/>
      <point x="283" y="184"/>
      <point x="256" y="151"/>
      <point x="221" y="131" type="curve" smooth="yes"/>
      <point x="185" y="110"/>
      <point x="143" y="101"/>
      <point x="107" y="108" type="curve" smooth="yes"/>
      <point x="71" y="115"/>
      <point x="42" y="137"/>
      <point x="37" y="178" type="curve"/>
      <point x="40" y="154" type="line"/>
      <point x="33" y="195"/>
      <point x="63" y="229"/>
      <point x="103" y="253" type="curve" smooth="yes"/>
      <point x="143" y="276"/>
      <point x="194" y="288"/>
      <point x="233" y="285" type="curve" smooth="yes"/>
      <point x="272" y="281"/>
      <point x="298" y="263"/>
      <point x="287" y="227" type="curve"/>
    </contour>
  </outline>
</glyph>
<glyph name="semicolon" format="1">
  <advance width="339"/>
  <unicode hex="003B"/>
  <outline>
    <contour>
      <point x="364" y="437" type="line"/>
      <point x="347" y="409"/>
      <point x="310" y="390"/>
      <point x="270" y="383" type="curve" smooth="yes"/>
      <point x="229" y="375"/>
      <point x="185" y="378"/>
      <point x="155" y="394" type="curve" smooth="yes"/>
      <point x="125" y="409"/>
      <point x="107" y="436"/>
      <point x="122" y="477" type="curve"/>
      <point x="125" y="483" type="line" smooth="yes"/>
      <point x="144" y="519"/>
      <point x="184" y="540"/>
      <point x="227" y="546" type="curve" smooth="yes"/>
      <point x="270" y="552"/>
      <point x="315" y="546"/>
      <point x="344" y="528" type="curve" smooth="yes"/>
      <point x="373" y="510"/>
      <point x="387" y="480"/>
      <point x="367" y="443" type="curve" smooth="yes"/>
    </contour>
    <contour>
      <point x="288" y="271" type="line"/>
      <point x="290" y="268"/>
      <point x="292" y="266"/>
      <point x="294" y="264" type="curve"/>
      <point x="296" y="261"/>
      <point x="298" y="259"/>
      <point x="299" y="256" type="curve"/>
      <point x="302" y="253" type="line"/>
      <point x="317" y="238" type="line"/>
      <point x="316" y="230"/>
      <point x="317" y="222"/>
      <point x="320" y="214" type="curve"/>
      <point x="322" y="206"/>
      <point x="323" y="198"/>
      <point x="322" y="190" type="curve" smooth="yes"/>
      <point x="319" y="159"/>
      <point x="295" y="129"/>
      <point x="267" y="105" type="curve"/>
      <point x="243" y="74"/>
      <point x="210" y="49"/>
      <point x="175" y="37" type="curve" smooth="yes"/>
      <point x="139" y="25"/>
      <point x="103" y="27"/>
      <point x="71" y="54" type="curve"/>
      <point x="66" y="63"/>
      <point x="64" y="71"/>
      <point x="64" y="76" type="curve" smooth="yes"/>
      <point x="64" y="86"/>
      <point x="72" y="103"/>
      <point x="88" y="126" type="curve"/>
      <point x="95" y="137"/>
      <point x="102" y="148"/>
      <point x="109" y="158" type="curve"/>
      <point x="104" y="162" type="line"/>
      <point x="104" y="162"/>
      <point x="103" y="161"/>
      <point x="102" y="160" type="curve"/>
      <point x="100" y="159"/>
      <point x="99" y="161"/>
      <point x="99" y="166" type="curve"/>
      <point x="97" y="167"/>
      <point x="94" y="170"/>
      <point x="89" y="175" type="curve"/>
      <point x="88" y="175" type="line"/>
      <point x="80" y="182" type="line"/>
      <point x="78" y="187" type="line"/>
      <point x="58" y="224"/>
      <point x="65" y="252"/>
      <point x="86" y="272" type="curve" smooth="yes"/>
      <point x="107" y="292"/>
      <point x="141" y="303"/>
      <point x="176" y="304" type="curve" smooth="yes"/>
      <point x="195" y="305"/>
      <point x="205" y="305"/>
      <point x="216" y="303" type="curve" smooth="yes"/>
      <point x="227" y="301"/>
      <point x="237" y="297"/>
      <point x="254" y="292" type="curve"/>
      <point x="259" y="287"/>
      <point x="263" y="283"/>
      <point x="268" y="280" type="curve"/>
      <point x="272" y="277"/>
      <point x="276" y="274"/>
      <point x="279" y="271" type="curve"/>
      <point x="283" y="274" type="line"/>
    </contour>
  </outline>
</glyph>
<glyph name="less" format="1">
  <advance width="570"/>
  <unicode hex="003C"/>
  <outline>
    <contour>
      <point x="493" y="602"/>
      <point x="500" y="604"/>
      <point x="506" y="605" type="curve"/>
      <point x="518" y="608"/>
      <point x="529" y="609"/>
      <point x="542" y="609" type="curve"/>
      <point x="548" y="608"/>
      <point x="555" y="607"/>
      <point x="564" y="606" type="curve"/>
      <point x="591" y="602"/>
      <point x="620" y="587"/>
      <point x="640" y="568" type="curve"/>
      <point x="659" y="548"/>
      <point x="667" y="523"/>
      <point x="651" y="498" type="curve"/>
      <point x="656" y="470"/>
      <point x="635" y="440"/>
      <point x="596" y="417" type="curve"/>
      <point x="544" y="391"/>
      <point x="491" y="369"/>
      <point x="436" y="351" type="curve" smooth="yes"/>
      <point x="381" y="332"/>
      <point x="326" y="313"/>
      <point x="271" y="292" type="curve"/>
      <point x="323" y="275"/>
      <point x="377" y="253"/>
      <point x="422" y="224" type="curve" smooth="yes"/>
      <point x="467" y="195"/>
      <point x="504" y="158"/>
      <point x="524" y="111" type="curve"/>
      <point x="529" y="91"/>
      <point x="521" y="77"/>
      <point x="508" y="69" type="curve" smooth="yes"/>
      <point x="495" y="61"/>
      <point x="475" y="58"/>
      <point x="459" y="57" type="curve"/>
      <point x="428" y="58"/>
      <point x="402" y="68"/>
      <point x="377" y="80" type="curve" smooth="yes"/>
      <point x="364" y="86"/>
      <point x="352" y="92"/>
      <point x="339" y="99" type="curve"/>
      <point x="326" y="105"/>
      <point x="312" y="110"/>
      <point x="297" y="113" type="curve" smooth="yes"/>
      <point x="274" y="118"/>
      <point x="245" y="123"/>
      <point x="212" y="128" type="curve" smooth="yes"/>
      <point x="145" y="137"/>
      <point x="78" y="155"/>
      <point x="30" y="189" type="curve" smooth="yes"/>
      <point x="5" y="206"/>
      <point x="-9" y="229"/>
      <point x="-14" y="260" type="curve"/>
      <point x="-14" y="275"/>
      <point x="-11" y="287"/>
      <point x="-4" y="294" type="curve"/>
      <point x="-4" y="297"/>
      <point x="-3" y="302"/>
      <point x="-1" y="307" type="curve" smooth="yes"/>
      <point x="8" y="328"/>
      <point x="26" y="345"/>
      <point x="46" y="358" type="curve" smooth="yes"/>
      <point x="55" y="364"/>
      <point x="65" y="370"/>
      <point x="76" y="376" type="curve" smooth="yes"/>
      <point x="96" y="387"/>
      <point x="122" y="404"/>
      <point x="147" y="421" type="curve" smooth="yes"/>
      <point x="172" y="437"/>
      <point x="196" y="452"/>
      <point x="220" y="468" type="curve"/>
      <point x="232" y="475"/>
      <point x="245" y="484"/>
      <point x="260" y="493" type="curve" smooth="yes"/>
      <point x="331" y="537"/>
      <point x="404" y="581"/>
      <point x="484" y="601" type="curve"/>
    </contour>
    <contour>
      <point x="408" y="82"/>
      <point x="408" y="82"/>
      <point x="407" y="83" type="curve"/>
      <point x="407" y="82"/>
      <point x="407" y="82"/>
      <point x="408" y="82" type="curve"/>
    </contour>
  </outline>
</glyph>
<glyph name="equal" format="1">
  <advance width="567"/>
  <unicode hex="003D"/>
  <outline>
    <contour>
      <point x="151" y="153" type="line"/>
      <point x="135" y="149"/>
      <point x="125" y="146"/>
      <point x="116" y="145" type="curve"/>
      <point x="111" y="144"/>
      <point x="106" y="144"/>
      <point x="101" y="144" type="curve" smooth="yes"/>
      <point x="96" y="144"/>
      <point x="89" y="144"/>
      <point x="81" y="145" type="curve" smooth="yes"/>
      <point x="42" y="149"/>
      <point x="10" y="166"/>
      <point x="-2" y="189" type="curve" smooth="yes"/>
      <point x="-14" y="212"/>
      <point x="-7" y="242"/>
      <point x="36" y="271" type="curve"/>
      <point x="81" y="287"/>
      <point x="135" y="298"/>
      <point x="191" y="303" type="curve" smooth="yes"/>
      <point x="246" y="308"/>
      <point x="303" y="309"/>
      <point x="354" y="305" type="curve"/>
      <point x="365" y="308"/>
      <point x="376" y="310"/>
      <point x="388" y="312" type="curve"/>
      <point x="400" y="313"/>
      <point x="413" y="315"/>
      <point x="427" y="317" type="curve"/>
      <point x="487" y="310"/>
      <point x="527" y="283"/>
      <point x="534" y="254" type="curve"/>
      <point x="537" y="239"/>
      <point x="532" y="225"/>
      <point x="517" y="211" type="curve" smooth="yes"/>
      <point x="502" y="196"/>
      <point x="477" y="185"/>
      <point x="440" y="176" type="curve"/>
      <point x="431" y="177"/>
      <point x="424" y="177"/>
      <point x="419" y="178" type="curve"/>
      <point x="409" y="179"/>
      <point x="400" y="180"/>
      <point x="389" y="180" type="curve"/>
      <point x="384" y="179"/>
      <point x="376" y="179"/>
      <point x="367" y="178" type="curve"/>
      <point x="364" y="178"/>
      <point x="359" y="177"/>
      <point x="353" y="176" type="curve"/>
      <point x="341" y="172"/>
      <point x="330" y="170"/>
      <point x="324" y="170" type="curve"/>
      <point x="321" y="169"/>
      <point x="320" y="170"/>
      <point x="323" y="173" type="curve"/>
      <point x="328" y="175" type="line"/>
      <point x="279" y="167" type="line"/>
      <point x="268" y="166"/>
      <point x="257" y="164"/>
      <point x="247" y="163" type="curve"/>
      <point x="226" y="159"/>
      <point x="213" y="157"/>
      <point x="192" y="156" type="curve"/>
      <point x="181" y="155"/>
      <point x="169" y="155"/>
      <point x="155" y="156" type="curve"/>
    </contour>
    <contour>
      <point x="550" y="533"/>
      <point x="584" y="498"/>
      <point x="580" y="466" type="curve" smooth="yes"/>
      <point x="575" y="433"/>
      <point x="530" y="401"/>
      <point x="451" y="401" type="curve"/>
      <point x="442" y="402"/>
      <point x="422" y="403"/>
      <point x="415" y="403" type="curve" smooth="yes"/>
      <point x="411" y="403"/>
      <point x="411" y="403"/>
      <point x="416" y="403" type="curve" smooth="yes"/>
      <point x="421" y="403"/>
      <point x="433" y="403"/>
      <point x="454" y="404" type="curve"/>
      <point x="456" y="404"/>
      <point x="456" y="404"/>
      <point x="453" y="405" type="curve"/>
      <point x="450" y="405"/>
      <point x="447" y="405"/>
      <point x="443" y="405" type="curve" smooth="yes"/>
      <point x="438" y="405"/>
      <point x="433" y="405"/>
      <point x="428" y="405" type="curve" smooth="yes"/>
      <point x="423" y="405"/>
      <point x="418" y="405"/>
      <point x="414" y="405" type="curve" smooth="yes"/>
      <point x="413" y="405"/>
      <point x="411" y="405"/>
      <point x="410" y="405" type="curve"/>
      <point x="409" y="404"/>
      <point x="407" y="404"/>
      <point x="406" y="404" type="curve"/>
      <point x="394" y="402" type="line"/>
      <point x="383" y="383"/>
      <point x="355" y="366"/>
      <point x="307" y="355" type="curve"/>
      <point x="282" y="356"/>
      <point x="258" y="356"/>
      <point x="233" y="354" type="curve"/>
      <point x="208" y="351"/>
      <point x="183" y="352"/>
      <point x="158" y="355" type="curve"/>
      <point x="126" y="362"/>
      <point x="102" y="375"/>
      <point x="89" y="391" type="curve" smooth="yes"/>
      <point x="76" y="407"/>
      <point x="76" y="426"/>
      <point x="92" y="443" type="curve"/>
      <point x="96" y="459"/>
      <point x="113" y="472"/>
      <point x="142" y="481" type="curve"/>
      <point x="157" y="487"/>
      <point x="174" y="492"/>
      <point x="192" y="495" type="curve" smooth="yes"/>
      <point x="210" y="498"/>
      <point x="227" y="502"/>
      <point x="243" y="505" type="curve" smooth="yes"/>
      <point x="320" y="521"/>
      <point x="396" y="538"/>
      <point x="473" y="541" type="curve"/>
    </contour>
    <contour>
      <point x="214" y="361"/>
      <point x="211" y="360"/>
      <point x="208" y="359" type="curve" smooth="yes"/>
      <point x="205" y="358"/>
      <point x="202" y="358"/>
      <point x="200" y="357" type="curve"/>
      <point x="197" y="356"/>
      <point x="195" y="356"/>
      <point x="193" y="356" type="curve"/>
      <point x="202" y="357"/>
      <point x="210" y="359"/>
      <point x="218" y="362" type="curve"/>
    </contour>
  </outline>
</glyph>
<glyph name="greater" format="1">
  <advance width="745"/>
  <unicode hex="003E"/>
  <outline>
    <contour>
      <point x="388" y="482"/>
      <point x="377" y="479"/>
      <point x="366" y="476" type="curve"/>
      <point x="354" y="472"/>
      <point x="343" y="471"/>
      <point x="324" y="471" type="curve" smooth="yes"/>
      <point x="280" y="470"/>
      <point x="246" y="484"/>
      <point x="236" y="508" type="curve" smooth="yes"/>
      <point x="231" y="520"/>
      <point x="232" y="534"/>
      <point x="240" y="551" type="curve" smooth="yes"/>
      <point x="248" y="568"/>
      <point x="266" y="586"/>
      <point x="293" y="606" type="curve"/>
      <point x="301" y="609"/>
      <point x="309" y="613"/>
      <point x="317" y="617" type="curve"/>
      <point x="325" y="620"/>
      <point x="333" y="623"/>
      <point x="340" y="626" type="curve"/>
      <point x="379" y="638"/>
      <point x="411" y="639"/>
      <point x="440" y="632" type="curve"/>
      <point x="468" y="624"/>
      <point x="491" y="610"/>
      <point x="514" y="591" type="curve" smooth="yes"/>
      <point x="529" y="579"/>
      <point x="544" y="566"/>
      <point x="557" y="553" type="curve"/>
      <point x="570" y="539"/>
      <point x="583" y="526"/>
      <point x="596" y="513" type="curve"/>
      <point x="599" y="511"/>
      <point x="602" y="508"/>
      <point x="607" y="505" type="curve"/>
      <point x="611" y="502"/>
      <point x="612" y="501"/>
      <point x="609" y="502" type="curve"/>
      <point x="604" y="504"/>
      <point x="599" y="507"/>
      <point x="596" y="510" type="curve"/>
      <point x="592" y="513"/>
      <point x="587" y="516"/>
      <point x="582" y="519" type="curve"/>
      <point x="579" y="521"/>
      <point x="578" y="521"/>
      <point x="581" y="520" type="curve"/>
      <point x="583" y="518"/>
      <point x="587" y="515"/>
      <point x="592" y="512" type="curve"/>
      <point x="602" y="505"/>
      <point x="613" y="497"/>
      <point x="620" y="492" type="curve" smooth="yes"/>
      <point x="636" y="481"/>
      <point x="674" y="456"/>
      <point x="704" y="425" type="curve" smooth="yes"/>
      <point x="734" y="394"/>
      <point x="757" y="358"/>
      <point x="741" y="329" type="curve" smooth="yes"/>
      <point x="722" y="293"/>
      <point x="689" y="270"/>
      <point x="653" y="254" type="curve" smooth="yes"/>
      <point x="617" y="237"/>
      <point x="577" y="227"/>
      <point x="545" y="219" type="curve" smooth="yes"/>
      <point x="532" y="216"/>
      <point x="516" y="212"/>
      <point x="495" y="209" type="curve"/>
      <point x="454" y="201"/>
      <point x="403" y="192"/>
      <point x="351" y="181" type="curve" smooth="yes"/>
      <point x="299" y="170"/>
      <point x="252" y="158"/>
      <point x="213" y="144" type="curve" smooth="yes"/>
      <point x="194" y="137"/>
      <point x="179" y="129"/>
      <point x="169" y="122" type="curve"/>
      <point x="164" y="118"/>
      <point x="159" y="114"/>
      <point x="156" y="109" type="curve" smooth="yes"/>
      <point x="153" y="104"/>
      <point x="149" y="100"/>
      <point x="144" y="95" type="curve"/>
      <point x="149" y="106"/>
      <point x="154" y="116"/>
      <point x="158" y="127" type="curve"/>
      <point x="158" y="123"/>
      <point x="157" y="122"/>
      <point x="154" y="123" type="curve"/>
      <point x="149" y="126"/>
      <point x="140" y="132"/>
      <point x="132" y="140" type="curve"/>
      <point x="123" y="147"/>
      <point x="118" y="152"/>
      <point x="112" y="148" type="curve" smooth="yes"/>
      <point x="109" y="146"/>
      <point x="101" y="144"/>
      <point x="90" y="143" type="curve"/>
      <point x="87" y="142"/>
      <point x="87" y="143"/>
      <point x="90" y="145" type="curve"/>
      <point x="96" y="148"/>
      <point x="109" y="154"/>
      <point x="124" y="161" type="curve" smooth="yes"/>
      <point x="131" y="164"/>
      <point x="138" y="167"/>
      <point x="144" y="170" type="curve" smooth="yes"/>
      <point x="211" y="203"/>
      <point x="292" y="222"/>
      <point x="391" y="238" type="curve" smooth="yes"/>
      <point x="440" y="246"/>
      <point x="490" y="255"/>
      <point x="539" y="266" type="curve"/>
      <point x="531" y="275"/>
      <point x="512" y="291"/>
      <point x="492" y="305" type="curve" smooth="yes"/>
      <point x="472" y="319"/>
      <point x="452" y="331"/>
      <point x="444" y="335" type="curve"/>
      <point x="411" y="356"/>
      <point x="378" y="377"/>
      <point x="343" y="396" type="curve" smooth="yes"/>
      <point x="308" y="415"/>
      <point x="274" y="436"/>
      <point x="243" y="459" type="curve"/>
      <point x="219" y="483"/>
      <point x="217" y="511"/>
      <point x="230" y="535" type="curve" smooth="yes"/>
      <point x="243" y="559"/>
      <point x="274" y="580"/>
      <point x="318" y="595" type="curve" smooth="yes"/>
      <point x="378" y="615"/>
      <point x="420" y="607"/>
      <point x="459" y="582" type="curve"/>
      <point x="491" y="547"/>
      <point x="530" y="518"/>
      <point x="567" y="488" type="curve" smooth="yes"/>
      <point x="604" y="458"/>
      <point x="643" y="428"/>
      <point x="675" y="393" type="curve"/>
      <point x="695" y="373"/>
      <point x="713" y="354"/>
      <point x="725" y="331" type="curve"/>
      <point x="736" y="307"/>
      <point x="738" y="280"/>
      <point x="726" y="244" type="curve"/>
      <point x="711" y="217"/>
      <point x="700" y="209"/>
      <point x="673" y="193" type="curve"/>
      <point x="620" y="174"/>
      <point x="572" y="168"/>
      <point x="520" y="160" type="curve"/>
      <point x="515" y="159"/>
      <point x="505" y="158"/>
      <point x="492" y="157" type="curve"/>
      <point x="465" y="153"/>
      <point x="435" y="149"/>
      <point x="409" y="145" type="curve" smooth="yes"/>
      <point x="396" y="143"/>
      <point x="386" y="142"/>
      <point x="380" y="141" type="curve"/>
      <point x="355" y="138"/>
      <point x="329" y="134"/>
      <point x="304" y="131" type="curve" smooth="yes"/>
      <point x="253" y="124"/>
      <point x="216" y="118"/>
      <point x="178" y="99" type="curve" smooth="yes"/>
      <point x="140" y="80"/>
      <point x="101" y="64"/>
      <point x="69" y="64" type="curve"/>
      <point x="53" y="63"/>
      <point x="41" y="71"/>
      <point x="33" y="86" type="curve"/>
      <point x="29" y="102"/>
      <point x="31" y="108"/>
      <point x="44" y="125" type="curve"/>
      <point x="49" y="131"/>
      <point x="54" y="137"/>
      <point x="59" y="144" type="curve" smooth="yes"/>
      <point x="63" y="150"/>
      <point x="67" y="156"/>
      <point x="72" y="161" type="curve" smooth="yes"/>
      <point x="92" y="182"/>
      <point x="131" y="203"/>
      <point x="178" y="221" type="curve" smooth="yes"/>
      <point x="225" y="239"/>
      <point x="278" y="255"/>
      <point x="326" y="268" type="curve" smooth="yes"/>
      <point x="349" y="274"/>
      <point x="371" y="279"/>
      <point x="391" y="284" type="curve" smooth="yes"/>
      <point x="410" y="289"/>
      <point x="426" y="293"/>
      <point x="437" y="296" type="curve"/>
      <point x="440" y="297"/>
      <point x="447" y="299"/>
      <point x="459" y="302" type="curve" smooth="yes"/>
      <point x="470" y="305"/>
      <point x="483" y="309"/>
      <point x="497" y="313" type="curve" smooth="yes"/>
      <point x="525" y="321"/>
      <point x="555" y="329"/>
      <point x="567" y="336" type="curve" smooth="yes"/>
      <point x="572" y="339"/>
      <point x="583" y="347"/>
      <point x="591" y="354" type="curve"/>
      <point x="595" y="357"/>
      <point x="598" y="360"/>
      <point x="601" y="361" type="curve"/>
      <point x="603" y="362"/>
      <point x="603" y="362"/>
      <point x="602" y="359" type="curve"/>
      <point x="598" y="351"/>
      <point x="585" y="338"/>
      <point x="575" y="330" type="curve"/>
      <point x="570" y="325"/>
      <point x="565" y="322"/>
      <point x="562" y="321" type="curve"/>
      <point x="559" y="319"/>
      <point x="558" y="320"/>
      <point x="560" y="323" type="curve"/>
      <point x="559" y="320"/>
      <point x="558" y="318"/>
      <point x="558" y="316" type="curve" smooth="yes"/>
      <point x="558" y="311"/>
      <point x="554" y="305"/>
      <point x="555" y="313" type="curve"/>
      <point x="555" y="317"/>
      <point x="555" y="318"/>
      <point x="556" y="317" type="curve"/>
      <point x="561" y="306"/>
      <point x="563" y="299"/>
      <point x="563" y="298" type="curve"/>
      <point x="562" y="297"/>
      <point x="561" y="298"/>
      <point x="558" y="302" type="curve"/>
      <point x="555" y="305"/>
      <point x="553" y="310"/>
      <point x="550" y="315" type="curve" smooth="yes"/>
      <point x="547" y="320"/>
      <point x="546" y="322"/>
      <point x="545" y="323" type="curve"/>
      <point x="516" y="344"/>
      <point x="486" y="363"/>
      <point x="454" y="380" type="curve" smooth="yes"/>
      <point x="421" y="397"/>
      <point x="390" y="415"/>
      <point x="360" y="436" type="curve"/>
      <point x="358" y="437"/>
      <point x="354" y="441"/>
      <point x="348" y="446" type="curve"/>
      <point x="335" y="456"/>
      <point x="320" y="466"/>
      <point x="308" y="474" type="curve"/>
      <point x="301" y="477"/>
      <point x="296" y="479"/>
      <point x="293" y="479" type="curve"/>
      <point x="416" y="494" type="line"/>
      <point x="407" y="489" type="line"/>
    </contour>
  </outline>
</glyph>
<glyph name="question" format="1">
  <advance width="570"/>
  <unicode hex="003F"/>
  <outline>
    <contour>
      <point x="634" y="465"/>
      <point x="602" y="417"/>
      <point x="555" y="374" type="curve" smooth="yes"/>
      <point x="508" y="331"/>
      <point x="448" y="295"/>
      <point x="399" y="264" type="curve" smooth="yes"/>
      <point x="350" y="233"/>
      <point x="310" y="208"/>
      <point x="306" y="188" type="curve"/>
      <point x="303" y="156"/>
      <point x="271" y="134"/>
      <point x="236" y="126" type="curve" smooth="yes"/>
      <point x="201" y="117"/>
      <point x="162" y="119"/>
      <point x="146" y="135" type="curve"/>
      <point x="125" y="180"/>
      <point x="143" y="227"/>
      <point x="179" y="274" type="curve" smooth="yes"/>
      <point x="196" y="297"/>
      <point x="217" y="321"/>
      <point x="241" y="344" type="curve" smooth="yes"/>
      <point x="289" y="390"/>
      <point x="337" y="435"/>
      <point x="373" y="476" type="curve" smooth="yes"/>
      <point x="391" y="497"/>
      <point x="403" y="516"/>
      <point x="409" y="535" type="curve"/>
      <point x="411" y="544" type="line"/>
      <point x="408" y="544" type="line"/>
      <point x="403" y="540"/>
      <point x="396" y="534"/>
      <point x="387" y="527" type="curve" smooth="yes"/>
      <point x="378" y="520"/>
      <point x="370" y="514"/>
      <point x="365" y="509" type="curve"/>
      <point x="358" y="505"/>
      <point x="352" y="502"/>
      <point x="347" y="499" type="curve" smooth="yes"/>
      <point x="337" y="493"/>
      <point x="327" y="489"/>
      <point x="316" y="486" type="curve"/>
      <point x="310" y="485"/>
      <point x="302" y="484"/>
      <point x="293" y="483" type="curve"/>
      <point x="292" y="482"/>
      <point x="290" y="482"/>
      <point x="287" y="482" type="curve"/>
      <point x="276" y="473"/>
      <point x="266" y="465"/>
      <point x="251" y="458" type="curve"/>
      <point x="248" y="456" type="line"/>
      <point x="209" y="447"/>
      <point x="180" y="446"/>
      <point x="156" y="456" type="curve" smooth="yes"/>
      <point x="132" y="466"/>
      <point x="115" y="487"/>
      <point x="100" y="524" type="curve"/>
      <point x="92" y="553"/>
      <point x="104" y="588"/>
      <point x="122" y="618" type="curve" smooth="yes"/>
      <point x="140" y="648"/>
      <point x="164" y="673"/>
      <point x="185" y="685" type="curve" smooth="yes"/>
      <point x="250" y="724"/>
      <point x="340" y="747"/>
      <point x="423" y="747" type="curve" smooth="yes"/>
      <point x="506" y="747"/>
      <point x="580" y="723"/>
      <point x="615" y="667" type="curve"/>
      <point x="623" y="652"/>
      <point x="623" y="636"/>
      <point x="620" y="618" type="curve"/>
      <point x="618" y="609"/>
      <point x="616" y="600"/>
      <point x="614" y="592" type="curve"/>
      <point x="609" y="575"/>
      <point x="609" y="563"/>
      <point x="618" y="547" type="curve" smooth="yes"/>
      <point x="623" y="538"/>
      <point x="626" y="530"/>
      <point x="627" y="521" type="curve" smooth="yes"/>
    </contour>
    <contour>
      <point x="228" y="-60"/>
      <point x="181" y="-80"/>
      <point x="138" y="-80" type="curve" smooth="yes"/>
      <point x="95" y="-80"/>
      <point x="59" y="-60"/>
      <point x="63" y="-20" type="curve"/>
      <point x="62" y="-1"/>
      <point x="70" y="14"/>
      <point x="83" y="26" type="curve" smooth="yes"/>
      <point x="95" y="37"/>
      <point x="111" y="44"/>
      <point x="126" y="48" type="curve" smooth="yes"/>
      <point x="151" y="55"/>
      <point x="190" y="52"/>
      <point x="217" y="40" type="curve" smooth="yes"/>
      <point x="244" y="28"/>
      <point x="261" y="9"/>
      <point x="245" y="-16" type="curve"/>
    </contour>
    <contour>
      <point x="377" y="555"/>
      <point x="381" y="554"/>
      <point x="385" y="555" type="curve" smooth="yes"/>
      <point x="389" y="556"/>
      <point x="393" y="556"/>
      <point x="396" y="555" type="curve"/>
      <point x="389" y="557"/>
      <point x="383" y="558"/>
      <point x="377" y="558" type="curve" smooth="yes"/>
      <point x="371" y="558"/>
      <point x="370" y="557"/>
      <point x="374" y="556" type="curve"/>
    </contour>
    <contour>
      <point x="376" y="529" type="line"/>
      <point x="373" y="528"/>
      <point x="372" y="527"/>
      <point x="371" y="526" type="curve" smooth="yes"/>
      <point x="370" y="525"/>
      <point x="370" y="525"/>
      <point x="372" y="526" type="curve"/>
    </contour>
  </outline>
</glyph>
<glyph name="at" format="1">
  <advance width="1064"/>
  <unicode hex="0040"/>
  <outline>
    <contour>
      <point x="775" y="366"/>
      <point x="778" y="333"/>
      <point x="759" y="305" type="curve" smooth="yes"/>
      <point x="739" y="276"/>
      <point x="697" y="253"/>
      <point x="645" y="245" type="curve" smooth="yes"/>
      <point x="626" y="242"/>
      <point x="616" y="242"/>
      <point x="605" y="243" type="curve" smooth="yes"/>
      <point x="593" y="244"/>
      <point x="582" y="246"/>
      <point x="566" y="249" type="curve"/>
      <point x="559" y="252"/>
      <point x="553" y="257"/>
      <point x="548" y="262" type="curve"/>
      <point x="542" y="267"/>
      <point x="535" y="269"/>
      <point x="526" y="268" type="curve"/>
      <point x="491" y="267"/>
      <point x="463" y="249"/>
      <point x="444" y="225" type="curve" smooth="yes"/>
      <point x="425" y="201"/>
      <point x="417" y="169"/>
      <point x="426" y="141" type="curve"/>
      <point x="465" y="161"/>
      <point x="492" y="194"/>
      <point x="517" y="227" type="curve" smooth="yes"/>
      <point x="542" y="259"/>
      <point x="567" y="291"/>
      <point x="600" y="310" type="curve"/>
      <point x="631" y="322"/>
      <point x="662" y="328"/>
      <point x="688" y="325" type="curve"/>
      <point x="714" y="321"/>
      <point x="736" y="309"/>
      <point x="749" y="284" type="curve"/>
      <point x="752" y="279"/>
      <point x="752" y="273"/>
      <point x="751" y="266" type="curve" smooth="yes"/>
      <point x="750" y="259"/>
      <point x="749" y="252"/>
      <point x="748" y="245" type="curve"/>
      <point x="748" y="243"/>
      <point x="748" y="240"/>
      <point x="749" y="236" type="curve"/>
      <point x="749" y="231"/>
      <point x="749" y="227"/>
      <point x="749" y="224" type="curve" smooth="yes"/>
      <point x="749" y="220"/>
      <point x="749" y="217"/>
      <point x="750" y="215" type="curve"/>
      <point x="750" y="213"/>
      <point x="750" y="213"/>
      <point x="750" y="216" type="curve"/>
      <point x="751" y="221"/>
      <point x="751" y="225"/>
      <point x="750" y="230" type="curve"/>
      <point x="749" y="234"/>
      <point x="749" y="238"/>
      <point x="750" y="242" type="curve"/>
      <point x="751" y="243"/>
      <point x="751" y="241"/>
      <point x="752" y="236" type="curve"/>
      <point x="753" y="224"/>
      <point x="760" y="208"/>
      <point x="768" y="195" type="curve" smooth="yes"/>
      <point x="772" y="188"/>
      <point x="776" y="182"/>
      <point x="781" y="175" type="curve"/>
      <point x="780" y="176"/>
      <point x="777" y="178"/>
      <point x="774" y="181" type="curve"/>
      <point x="771" y="183"/>
      <point x="770" y="184"/>
      <point x="772" y="183" type="curve"/>
      <point x="811" y="155"/>
      <point x="817" y="122"/>
      <point x="801" y="95" type="curve" smooth="yes"/>
      <point x="784" y="67"/>
      <point x="744" y="44"/>
      <point x="692" y="36" type="curve" smooth="yes"/>
      <point x="673" y="33"/>
      <point x="663" y="33"/>
      <point x="652" y="34" type="curve" smooth="yes"/>
      <point x="640" y="35"/>
      <point x="629" y="37"/>
      <point x="613" y="40" type="curve"/>
      <point x="585" y="51"/>
      <point x="569" y="67"/>
      <point x="560" y="87" type="curve"/>
      <point x="555" y="97"/>
      <point x="552" y="108"/>
      <point x="550" y="121" type="curve"/>
      <point x="547" y="133"/>
      <point x="545" y="146"/>
      <point x="542" y="159" type="curve"/>
      <point x="541" y="165"/>
      <point x="539" y="171"/>
      <point x="538" y="177" type="curve" smooth="yes"/>
      <point x="537" y="182"/>
      <point x="537" y="188"/>
      <point x="538" y="194" type="curve"/>
      <point x="539" y="203"/>
      <point x="541" y="213"/>
      <point x="546" y="224" type="curve" smooth="yes"/>
      <point x="551" y="235"/>
      <point x="553" y="244"/>
      <point x="553" y="253" type="curve"/>
      <point x="609" y="244"/>
      <point x="662" y="235"/>
      <point x="717" y="224" type="curve"/>
      <point x="714" y="223"/>
      <point x="711" y="221"/>
      <point x="708" y="219" type="curve" smooth="yes"/>
      <point x="702" y="215"/>
      <point x="700" y="214"/>
      <point x="708" y="220" type="curve"/>
      <point x="711" y="223"/>
      <point x="718" y="228"/>
      <point x="727" y="237" type="curve"/>
      <point x="730" y="239"/>
      <point x="730" y="239"/>
      <point x="729" y="238" type="curve"/>
      <point x="727" y="237"/>
      <point x="724" y="235"/>
      <point x="720" y="232" type="curve" smooth="yes"/>
      <point x="712" y="226"/>
      <point x="702" y="216"/>
      <point x="698" y="212" type="curve"/>
      <point x="678" y="195"/>
      <point x="658" y="177"/>
      <point x="637" y="160" type="curve" smooth="yes"/>
      <point x="624" y="149"/>
      <point x="611" y="137"/>
      <point x="599" y="126" type="curve"/>
      <point x="575" y="102"/>
      <point x="552" y="81"/>
      <point x="525" y="68" type="curve" smooth="yes"/>
      <point x="511" y="61"/>
      <point x="496" y="57"/>
      <point x="479" y="55" type="curve" smooth="yes"/>
      <point x="404" y="47"/>
      <point x="343" y="72"/>
      <point x="313" y="117" type="curve" smooth="yes"/>
      <point x="283" y="162"/>
      <point x="284" y="229"/>
      <point x="333" y="305" type="curve" smooth="yes"/>
      <point x="366" y="357"/>
      <point x="414" y="401"/>
      <point x="469" y="430" type="curve" smooth="yes"/>
      <point x="524" y="458"/>
      <point x="583" y="470"/>
      <point x="642" y="458" type="curve" smooth="yes"/>
      <point x="657" y="455"/>
      <point x="673" y="442"/>
      <point x="690" y="427" type="curve" smooth="yes"/>
      <point x="706" y="412"/>
      <point x="723" y="397"/>
      <point x="736" y="394" type="curve"/>
    </contour>
    <contour>
      <point x="547" y="92"/>
      <point x="554" y="119"/>
      <point x="578" y="143" type="curve" smooth="yes"/>
      <point x="601" y="167"/>
      <point x="641" y="186"/>
      <point x="685" y="198" type="curve" smooth="yes"/>
      <point x="745" y="214"/>
      <point x="787" y="202"/>
      <point x="826" y="174" type="curve"/>
      <point x="827" y="172"/>
      <point x="830" y="169"/>
      <point x="834" y="166" type="curve"/>
      <point x="837" y="163"/>
      <point x="838" y="162"/>
      <point x="835" y="163" type="curve"/>
      <point x="830" y="166"/>
      <point x="825" y="169"/>
      <point x="821" y="173" type="curve"/>
      <point x="817" y="176"/>
      <point x="813" y="180"/>
      <point x="808" y="183" type="curve"/>
      <point x="806" y="184"/>
      <point x="807" y="184"/>
      <point x="810" y="183" type="curve"/>
      <point x="816" y="180"/>
      <point x="824" y="176"/>
      <point x="829" y="172" type="curve"/>
      <point x="832" y="170"/>
      <point x="832" y="169"/>
      <point x="830" y="170" type="curve"/>
      <point x="817" y="173"/>
      <point x="805" y="176"/>
      <point x="792" y="181" type="curve"/>
      <point x="791" y="182"/>
      <point x="792" y="182"/>
      <point x="794" y="182" type="curve"/>
      <point x="796" y="181"/>
      <point x="798" y="181"/>
      <point x="801" y="181" type="curve"/>
      <point x="804" y="180"/>
      <point x="806" y="180"/>
      <point x="808" y="180" type="curve"/>
      <point x="809" y="179"/>
      <point x="809" y="179"/>
      <point x="808" y="179" type="curve" smooth="yes"/>
      <point x="805" y="179"/>
      <point x="800" y="179"/>
      <point x="795" y="180" type="curve"/>
      <point x="789" y="180"/>
      <point x="784" y="180"/>
      <point x="779" y="180" type="curve" smooth="yes"/>
      <point x="774" y="180"/>
      <point x="770" y="180"/>
      <point x="767" y="181" type="curve"/>
      <point x="764" y="181"/>
      <point x="765" y="181"/>
      <point x="768" y="181" type="curve"/>
      <point x="779" y="187"/>
      <point x="791" y="192"/>
      <point x="803" y="197" type="curve" smooth="yes"/>
      <point x="815" y="202"/>
      <point x="826" y="209"/>
      <point x="835" y="218" type="curve" smooth="yes"/>
      <point x="874" y="257"/>
      <point x="879" y="304"/>
      <point x="870" y="346" type="curve" smooth="yes"/>
      <point x="861" y="388"/>
      <point x="837" y="426"/>
      <point x="817" y="449" type="curve" smooth="yes"/>
      <point x="784" y="485"/>
      <point x="737" y="515"/>
      <point x="682" y="528" type="curve" smooth="yes"/>
      <point x="626" y="541"/>
      <point x="565" y="540"/>
      <point x="504" y="516" type="curve" smooth="yes"/>
      <point x="440" y="492"/>
      <point x="382" y="451"/>
      <point x="338" y="408" type="curve" smooth="yes"/>
      <point x="293" y="364"/>
      <point x="260" y="321"/>
      <point x="245" y="290" type="curve" smooth="yes"/>
      <point x="233" y="265"/>
      <point x="221" y="222"/>
      <point x="219" y="177" type="curve" smooth="yes"/>
      <point x="217" y="132"/>
      <point x="226" y="83"/>
      <point x="259" y="47" type="curve" smooth="yes"/>
      <point x="291" y="10"/>
      <point x="345" y="-16"/>
      <point x="436" y="-15" type="curve" smooth="yes"/>
      <point x="456" y="-15"/>
      <point x="472" y="-16"/>
      <point x="483" y="-18" type="curve" smooth="yes"/>
      <point x="506" y="-22"/>
      <point x="516" y="-30"/>
      <point x="520" y="-39" type="curve"/>
      <point x="522" y="-44"/>
      <point x="524" y="-48"/>
      <point x="525" y="-53" type="curve"/>
      <point x="528" y="-63"/>
      <point x="532" y="-74"/>
      <point x="548" y="-82" type="curve" smooth="yes"/>
      <point x="591" y="-103"/>
      <point x="576" y="-126"/>
      <point x="530" y="-141" type="curve" smooth="yes"/>
      <point x="484" y="-156"/>
      <point x="408" y="-160"/>
      <point x="332" y="-147" type="curve" smooth="yes"/>
      <point x="255" y="-134"/>
      <point x="176" y="-102"/>
      <point x="127" y="-42" type="curve" smooth="yes"/>
      <point x="92" y="-1"/>
      <point x="72" y="60"/>
      <point x="65" y="127" type="curve" smooth="yes"/>
      <point x="58" y="194"/>
      <point x="66" y="267"/>
      <point x="87" y="336" type="curve" smooth="yes"/>
      <point x="108" y="404"/>
      <point x="145" y="468"/>
      <point x="194" y="516" type="curve" smooth="yes"/>
      <point x="282" y="600"/>
      <point x="392" y="656"/>
      <point x="507" y="680" type="curve" smooth="yes"/>
      <point x="622" y="704"/>
      <point x="740" y="696"/>
      <point x="840" y="652" type="curve" smooth="yes"/>
      <point x="881" y="633"/>
      <point x="927" y="593"/>
      <point x="963" y="538" type="curve" smooth="yes"/>
      <point x="999" y="482"/>
      <point x="1025" y="415"/>
      <point x="1029" y="344" type="curve" smooth="yes"/>
      <point x="1032" y="272"/>
      <point x="1014" y="197"/>
      <point x="959" y="130" type="curve" smooth="yes"/>
      <point x="926" y="89"/>
      <point x="879" y="58"/>
      <point x="828" y="39" type="curve" smooth="yes"/>
      <point x="777" y="19"/>
      <point x="724" y="11"/>
      <point x="677" y="15" type="curve" smooth="yes"/>
      <point x="630" y="19"/>
      <point x="591" y="36"/>
      <point x="571" y="65" type="curve"/>
    </contour>
  </outline>
</glyph>
<glyph name="B" format="1">
  <advance width="570"/>
  <unicode hex="0042"/>
  <outline>
    <contour>
      <point x="207" y="-48"/>
      <point x="200" y="-47"/>
      <point x="197" y="-46" type="curve"/>
      <point x="190" y="-44"/>
      <point x="188" y="-43"/>
      <point x="184" y="-40" type="curve"/>
      <point x="182" y="-39"/>
      <point x="178" y="-38"/>
      <point x="171" y="-37" type="curve"/>
      <point x="138" y="-64"/>
      <point x="92" y="-70"/>
      <point x="54" y="-57" type="curve" smooth="yes"/>
      <point x="16" y="-44"/>
      <point x="-14" y="-12"/>
      <point x="-14" y="40" type="curve"/>
      <point x="-12" y="57"/>
      <point x="-9" y="71"/>
      <point x="-4" y="81" type="curve"/>
      <point x="-6" y="87"/>
      <point x="-7" y="94"/>
      <point x="-7" y="103" type="curve"/>
      <point x="10" y="196"/>
      <point x="32" y="301"/>
      <point x="64" y="401" type="curve" smooth="yes"/>
      <point x="96" y="501"/>
      <point x="136" y="595"/>
      <point x="189" y="668" type="curve" smooth="yes"/>
      <point x="229" y="724"/>
      <point x="289" y="759"/>
      <point x="351" y="774" type="curve" smooth="yes"/>
      <point x="413" y="789"/>
      <point x="477" y="782"/>
      <point x="528" y="754" type="curve"/>
      <point x="529" y="754"/>
      <point x="529" y="754"/>
      <point x="530" y="754" type="curve"/>
      <point x="530" y="753"/>
      <point x="531" y="753"/>
      <point x="532" y="753" type="curve"/>
      <point x="565" y="733"/>
      <point x="589" y="708"/>
      <point x="610" y="681" type="curve"/>
      <point x="630" y="653"/>
      <point x="644" y="622"/>
      <point x="645" y="587" type="curve" smooth="yes"/>
      <point x="646" y="552"/>
      <point x="631" y="515"/>
      <point x="608" y="480" type="curve" smooth="yes"/>
      <point x="584" y="445"/>
      <point x="555" y="413"/>
      <point x="521" y="385" type="curve" smooth="yes"/>
      <point x="504" y="371"/>
      <point x="486" y="359"/>
      <point x="469" y="348" type="curve"/>
      <point x="478" y="341"/>
      <point x="488" y="337"/>
      <point x="497" y="335" type="curve"/>
      <point x="506" y="332"/>
      <point x="516" y="327"/>
      <point x="528" y="318" type="curve" smooth="yes"/>
      <point x="561" y="294"/>
      <point x="567" y="240"/>
      <point x="550" y="181" type="curve" smooth="yes"/>
      <point x="533" y="121"/>
      <point x="492" y="57"/>
      <point x="435" y="11" type="curve" smooth="yes"/>
      <point x="378" y="-35"/>
      <point x="303" y="-64"/>
      <point x="216" y="-48" type="curve"/>
    </contour>
    <contour>
      <point x="217" y="56" type="line"/>
      <point x="233" y="60"/>
      <point x="243" y="61"/>
      <point x="255" y="62" type="curve" smooth="yes"/>
      <point x="266" y="63"/>
      <point x="277" y="66"/>
      <point x="296" y="77" type="curve"/>
      <point x="312" y="88"/>
      <point x="328" y="98"/>
      <point x="341" y="111" type="curve" smooth="yes"/>
      <point x="356" y="126"/>
      <point x="372" y="148"/>
      <point x="375" y="175" type="curve"/>
      <point x="376" y="211"/>
      <point x="360" y="219"/>
      <point x="336" y="219" type="curve" smooth="yes"/>
      <point x="323" y="219"/>
      <point x="310" y="217"/>
      <point x="295" y="214" type="curve"/>
      <point x="280" y="210"/>
      <point x="265" y="208"/>
      <point x="251" y="207" type="curve"/>
      <point x="251" y="205" type="line"/>
      <point x="244" y="179"/>
      <point x="237" y="155"/>
      <point x="230" y="132" type="curve" smooth="yes"/>
      <point x="223" y="109"/>
      <point x="217" y="84"/>
      <point x="213" y="56" type="curve"/>
    </contour>
    <contour>
      <point x="338" y="577"/>
      <point x="320" y="519"/>
      <point x="308" y="460" type="curve"/>
      <point x="365" y="484"/>
      <point x="428" y="522"/>
      <point x="461" y="567" type="curve"/>
      <point x="468" y="575"/>
      <point x="482" y="596"/>
      <point x="475" y="611" type="curve"/>
      <point x="466" y="623"/>
      <point x="452" y="632"/>
      <point x="436" y="640" type="curve"/>
      <point x="431" y="635"/>
      <point x="424" y="634"/>
      <point x="417" y="635" type="curve" smooth="yes"/>
      <point x="402" y="637"/>
      <point x="387" y="629"/>
      <point x="375" y="616" type="curve" smooth="yes"/>
    </contour>
    <contour>
      <point x="402" y="639" type="line"/>
      <point x="405" y="639" type="line"/>
    </contour>
  </outline>
</glyph>
<glyph name="C" format="1">
  <advance width="573"/>
  <unicode hex="0043"/>
  <outline>
    <contour>
      <point x="414" y="-18"/>
      <point x="373" y="-36"/>
      <point x="330" y="-47" type="curve" smooth="yes"/>
      <point x="286" y="-59"/>
      <point x="240" y="-62"/>
      <point x="199" y="-54" type="curve" smooth="yes"/>
      <point x="152" y="-45"/>
      <point x="111" y="-31"/>
      <point x="79" y="-2" type="curve" smooth="yes"/>
      <point x="47" y="27"/>
      <point x="25" y="71"/>
      <point x="18" y="139" type="curve" smooth="yes"/>
      <point x="6" y="228"/>
      <point x="21" y="319"/>
      <point x="50" y="400" type="curve" smooth="yes"/>
      <point x="79" y="481"/>
      <point x="125" y="554"/>
      <point x="174" y="611" type="curve" smooth="yes"/>
      <point x="222" y="668"/>
      <point x="275" y="710"/>
      <point x="322" y="727" type="curve"/>
      <point x="378" y="756"/>
      <point x="445" y="769"/>
      <point x="510" y="762" type="curve" smooth="yes"/>
      <point x="582" y="753"/>
      <point x="629" y="720"/>
      <point x="650" y="671" type="curve" smooth="yes"/>
      <point x="671" y="622"/>
      <point x="668" y="558"/>
      <point x="639" y="486" type="curve" smooth="yes"/>
      <point x="628" y="459"/>
      <point x="607" y="439"/>
      <point x="583" y="426" type="curve" smooth="yes"/>
      <point x="558" y="413"/>
      <point x="530" y="406"/>
      <point x="506" y="406" type="curve" smooth="yes"/>
      <point x="447" y="406"/>
      <point x="434" y="446"/>
      <point x="449" y="498" type="curve"/>
      <point x="449" y="521"/>
      <point x="440" y="528"/>
      <point x="429" y="528" type="curve" smooth="yes"/>
      <point x="423" y="528"/>
      <point x="416" y="527"/>
      <point x="409" y="524" type="curve" smooth="yes"/>
      <point x="402" y="521"/>
      <point x="395" y="519"/>
      <point x="388" y="517" type="curve"/>
      <point x="373" y="509"/>
      <point x="363" y="503"/>
      <point x="348" y="491" type="curve"/>
      <point x="333" y="478"/>
      <point x="316" y="458"/>
      <point x="292" y="425" type="curve" smooth="yes"/>
      <point x="260" y="381"/>
      <point x="241" y="336"/>
      <point x="230" y="297" type="curve" smooth="yes"/>
      <point x="219" y="258"/>
      <point x="218" y="226"/>
      <point x="221" y="206" type="curve" smooth="yes"/>
      <point x="225" y="182"/>
      <point x="237" y="164"/>
      <point x="252" y="153" type="curve" smooth="yes"/>
      <point x="267" y="142"/>
      <point x="284" y="138"/>
      <point x="296" y="138" type="curve"/>
      <point x="312" y="139"/>
      <point x="325" y="142"/>
      <point x="335" y="148" type="curve" smooth="yes"/>
      <point x="354" y="160"/>
      <point x="371" y="172"/>
      <point x="396" y="177" type="curve" smooth="yes"/>
      <point x="420" y="181"/>
      <point x="468" y="168"/>
      <point x="471" y="149" type="curve"/>
      <point x="472" y="140"/>
      <point x="472" y="130"/>
      <point x="471" y="120" type="curve"/>
      <point x="468" y="100"/>
      <point x="465" y="82"/>
      <point x="492" y="78" type="curve"/>
      <point x="503" y="65"/>
      <point x="499" y="51"/>
      <point x="488" y="39" type="curve"/>
      <point x="483" y="32"/>
      <point x="476" y="26"/>
      <point x="469" y="20" type="curve"/>
      <point x="461" y="14"/>
      <point x="454" y="8"/>
      <point x="447" y="3" type="curve"/>
    </contour>
  </outline>
</glyph>
<glyph name="D" format="1">
  <advance width="594"/>
  <unicode hex="0044"/>
  <outline>
    <contour>
      <point x="591" y="259"/>
      <point x="562" y="200"/>
      <point x="523" y="147" type="curve" smooth="yes"/>
      <point x="483" y="94"/>
      <point x="435" y="47"/>
      <point x="381" y="16" type="curve" smooth="yes"/>
      <point x="327" y="-16"/>
      <point x="269" y="-32"/>
      <point x="210" y="-21" type="curve"/>
      <point x="186" y="-73"/>
      <point x="133" y="-84"/>
      <point x="87" y="-70" type="curve" smooth="yes"/>
      <point x="41" y="-56"/>
      <point x="0" y="-16"/>
      <point x="0" y="39" type="curve" smooth="yes"/>
      <point x="0" y="119"/>
      <point x="10" y="189"/>
      <point x="26" y="254" type="curve" smooth="yes"/>
      <point x="41" y="318"/>
      <point x="62" y="378"/>
      <point x="86" y="438" type="curve" smooth="yes"/>
      <point x="107" y="489"/>
      <point x="126" y="540"/>
      <point x="142" y="600" type="curve" smooth="yes"/>
      <point x="145" y="610"/>
      <point x="147" y="621"/>
      <point x="149" y="632" type="curve"/>
      <point x="152" y="655"/>
      <point x="156" y="677"/>
      <point x="164" y="698" type="curve" smooth="yes"/>
      <point x="171" y="718"/>
      <point x="185" y="733"/>
      <point x="197" y="740" type="curve" smooth="yes"/>
      <point x="202" y="743"/>
      <point x="209" y="747"/>
      <point x="216" y="750" type="curve"/>
      <point x="280" y="781"/>
      <point x="344" y="771"/>
      <point x="401" y="744" type="curve" smooth="yes"/>
      <point x="457" y="716"/>
      <point x="509" y="672"/>
      <point x="549" y="633" type="curve" smooth="yes"/>
      <point x="593" y="590"/>
      <point x="614" y="543"/>
      <point x="622" y="490" type="curve" smooth="yes"/>
      <point x="629" y="437"/>
      <point x="622" y="379"/>
      <point x="606" y="315" type="curve" smooth="yes"/>
    </contour>
    <contour>
      <point x="229" y="106" type="line"/>
      <point x="242" y="113"/>
      <point x="256" y="121"/>
      <point x="271" y="130" type="curve"/>
      <point x="290" y="143"/>
      <point x="307" y="155"/>
      <point x="322" y="168" type="curve" smooth="yes"/>
      <point x="336" y="181"/>
      <point x="352" y="195"/>
      <point x="371" y="210" type="curve"/>
      <point x="398" y="237"/>
      <point x="419" y="268"/>
      <point x="431" y="305" type="curve" smooth="yes"/>
      <point x="462" y="393"/>
      <point x="450" y="461"/>
      <point x="378" y="509" type="curve"/>
      <point x="363" y="520"/>
      <point x="348" y="530"/>
      <point x="333" y="539" type="curve"/>
      <point x="324" y="518"/>
      <point x="317" y="495"/>
      <point x="313" y="472" type="curve"/>
      <point x="308" y="449"/>
      <point x="302" y="426"/>
      <point x="295" y="404" type="curve" smooth="yes"/>
      <point x="268" y="316" type="line"/>
      <point x="246" y="221" type="line"/>
      <point x="245" y="208"/>
      <point x="243" y="195"/>
      <point x="240" y="183" type="curve" smooth="yes"/>
      <point x="237" y="170"/>
      <point x="235" y="157"/>
      <point x="233" y="144" type="curve"/>
    </contour>
  </outline>
</glyph>
<glyph name="E" format="1">
  <advance width="524"/>
  <unicode hex="0045"/>
  <outline>
    <contour>
      <point x="591" y="769"/>
      <point x="608" y="725"/>
      <point x="594" y="680" type="curve" smooth="yes"/>
      <point x="580" y="635"/>
      <point x="537" y="588"/>
      <point x="476" y="579" type="curve"/>
      <point x="443" y="570"/>
      <point x="420" y="564"/>
      <point x="404" y="556" type="curve" smooth="yes"/>
      <point x="387" y="548"/>
      <point x="376" y="539"/>
      <point x="368" y="524" type="curve"/>
      <point x="349" y="495"/>
      <point x="322" y="450"/>
      <point x="315" y="419" type="curve"/>
      <point x="311" y="397" type="line"/>
      <point x="328" y="389"/>
      <point x="354" y="391"/>
      <point x="380" y="395" type="curve"/>
      <point x="393" y="396"/>
      <point x="405" y="398"/>
      <point x="418" y="401" type="curve"/>
      <point x="431" y="403"/>
      <point x="442" y="404"/>
      <point x="453" y="404" type="curve" smooth="yes"/>
      <point x="474" y="404"/>
      <point x="489" y="399"/>
      <point x="492" y="382" type="curve" smooth="yes"/>
      <point x="495" y="361"/>
      <point x="484" y="339"/>
      <point x="465" y="320" type="curve" smooth="yes"/>
      <point x="445" y="301"/>
      <point x="419" y="285"/>
      <point x="391" y="276" type="curve"/>
      <point x="356" y="269"/>
      <point x="340" y="263"/>
      <point x="325" y="258" type="curve" smooth="yes"/>
      <point x="309" y="253"/>
      <point x="296" y="249"/>
      <point x="268" y="248" type="curve"/>
      <point x="259" y="232"/>
      <point x="242" y="201"/>
      <point x="231" y="174" type="curve"/>
      <point x="225" y="161"/>
      <point x="221" y="149"/>
      <point x="220" y="140" type="curve"/>
      <point x="218" y="131"/>
      <point x="220" y="126"/>
      <point x="226" y="126" type="curve"/>
      <point x="265" y="122"/>
      <point x="289" y="120"/>
      <point x="313" y="120" type="curve" smooth="yes"/>
      <point x="337" y="120"/>
      <point x="360" y="123"/>
      <point x="399" y="128" type="curve"/>
      <point x="423" y="120"/>
      <point x="423" y="107"/>
      <point x="422" y="95" type="curve" smooth="yes"/>
      <point x="421" y="82"/>
      <point x="419" y="69"/>
      <point x="442" y="61" type="curve" smooth="yes"/>
      <point x="448" y="59"/>
      <point x="450" y="53"/>
      <point x="448" y="44" type="curve" smooth="yes"/>
      <point x="443" y="24"/>
      <point x="425" y="1"/>
      <point x="398" y="-22" type="curve"/>
      <point x="384" y="-33"/>
      <point x="369" y="-42"/>
      <point x="353" y="-48" type="curve"/>
      <point x="306" y="-60"/>
      <point x="268" y="-67"/>
      <point x="229" y="-70" type="curve" smooth="yes"/>
      <point x="189" y="-73"/>
      <point x="147" y="-71"/>
      <point x="92" y="-64" type="curve"/>
      <point x="77" y="-61"/>
      <point x="56" y="-56"/>
      <point x="38" y="-45" type="curve" smooth="yes"/>
      <point x="20" y="-34"/>
      <point x="6" y="-18"/>
      <point x="7" y="9" type="curve"/>
      <point x="7" y="112"/>
      <point x="21" y="203"/>
      <point x="49" y="294" type="curve" smooth="yes"/>
      <point x="76" y="385"/>
      <point x="116" y="475"/>
      <point x="167" y="576" type="curve" smooth="yes"/>
      <point x="178" y="597"/>
      <point x="178" y="626"/>
      <point x="179" y="651" type="curve" smooth="yes"/>
      <point x="180" y="676"/>
      <point x="185" y="698"/>
      <point x="206" y="706" type="curve" smooth="yes"/>
      <point x="323" y="753"/>
      <point x="439" y="785"/>
      <point x="535" y="770" type="curve"/>
    </contour>
  </outline>
</glyph>
<glyph name="F" format="1">
  <advance width="424"/>
  <unicode hex="0046"/>
  <outline>
    <contour>
      <point x="139" y="-24"/>
      <point x="111" y="-45"/>
      <point x="82" y="-53" type="curve" smooth="yes"/>
      <point x="53" y="-62"/>
      <point x="19" y="-58"/>
      <point x="-4" y="-44" type="curve" smooth="yes"/>
      <point x="-27" y="-30"/>
      <point x="-41" y="-6"/>
      <point x="-30" y="30" type="curve"/>
      <point x="-23" y="59"/>
      <point x="-8" y="113"/>
      <point x="12" y="177" type="curve" smooth="yes"/>
      <point x="31" y="240"/>
      <point x="52" y="311"/>
      <point x="70" y="376" type="curve" smooth="yes"/>
      <point x="88" y="441"/>
      <point x="102" y="500"/>
      <point x="106" y="536" type="curve"/>
      <point x="102" y="579"/>
      <point x="113" y="612"/>
      <point x="130" y="637" type="curve" smooth="yes"/>
      <point x="146" y="662"/>
      <point x="169" y="680"/>
      <point x="188" y="691" type="curve" smooth="yes"/>
      <point x="271" y="739"/>
      <point x="362" y="758"/>
      <point x="450" y="779" type="curve"/>
      <point x="459" y="779"/>
      <point x="467" y="780"/>
      <point x="474" y="781" type="curve"/>
      <point x="488" y="784"/>
      <point x="501" y="785"/>
      <point x="515" y="785" type="curve"/>
      <point x="522" y="784"/>
      <point x="529" y="783"/>
      <point x="538" y="780" type="curve" smooth="yes"/>
      <point x="587" y="764"/>
      <point x="594" y="719"/>
      <point x="575" y="673" type="curve" smooth="yes"/>
      <point x="556" y="627"/>
      <point x="511" y="579"/>
      <point x="455" y="558" type="curve"/>
      <point x="429" y="550"/>
      <point x="409" y="545"/>
      <point x="396" y="542" type="curve" smooth="yes"/>
      <point x="383" y="539"/>
      <point x="373" y="538"/>
      <point x="366" y="537" type="curve" smooth="yes"/>
      <point x="353" y="535"/>
      <point x="350" y="533"/>
      <point x="342" y="521" type="curve" smooth="yes"/>
      <point x="336" y="512"/>
      <point x="332" y="503"/>
      <point x="329" y="492" type="curve" smooth="yes"/>
      <point x="326" y="481"/>
      <point x="322" y="471"/>
      <point x="316" y="462" type="curve"/>
      <point x="315" y="461"/>
      <point x="315" y="461"/>
      <point x="315" y="460" type="curve"/>
      <point x="304" y="431"/>
      <point x="294" y="412"/>
      <point x="285" y="403" type="curve"/>
      <point x="276" y="393"/>
      <point x="271" y="387"/>
      <point x="270" y="385" type="curve"/>
      <point x="358" y="394" type="line" smooth="yes"/>
      <point x="386" y="397"/>
      <point x="408" y="380"/>
      <point x="417" y="360" type="curve"/>
      <point x="425" y="340"/>
      <point x="422" y="318"/>
      <point x="402" y="309" type="curve"/>
      <point x="382" y="298"/>
      <point x="379" y="288"/>
      <point x="375" y="279" type="curve" smooth="yes"/>
      <point x="371" y="270"/>
      <point x="368" y="260"/>
      <point x="349" y="252" type="curve"/>
      <point x="339" y="247"/>
      <point x="324" y="243"/>
      <point x="305" y="239" type="curve" smooth="yes"/>
      <point x="286" y="235"/>
      <point x="259" y="231"/>
      <point x="225" y="228" type="curve"/>
      <point x="222" y="218"/>
      <point x="217" y="206"/>
      <point x="212" y="193" type="curve"/>
      <point x="200" y="165"/>
      <point x="188" y="134"/>
      <point x="177" y="106" type="curve" smooth="yes"/>
      <point x="172" y="92"/>
      <point x="167" y="80"/>
      <point x="164" y="70" type="curve"/>
      <point x="164" y="69"/>
      <point x="164" y="66"/>
      <point x="163" y="62" type="curve"/>
      <point x="162" y="57"/>
      <point x="160" y="52"/>
      <point x="159" y="46" type="curve"/>
      <point x="156" y="34"/>
      <point x="153" y="20"/>
      <point x="148" y="9" type="curve"/>
    </contour>
  </outline>
</glyph>
<glyph name="G" format="1">
  <advance width="639"/>
  <unicode hex="0047"/>
  <outline>
    <contour>
      <point x="673" y="677"/>
      <point x="693" y="594"/>
      <point x="658" y="497" type="curve" smooth="yes"/>
      <point x="643" y="452"/>
      <point x="603" y="430"/>
      <point x="565" y="427" type="curve" smooth="yes"/>
      <point x="527" y="423"/>
      <point x="491" y="437"/>
      <point x="488" y="461" type="curve"/>
      <point x="479" y="482" type="line"/>
      <point x="479" y="481" type="line"/>
      <point x="462" y="506"/>
      <point x="431" y="506"/>
      <point x="397" y="491" type="curve" smooth="yes"/>
      <point x="363" y="475"/>
      <point x="325" y="445"/>
      <point x="294" y="410" type="curve" smooth="yes"/>
      <point x="262" y="374"/>
      <point x="235" y="333"/>
      <point x="224" y="300" type="curve" smooth="yes"/>
      <point x="215" y="272"/>
      <point x="206" y="250"/>
      <point x="206" y="228" type="curve"/>
      <point x="205" y="206"/>
      <point x="212" y="184"/>
      <point x="233" y="161" type="curve"/>
      <point x="289" y="125"/>
      <point x="348" y="134"/>
      <point x="392" y="156" type="curve" smooth="yes"/>
      <point x="414" y="167"/>
      <point x="432" y="179"/>
      <point x="446" y="193" type="curve" smooth="yes"/>
      <point x="460" y="207"/>
      <point x="467" y="217"/>
      <point x="467" y="223" type="curve"/>
      <point x="469" y="227"/>
      <point x="471" y="231"/>
      <point x="473" y="235" type="curve" smooth="yes"/>
      <point x="475" y="239"/>
      <point x="477" y="243"/>
      <point x="478" y="247" type="curve"/>
      <point x="473" y="247"/>
      <point x="487" y="248"/>
      <point x="482" y="247" type="curve"/>
      <point x="481" y="247"/>
      <point x="482" y="247"/>
      <point x="487" y="246" type="curve"/>
      <point x="491" y="245"/>
      <point x="493" y="244"/>
      <point x="492" y="244" type="curve"/>
      <point x="452" y="208"/>
      <point x="421" y="213"/>
      <point x="397" y="227" type="curve" smooth="yes"/>
      <point x="385" y="234"/>
      <point x="374" y="241"/>
      <point x="365" y="250" type="curve"/>
      <point x="356" y="258"/>
      <point x="347" y="262"/>
      <point x="339" y="261" type="curve"/>
      <point x="324" y="269"/>
      <point x="322" y="288"/>
      <point x="329" y="308" type="curve" smooth="yes"/>
      <point x="336" y="327"/>
      <point x="354" y="345"/>
      <point x="382" y="352" type="curve"/>
      <point x="445" y="379"/>
      <point x="512" y="387"/>
      <point x="567" y="372" type="curve" smooth="yes"/>
      <point x="618" y="359"/>
      <point x="635" y="314"/>
      <point x="632" y="263" type="curve" smooth="yes"/>
      <point x="629" y="212"/>
      <point x="607" y="156"/>
      <point x="582" y="121" type="curve" smooth="yes"/>
      <point x="562" y="93"/>
      <point x="521" y="46"/>
      <point x="460" y="6" type="curve" smooth="yes"/>
      <point x="399" y="-34"/>
      <point x="318" y="-67"/>
      <point x="218" y="-64" type="curve" smooth="yes"/>
      <point x="130" y="-63"/>
      <point x="71" y="-37"/>
      <point x="35" y="8" type="curve" smooth="yes"/>
      <point x="-1" y="52"/>
      <point x="-14" y="117"/>
      <point x="-13" y="197" type="curve"/>
      <point x="-9" y="269"/>
      <point x="9" y="346"/>
      <point x="38" y="418" type="curve" smooth="yes"/>
      <point x="67" y="490"/>
      <point x="109" y="557"/>
      <point x="161" y="612" type="curve" smooth="yes"/>
      <point x="198" y="652"/>
      <point x="227" y="680"/>
      <point x="262" y="702" type="curve" smooth="yes"/>
      <point x="297" y="724"/>
      <point x="337" y="739"/>
      <point x="397" y="755" type="curve"/>
      <point x="497" y="775"/>
      <point x="571" y="760"/>
      <point x="618" y="721" type="curve" smooth="yes"/>
    </contour>
  </outline>
</glyph>
<glyph name="H" format="1">
  <advance width="588"/>
  <unicode hex="0048"/>
  <outline>
    <contour>
      <point x="218" y="163" type="line"/>
      <point x="191" y="96" type="line" smooth="yes"/>
      <point x="184" y="77"/>
      <point x="178" y="58"/>
      <point x="173" y="38" type="curve" smooth="yes"/>
      <point x="162" y="-2"/>
      <point x="153" y="-33"/>
      <point x="129" y="-50" type="curve" smooth="yes"/>
      <point x="104" y="-67"/>
      <point x="72" y="-76"/>
      <point x="40" y="-75" type="curve" smooth="yes"/>
      <point x="7" y="-74"/>
      <point x="-19" y="-62"/>
      <point x="-31" y="-41" type="curve"/>
      <point x="-38" y="-30"/>
      <point x="-39" y="-17"/>
      <point x="-34" y="0" type="curve"/>
      <point x="2" y="141"/>
      <point x="36" y="252"/>
      <point x="70" y="355" type="curve" smooth="yes"/>
      <point x="87" y="406"/>
      <point x="104" y="457"/>
      <point x="121" y="507" type="curve" smooth="yes"/>
      <point x="138" y="556"/>
      <point x="156" y="609"/>
      <point x="175" y="664" type="curve"/>
      <point x="179" y="703"/>
      <point x="209" y="732"/>
      <point x="245" y="750" type="curve" smooth="yes"/>
      <point x="281" y="768"/>
      <point x="324" y="773"/>
      <point x="354" y="764" type="curve" smooth="yes"/>
      <point x="384" y="755"/>
      <point x="400" y="731"/>
      <point x="387" y="688" type="curve"/>
      <point x="376" y="659"/>
      <point x="365" y="632"/>
      <point x="356" y="606" type="curve" smooth="yes"/>
      <point x="337" y="554"/>
      <point x="320" y="506"/>
      <point x="302" y="459" type="curve" smooth="yes"/>
      <point x="293" y="435"/>
      <point x="283" y="411"/>
      <point x="273" y="387" type="curve"/>
      <point x="294" y="386"/>
      <point x="316" y="391"/>
      <point x="340" y="396" type="curve" smooth="yes"/>
      <point x="363" y="401"/>
      <point x="386" y="406"/>
      <point x="410" y="402" type="curve"/>
      <point x="410" y="406"/>
      <point x="412" y="410"/>
      <point x="413" y="414" type="curve"/>
      <point x="415" y="419" type="line"/>
      <point x="443" y="538"/>
      <point x="475" y="629"/>
      <point x="499" y="698" type="curve" smooth="yes"/>
      <point x="518" y="759"/>
      <point x="565" y="783"/>
      <point x="628" y="786" type="curve"/>
      <point x="653" y="786"/>
      <point x="677" y="779"/>
      <point x="690" y="767" type="curve"/>
      <point x="703" y="754"/>
      <point x="708" y="734"/>
      <point x="696" y="709" type="curve"/>
      <point x="673" y="645"/>
      <point x="659" y="603"/>
      <point x="644" y="557" type="curve" smooth="yes"/>
      <point x="628" y="511"/>
      <point x="612" y="459"/>
      <point x="587" y="376" type="curve" smooth="yes"/>
      <point x="575" y="337"/>
      <point x="559" y="273"/>
      <point x="543" y="209" type="curve" smooth="yes"/>
      <point x="527" y="145"/>
      <point x="511" y="80"/>
      <point x="502" y="39" type="curve" smooth="yes"/>
      <point x="494" y="0"/>
      <point x="480" y="-10"/>
      <point x="466" y="-16" type="curve" smooth="yes"/>
      <point x="459" y="-19"/>
      <point x="452" y="-22"/>
      <point x="445" y="-25" type="curve" smooth="yes"/>
      <point x="438" y="-28"/>
      <point x="433" y="-34"/>
      <point x="429" y="-45" type="curve"/>
      <point x="426" y="-45" type="line"/>
      <point x="415" y="-69"/>
      <point x="373" y="-84"/>
      <point x="337" y="-80" type="curve" smooth="yes"/>
      <point x="300" y="-77"/>
      <point x="269" y="-55"/>
      <point x="281" y="-7" type="curve"/>
      <point x="289" y="38"/>
      <point x="300" y="78"/>
      <point x="313" y="116" type="curve" smooth="yes"/>
      <point x="320" y="135"/>
      <point x="326" y="153"/>
      <point x="333" y="172" type="curve" smooth="yes"/>
      <point x="340" y="191"/>
      <point x="346" y="211"/>
      <point x="352" y="232" type="curve"/>
      <point x="347" y="229"/>
      <point x="342" y="227"/>
      <point x="337" y="226" type="curve" smooth="yes"/>
      <point x="332" y="225"/>
      <point x="326" y="223"/>
      <point x="321" y="220" type="curve" smooth="yes"/>
      <point x="312" y="215"/>
      <point x="303" y="212"/>
      <point x="296" y="209" type="curve"/>
      <point x="280" y="204"/>
      <point x="267" y="199"/>
      <point x="252" y="192" type="curve"/>
      <point x="244" y="189"/>
      <point x="236" y="184"/>
      <point x="227" y="179" type="curve"/>
    </contour>
    <contour>
      <point x="349" y="237"/>
      <point x="345" y="235"/>
      <point x="341" y="234" type="curve"/>
      <point x="337" y="232"/>
      <point x="334" y="231"/>
      <point x="331" y="230" type="curve"/>
      <point x="332" y="230"/>
      <point x="339" y="233"/>
      <point x="352" y="238" type="curve"/>
    </contour>
  </outline>
</glyph>
<glyph name="I" format="1">
  <advance width="339"/>
  <unicode hex="0049"/>
  <outline>
    <contour>
      <point x="389" y="603"/>
      <point x="367" y="538"/>
      <point x="348" y="479" type="curve" smooth="yes"/>
      <point x="328" y="420"/>
      <point x="310" y="366"/>
      <point x="294" y="317" type="curve" smooth="yes"/>
      <point x="277" y="268"/>
      <point x="262" y="222"/>
      <point x="248" y="181" type="curve" smooth="yes"/>
      <point x="234" y="139"/>
      <point x="221" y="99"/>
      <point x="209" y="61" type="curve"/>
      <point x="201" y="9"/>
      <point x="173" y="-17"/>
      <point x="144" y="-31" type="curve" smooth="yes"/>
      <point x="115" y="-45"/>
      <point x="83" y="-47"/>
      <point x="70" y="-47" type="curve" smooth="yes"/>
      <point x="39" y="-47"/>
      <point x="17" y="-44"/>
      <point x="2" y="-37" type="curve"/>
      <point x="-27" y="-25"/>
      <point x="-35" y="0"/>
      <point x="-26" y="34" type="curve" smooth="yes"/>
      <point x="-22" y="51"/>
      <point x="-16" y="70"/>
      <point x="-9" y="91" type="curve" smooth="yes"/>
      <point x="5" y="129"/>
      <point x="20" y="173"/>
      <point x="37" y="224" type="curve" smooth="yes"/>
      <point x="69" y="325"/>
      <point x="106" y="433"/>
      <point x="142" y="529" type="curve" smooth="yes"/>
      <point x="160" y="576"/>
      <point x="177" y="616"/>
      <point x="194" y="648" type="curve" smooth="yes"/>
      <point x="214" y="685"/>
      <point x="234" y="694"/>
      <point x="253" y="700" type="curve" smooth="yes"/>
      <point x="272" y="706"/>
      <point x="288" y="708"/>
      <point x="300" y="739" type="curve" smooth="yes"/>
      <point x="313" y="772"/>
      <point x="354" y="785"/>
      <point x="384" y="775" type="curve" smooth="yes"/>
      <point x="414" y="765"/>
      <point x="435" y="732"/>
      <point x="412" y="676" type="curve"/>
    </contour>
  </outline>
</glyph>
<glyph name="J" format="1">
  <advance width="512"/>
  <unicode hex="004A"/>
  <outline>
    <contour>
      <point x="334" y="456"/>
      <point x="341" y="479"/>
      <point x="347" y="501" type="curve" smooth="yes"/>
      <point x="352" y="522"/>
      <point x="358" y="544"/>
      <point x="364" y="565" type="curve"/>
      <point x="369" y="586"/>
      <point x="375" y="608"/>
      <point x="381" y="631" type="curve" smooth="yes"/>
      <point x="386" y="653"/>
      <point x="393" y="676"/>
      <point x="400" y="700" type="curve"/>
      <point x="400" y="704" type="line"/>
      <point x="412" y="745"/>
      <point x="447" y="777"/>
      <point x="487" y="797" type="curve" smooth="yes"/>
      <point x="527" y="816"/>
      <point x="571" y="821"/>
      <point x="602" y="806" type="curve" smooth="yes"/>
      <point x="633" y="791"/>
      <point x="649" y="757"/>
      <point x="633" y="697" type="curve"/>
      <point x="618" y="651"/>
      <point x="602" y="603"/>
      <point x="587" y="552" type="curve" smooth="yes"/>
      <point x="556" y="451"/>
      <point x="523" y="347"/>
      <point x="480" y="250" type="curve" smooth="yes"/>
      <point x="437" y="153"/>
      <point x="382" y="70"/>
      <point x="310" y="7" type="curve" smooth="yes"/>
      <point x="274" y="-24"/>
      <point x="233" y="-48"/>
      <point x="186" y="-64" type="curve"/>
      <point x="177" y="-68"/>
      <point x="169" y="-70"/>
      <point x="163" y="-71" type="curve" smooth="yes"/>
      <point x="156" y="-72"/>
      <point x="148" y="-73"/>
      <point x="139" y="-74" type="curve" smooth="yes"/>
      <point x="110" y="-78"/>
      <point x="71" y="-76"/>
      <point x="37" y="-66" type="curve" smooth="yes"/>
      <point x="3" y="-56"/>
      <point x="-27" y="-38"/>
      <point x="-38" y="-6" type="curve"/>
      <point x="-49" y="34"/>
      <point x="-53" y="64"/>
      <point x="-49" y="90" type="curve"/>
      <point x="-46" y="116"/>
      <point x="-35" y="137"/>
      <point x="-19" y="162" type="curve"/>
      <point x="-18" y="162" type="line"/>
      <point x="-6" y="185"/>
      <point x="23" y="202"/>
      <point x="52" y="207" type="curve" smooth="yes"/>
      <point x="80" y="211"/>
      <point x="108" y="203"/>
      <point x="116" y="176" type="curve"/>
      <point x="117" y="169"/>
      <point x="117" y="159"/>
      <point x="117" y="148" type="curve" smooth="yes"/>
      <point x="117" y="137"/>
      <point x="117" y="128"/>
      <point x="116" y="121" type="curve"/>
      <point x="116" y="115"/>
      <point x="116" y="110"/>
      <point x="116" y="107" type="curve"/>
      <point x="115" y="103"/>
      <point x="115" y="100"/>
      <point x="115" y="97" type="curve" smooth="yes"/>
      <point x="115" y="92"/>
      <point x="116" y="85"/>
      <point x="117" y="73" type="curve"/>
      <point x="124" y="65"/>
      <point x="131" y="65"/>
      <point x="140" y="70" type="curve"/>
      <point x="148" y="75"/>
      <point x="157" y="83"/>
      <point x="166" y="91" type="curve" smooth="yes"/>
      <point x="172" y="96" type="line"/>
      <point x="201" y="140"/>
      <point x="232" y="195"/>
      <point x="258" y="254" type="curve" smooth="yes"/>
      <point x="284" y="313"/>
      <point x="307" y="373"/>
      <point x="326" y="432" type="curve" smooth="yes"/>
    </contour>
  </outline>
</glyph>
<glyph name="K" format="1">
  <advance width="579"/>
  <unicode hex="004B"/>
  <outline>
    <contour>
      <point x="183" y="704"/>
      <point x="186" y="708"/>
      <point x="188" y="712" type="curve"/>
      <point x="191" y="719"/>
      <point x="194" y="724"/>
      <point x="203" y="728" type="curve"/>
      <point x="207" y="730"/>
      <point x="214" y="732"/>
      <point x="224" y="733" type="curve"/>
      <point x="231" y="748"/>
      <point x="236" y="757"/>
      <point x="244" y="763" type="curve"/>
      <point x="247" y="766"/>
      <point x="252" y="768"/>
      <point x="257" y="771" type="curve"/>
      <point x="262" y="773"/>
      <point x="269" y="776"/>
      <point x="276" y="779" type="curve" smooth="yes"/>
      <point x="285" y="783"/>
      <point x="313" y="788"/>
      <point x="344" y="789" type="curve" smooth="yes"/>
      <point x="375" y="789"/>
      <point x="409" y="786"/>
      <point x="431" y="773" type="curve" smooth="yes"/>
      <point x="453" y="760"/>
      <point x="463" y="736"/>
      <point x="447" y="699" type="curve"/>
      <point x="448" y="700"/>
      <point x="448" y="699"/>
      <point x="446" y="697" type="curve"/>
      <point x="437" y="680" type="line"/>
      <point x="430" y="671" type="line"/>
      <point x="429" y="670"/>
      <point x="428" y="669"/>
      <point x="428" y="668" type="curve"/>
      <point x="417" y="649"/>
      <point x="408" y="630"/>
      <point x="399" y="610" type="curve"/>
      <point x="385" y="583"/>
      <point x="371" y="557"/>
      <point x="357" y="531" type="curve" smooth="yes"/>
      <point x="342" y="505"/>
      <point x="328" y="478"/>
      <point x="314" y="450" type="curve"/>
      <point x="312" y="445" type="line"/>
      <point x="345" y="464"/>
      <point x="380" y="490"/>
      <point x="414" y="516" type="curve" smooth="yes"/>
      <point x="448" y="542"/>
      <point x="482" y="567"/>
      <point x="515" y="586" type="curve" smooth="yes"/>
      <point x="524" y="591"/>
      <point x="533" y="596"/>
      <point x="542" y="602" type="curve"/>
      <point x="561" y="613"/>
      <point x="580" y="621"/>
      <point x="600" y="623" type="curve" smooth="yes"/>
      <point x="619" y="625"/>
      <point x="639" y="618"/>
      <point x="648" y="604" type="curve" smooth="yes"/>
      <point x="657" y="590"/>
      <point x="660" y="570"/>
      <point x="654" y="551" type="curve" smooth="yes"/>
      <point x="651" y="541"/>
      <point x="646" y="532"/>
      <point x="639" y="524" type="curve"/>
      <point x="594" y="465"/>
      <point x="544" y="410"/>
      <point x="492" y="367" type="curve" smooth="yes"/>
      <point x="440" y="323"/>
      <point x="388" y="292"/>
      <point x="339" y="280" type="curve"/>
      <point x="376" y="276"/>
      <point x="412" y="247"/>
      <point x="440" y="210" type="curve" smooth="yes"/>
      <point x="468" y="173"/>
      <point x="488" y="128"/>
      <point x="499" y="93" type="curve" smooth="yes"/>
      <point x="506" y="73"/>
      <point x="510" y="57"/>
      <point x="512" y="46" type="curve"/>
      <point x="515" y="22"/>
      <point x="511" y="11"/>
      <point x="503" y="4" type="curve"/>
      <point x="499" y="0"/>
      <point x="495" y="-4"/>
      <point x="490" y="-8" type="curve"/>
      <point x="480" y="-17"/>
      <point x="470" y="-29"/>
      <point x="463" y="-56" type="curve" smooth="yes"/>
      <point x="456" y="-83"/>
      <point x="443" y="-85"/>
      <point x="428" y="-76" type="curve" smooth="yes"/>
      <point x="412" y="-67"/>
      <point x="394" y="-45"/>
      <point x="379" y="-23" type="curve" smooth="yes"/>
      <point x="363" y="-1"/>
      <point x="350" y="20"/>
      <point x="345" y="32" type="curve"/>
      <point x="321" y="53"/>
      <point x="305" y="68"/>
      <point x="289" y="80" type="curve" smooth="yes"/>
      <point x="273" y="92"/>
      <point x="256" y="101"/>
      <point x="227" y="110" type="curve"/>
      <point x="227" y="111" type="line"/>
      <point x="208" y="114"/>
      <point x="190" y="116"/>
      <point x="178" y="117" type="curve"/>
      <point x="177" y="117"/>
      <point x="174" y="118"/>
      <point x="170" y="119" type="curve"/>
      <point x="152" y="74" type="line" smooth="yes"/>
      <point x="143" y="52"/>
      <point x="133" y="29"/>
      <point x="124" y="5" type="curve" smooth="yes"/>
      <point x="114" y="-20"/>
      <point x="102" y="-42"/>
      <point x="89" y="-61" type="curve"/>
      <point x="72" y="-73"/>
      <point x="51" y="-81"/>
      <point x="32" y="-78" type="curve" smooth="yes"/>
      <point x="13" y="-75"/>
      <point x="-4" y="-64"/>
      <point x="-15" y="-40" type="curve"/>
      <point x="-22" y="-19"/>
      <point x="-12" y="30"/>
      <point x="0" y="77" type="curve" smooth="yes"/>
      <point x="6" y="100"/>
      <point x="12" y="122"/>
      <point x="18" y="143" type="curve" smooth="yes"/>
      <point x="23" y="163"/>
      <point x="27" y="177"/>
      <point x="29" y="184" type="curve" smooth="yes"/>
      <point x="56" y="280"/>
      <point x="82" y="374"/>
      <point x="110" y="470" type="curve" smooth="yes"/>
      <point x="116" y="492"/>
      <point x="121" y="513"/>
      <point x="126" y="533" type="curve"/>
      <point x="134" y="572"/>
      <point x="142" y="608"/>
      <point x="154" y="644" type="curve" smooth="yes"/>
      <point x="160" y="662"/>
      <point x="168" y="681"/>
      <point x="178" y="700" type="curve"/>
    </contour>
  </outline>
</glyph>
<glyph name="L" format="1">
  <advance width="452"/>
  <unicode hex="004C"/>
  <outline>
    <contour>
      <point x="5" y="25"/>
      <point x="1" y="35"/>
      <point x="-3" y="41" type="curve"/>
      <point x="-12" y="53"/>
      <point x="-19" y="61"/>
      <point x="-19" y="76" type="curve"/>
      <point x="-20" y="83"/>
      <point x="-17" y="95"/>
      <point x="-12" y="112" type="curve" smooth="yes"/>
      <point x="3" y="160"/>
      <point x="28" y="237"/>
      <point x="58" y="318" type="curve" smooth="yes"/>
      <point x="88" y="398"/>
      <point x="122" y="483"/>
      <point x="155" y="548" type="curve"/>
      <point x="166" y="573"/>
      <point x="177" y="596"/>
      <point x="186" y="616" type="curve" smooth="yes"/>
      <point x="193" y="633"/>
      <point x="200" y="649"/>
      <point x="207" y="663" type="curve" smooth="yes"/>
      <point x="214" y="676"/>
      <point x="217" y="683"/>
      <point x="217" y="684" type="curve"/>
      <point x="224" y="709"/>
      <point x="256" y="733"/>
      <point x="294" y="749" type="curve" smooth="yes"/>
      <point x="332" y="764"/>
      <point x="377" y="770"/>
      <point x="412" y="762" type="curve" smooth="yes"/>
      <point x="447" y="753"/>
      <point x="469" y="729"/>
      <point x="464" y="684" type="curve"/>
      <point x="445" y="601"/>
      <point x="412" y="529"/>
      <point x="370" y="446" type="curve" smooth="yes"/>
      <point x="349" y="405"/>
      <point x="325" y="360"/>
      <point x="300" y="313" type="curve" smooth="yes"/>
      <point x="275" y="266"/>
      <point x="249" y="212"/>
      <point x="222" y="153" type="curve"/>
      <point x="221" y="150"/>
      <point x="223" y="148"/>
      <point x="226" y="146" type="curve"/>
      <point x="235" y="147"/>
      <point x="248" y="147"/>
      <point x="265" y="147" type="curve" smooth="yes"/>
      <point x="299" y="147"/>
      <point x="338" y="143"/>
      <point x="374" y="135" type="curve"/>
      <point x="392" y="130"/>
      <point x="407" y="124"/>
      <point x="418" y="115" type="curve"/>
      <point x="427" y="104"/>
      <point x="428" y="87"/>
      <point x="420" y="70" type="curve" smooth="yes"/>
      <point x="412" y="53"/>
      <point x="397" y="36"/>
      <point x="376" y="27" type="curve"/>
      <point x="368" y="-10"/>
      <point x="351" y="-31"/>
      <point x="332" y="-42" type="curve" smooth="yes"/>
      <point x="312" y="-53"/>
      <point x="291" y="-55"/>
      <point x="276" y="-55" type="curve"/>
      <point x="257" y="-56"/>
      <point x="249" y="-57"/>
      <point x="233" y="-57" type="curve" smooth="yes"/>
      <point x="217" y="-57"/>
      <point x="193" y="-56"/>
      <point x="148" y="-55" type="curve"/>
      <point x="137" y="-56"/>
      <point x="125" y="-56"/>
      <point x="111" y="-56" type="curve" smooth="yes"/>
      <point x="82" y="-56"/>
      <point x="53" y="-49"/>
      <point x="31" y="-30" type="curve" smooth="yes"/>
      <point x="20" y="-21"/>
      <point x="12" y="-7"/>
      <point x="8" y="10" type="curve" smooth="yes"/>
    </contour>
  </outline>
</glyph>
<glyph name="M" format="1">
  <advance width="691"/>
  <unicode hex="004D"/>
  <outline>
    <contour>
      <point x="396" y="719"/>
      <point x="402" y="706"/>
      <point x="403" y="694" type="curve" smooth="yes"/>
      <point x="404" y="682"/>
      <point x="401" y="671"/>
      <point x="389" y="662" type="curve"/>
      <point x="389" y="661"/>
      <point x="388" y="660"/>
      <point x="387" y="659" type="curve"/>
      <point x="399" y="596"/>
      <point x="389" y="543"/>
      <point x="378" y="492" type="curve"/>
      <point x="405" y="537"/>
      <point x="435" y="588"/>
      <point x="470" y="635" type="curve" smooth="yes"/>
      <point x="505" y="682"/>
      <point x="543" y="725"/>
      <point x="587" y="754" type="curve"/>
      <point x="612" y="769"/>
      <point x="653" y="777"/>
      <point x="686" y="772" type="curve" smooth="yes"/>
      <point x="719" y="767"/>
      <point x="745" y="747"/>
      <point x="742" y="704" type="curve"/>
      <point x="705" y="444"/>
      <point x="667" y="223"/>
      <point x="599" y="19" type="curve"/>
      <point x="599" y="17" type="line"/>
      <point x="598" y="17" type="line"/>
      <point x="590" y="-7"/>
      <point x="567" y="-25"/>
      <point x="539" y="-33" type="curve" smooth="yes"/>
      <point x="510" y="-42"/>
      <point x="478" y="-44"/>
      <point x="454" y="-36" type="curve"/>
      <point x="429" y="-29"/>
      <point x="410" y="-13"/>
      <point x="413" y="12" type="curve"/>
      <point x="414" y="35" type="line"/>
      <point x="414" y="37" type="line"/>
      <point x="417" y="53"/>
      <point x="418" y="64"/>
      <point x="419" y="70" type="curve"/>
      <point x="419" y="81"/>
      <point x="420" y="85"/>
      <point x="421" y="94" type="curve" smooth="yes"/>
      <point x="422" y="103"/>
      <point x="427" y="124"/>
      <point x="432" y="141" type="curve"/>
      <point x="434" y="149"/>
      <point x="436" y="158"/>
      <point x="438" y="167" type="curve" smooth="yes"/>
      <point x="440" y="176"/>
      <point x="442" y="185"/>
      <point x="444" y="194" type="curve" smooth="yes"/>
      <point x="446" y="202"/>
      <point x="447" y="208"/>
      <point x="448" y="213" type="curve"/>
      <point x="420" y="174"/>
      <point x="404" y="157"/>
      <point x="389" y="147" type="curve" smooth="yes"/>
      <point x="374" y="137"/>
      <point x="362" y="133"/>
      <point x="345" y="128" type="curve"/>
      <point x="337" y="127"/>
      <point x="318" y="124"/>
      <point x="301" y="125" type="curve"/>
      <point x="284" y="125"/>
      <point x="267" y="128"/>
      <point x="263" y="139" type="curve" smooth="yes"/>
      <point x="254" y="166"/>
      <point x="251" y="184"/>
      <point x="250" y="200" type="curve"/>
      <point x="249" y="208"/>
      <point x="249" y="216"/>
      <point x="249" y="224" type="curve"/>
      <point x="248" y="231"/>
      <point x="247" y="240"/>
      <point x="245" y="250" type="curve"/>
      <point x="226" y="197"/>
      <point x="213" y="156"/>
      <point x="201" y="120" type="curve" smooth="yes"/>
      <point x="189" y="83"/>
      <point x="178" y="48"/>
      <point x="163" y="7" type="curve"/>
      <point x="160" y="-16"/>
      <point x="137" y="-33"/>
      <point x="107" y="-41" type="curve"/>
      <point x="92" y="-46"/>
      <point x="76" y="-48"/>
      <point x="59" y="-48" type="curve" smooth="yes"/>
      <point x="25" y="-48"/>
      <point x="-4" y="-39"/>
      <point x="-20" y="-21" type="curve" smooth="yes"/>
      <point x="-36" y="-3"/>
      <point x="-27" y="23"/>
      <point x="-17" y="65" type="curve" smooth="yes"/>
      <point x="-12" y="86"/>
      <point x="-7" y="109"/>
      <point x="-1" y="134" type="curve" smooth="yes"/>
      <point x="11" y="185"/>
      <point x="26" y="242"/>
      <point x="40" y="295" type="curve" smooth="yes"/>
      <point x="54" y="348"/>
      <point x="67" y="397"/>
      <point x="78" y="432" type="curve" smooth="yes"/>
      <point x="89" y="467"/>
      <point x="105" y="512"/>
      <point x="125" y="556" type="curve" smooth="yes"/>
      <point x="145" y="599"/>
      <point x="166" y="640"/>
      <point x="189" y="668" type="curve"/>
      <point x="212" y="715"/>
      <point x="252" y="737"/>
      <point x="292" y="745" type="curve" smooth="yes"/>
      <point x="331" y="752"/>
      <point x="369" y="743"/>
      <point x="392" y="730" type="curve"/>
    </contour>
  </outline>
</glyph>
<glyph name="N" format="1">
  <advance width="630"/>
  <unicode hex="004E"/>
  <outline>
    <contour>
      <point x="116" y="536"/>
      <point x="132" y="577"/>
      <point x="153" y="613" type="curve" smooth="yes"/>
      <point x="173" y="649"/>
      <point x="198" y="681"/>
      <point x="226" y="698" type="curve" smooth="yes"/>
      <point x="240" y="707"/>
      <point x="255" y="711"/>
      <point x="270" y="711" type="curve" smooth="yes"/>
      <point x="285" y="711"/>
      <point x="301" y="705"/>
      <point x="318" y="693" type="curve"/>
      <point x="343" y="630"/>
      <point x="359" y="592"/>
      <point x="368" y="553" type="curve" smooth="yes"/>
      <point x="377" y="514"/>
      <point x="382" y="477"/>
      <point x="389" y="418" type="curve"/>
      <point x="401" y="449"/>
      <point x="417" y="484"/>
      <point x="433" y="518" type="curve" smooth="yes"/>
      <point x="448" y="552"/>
      <point x="463" y="586"/>
      <point x="471" y="618" type="curve"/>
      <point x="487" y="669"/>
      <point x="523" y="703"/>
      <point x="563" y="723" type="curve" smooth="yes"/>
      <point x="602" y="743"/>
      <point x="645" y="749"/>
      <point x="674" y="743" type="curve" smooth="yes"/>
      <point x="702" y="737"/>
      <point x="716" y="719"/>
      <point x="700" y="692" type="curve" smooth="yes"/>
      <point x="697" y="687"/>
      <point x="696" y="680"/>
      <point x="698" y="672" type="curve"/>
      <point x="701" y="655"/>
      <point x="704" y="631"/>
      <point x="701" y="603" type="curve"/>
      <point x="699" y="589"/>
      <point x="694" y="574"/>
      <point x="685" y="558" type="curve" smooth="yes"/>
      <point x="661" y="514"/>
      <point x="634" y="440"/>
      <point x="607" y="361" type="curve" smooth="yes"/>
      <point x="593" y="322"/>
      <point x="579" y="282"/>
      <point x="565" y="241" type="curve" smooth="yes"/>
      <point x="537" y="160"/>
      <point x="511" y="91"/>
      <point x="487" y="45" type="curve" smooth="yes"/>
      <point x="474" y="22"/>
      <point x="463" y="8"/>
      <point x="452" y="3" type="curve"/>
      <point x="425" y="-13"/>
      <point x="408" y="-21"/>
      <point x="392" y="-24" type="curve"/>
      <point x="375" y="-28"/>
      <point x="358" y="-27"/>
      <point x="331" y="-24" type="curve"/>
      <point x="311" y="-23"/>
      <point x="297" y="6"/>
      <point x="286" y="43" type="curve" smooth="yes"/>
      <point x="274" y="80"/>
      <point x="268" y="129"/>
      <point x="262" y="170" type="curve" smooth="yes"/>
      <point x="256" y="211"/>
      <point x="251" y="247"/>
      <point x="244" y="259" type="curve"/>
      <point x="229" y="209"/>
      <point x="216" y="171"/>
      <point x="207" y="144" type="curve" smooth="yes"/>
      <point x="197" y="117"/>
      <point x="189" y="97"/>
      <point x="182" y="83" type="curve" smooth="yes"/>
      <point x="175" y="68"/>
      <point x="168" y="57"/>
      <point x="163" y="50" type="curve"/>
      <point x="157" y="43"/>
      <point x="150" y="33"/>
      <point x="142" y="21" type="curve"/>
      <point x="133" y="-4"/>
      <point x="108" y="-22"/>
      <point x="81" y="-32" type="curve" smooth="yes"/>
      <point x="53" y="-42"/>
      <point x="24" y="-44"/>
      <point x="4" y="-37" type="curve" smooth="yes"/>
      <point x="-17" y="-30"/>
      <point x="-29" y="-15"/>
      <point x="-18" y="9" type="curve"/>
      <point x="-13" y="66"/>
      <point x="7" y="158"/>
      <point x="31" y="251" type="curve" smooth="yes"/>
      <point x="55" y="344"/>
      <point x="82" y="439"/>
      <point x="105" y="503" type="curve" smooth="yes"/>
    </contour>
  </outline>
</glyph>
<glyph name="O" format="1">
  <advance width="639"/>
  <unicode hex="004F"/>
  <outline>
    <contour>
      <point x="304" y="762"/>
      <point x="380" y="781"/>
      <point x="443" y="758" type="curve"/>
      <point x="470" y="786"/>
      <point x="504" y="793"/>
      <point x="539" y="786" type="curve" smooth="yes"/>
      <point x="574" y="779"/>
      <point x="607" y="757"/>
      <point x="631" y="725" type="curve"/>
      <point x="632" y="720"/>
      <point x="635" y="713"/>
      <point x="640" y="704" type="curve"/>
      <point x="644" y="695"/>
      <point x="648" y="684"/>
      <point x="652" y="673" type="curve"/>
      <point x="684" y="598"/>
      <point x="680" y="501"/>
      <point x="659" y="405" type="curve" smooth="yes"/>
      <point x="638" y="309"/>
      <point x="598" y="214"/>
      <point x="558" y="145" type="curve" smooth="yes"/>
      <point x="523" y="85"/>
      <point x="475" y="22"/>
      <point x="415" y="-17" type="curve"/>
      <point x="376" y="-46"/>
      <point x="337" y="-60"/>
      <point x="300" y="-64" type="curve" smooth="yes"/>
      <point x="263" y="-69"/>
      <point x="223" y="-68"/>
      <point x="187" y="-57" type="curve" smooth="yes"/>
      <point x="169" y="-52"/>
      <point x="153" y="-44"/>
      <point x="139" y="-35" type="curve"/>
      <point x="75" y="-3"/>
      <point x="40" y="50"/>
      <point x="25" y="111" type="curve" smooth="yes"/>
      <point x="10" y="171"/>
      <point x="15" y="242"/>
      <point x="31" y="311" type="curve" smooth="yes"/>
      <point x="46" y="380"/>
      <point x="70" y="448"/>
      <point x="95" y="505" type="curve" smooth="yes"/>
      <point x="110" y="537"/>
      <point x="133" y="578"/>
      <point x="161" y="617" type="curve" smooth="yes"/>
      <point x="188" y="656"/>
      <point x="218" y="691"/>
      <point x="247" y="715" type="curve" smooth="yes"/>
    </contour>
    <contour>
      <point x="341" y="143"/>
      <point x="379" y="223"/>
      <point x="403" y="308" type="curve" smooth="yes"/>
      <point x="427" y="393"/>
      <point x="438" y="484"/>
      <point x="431" y="560" type="curve"/>
      <point x="416" y="541"/>
      <point x="404" y="524"/>
      <point x="392" y="507" type="curve" smooth="yes"/>
      <point x="355" y="455"/>
      <point x="314" y="396"/>
      <point x="281" y="334" type="curve" smooth="yes"/>
      <point x="248" y="272"/>
      <point x="222" y="206"/>
      <point x="215" y="141" type="curve"/>
      <point x="215" y="140"/>
      <point x="215" y="139"/>
      <point x="215" y="138" type="curve"/>
      <point x="214" y="137"/>
      <point x="214" y="136"/>
      <point x="214" y="135" type="curve"/>
      <point x="216" y="124" type="line"/>
      <point x="217" y="117"/>
      <point x="222" y="103"/>
      <point x="230" y="89" type="curve"/>
      <point x="237" y="75"/>
      <point x="247" y="61"/>
      <point x="259" y="56" type="curve"/>
      <point x="266" y="61"/>
      <point x="272" y="66"/>
      <point x="279" y="71" type="curve" smooth="yes"/>
      <point x="286" y="76"/>
      <point x="292" y="81"/>
      <point x="297" y="88" type="curve"/>
    </contour>
    <contour>
      <point x="437" y="741" type="line"/>
      <point x="442" y="738"/>
      <point x="447" y="735"/>
      <point x="451" y="731" type="curve"/>
      <point x="452" y="731"/>
      <point x="452" y="731"/>
      <point x="452" y="730" type="curve"/>
      <point x="453" y="731" type="line"/>
    </contour>
    <contour>
      <point x="434" y="743" type="line"/>
      <point x="433" y="744"/>
      <point x="433" y="744"/>
      <point x="434" y="744" type="curve"/>
      <point x="435" y="743"/>
      <point x="436" y="742"/>
      <point x="437" y="741" type="curve"/>
    </contour>
  </outline>
</glyph>
<glyph name="P" format="1">
  <advance width="606"/>
  <unicode hex="0050"/>
  <outline>
    <contour>
      <point x="544" y="231"/>
      <point x="488" y="189"/>
      <point x="430" y="171" type="curve" smooth="yes"/>
      <point x="372" y="153"/>
      <point x="310" y="159"/>
      <point x="269" y="200" type="curve"/>
      <point x="250" y="141"/>
      <point x="238" y="84"/>
      <point x="231" y="24" type="curve"/>
      <point x="228" y="13"/>
      <point x="224" y="4"/>
      <point x="217" y="-5" type="curve"/>
      <point x="205" y="-41"/>
      <point x="174" y="-65"/>
      <point x="138" y="-76" type="curve" smooth="yes"/>
      <point x="101" y="-87"/>
      <point x="59" y="-85"/>
      <point x="27" y="-70" type="curve" smooth="yes"/>
      <point x="-6" y="-55"/>
      <point x="-30" y="-27"/>
      <point x="-30" y="13" type="curve"/>
      <point x="9" y="146"/>
      <point x="50" y="277"/>
      <point x="103" y="405" type="curve" smooth="yes"/>
      <point x="112" y="426"/>
      <point x="120" y="444"/>
      <point x="126" y="457" type="curve"/>
      <point x="137" y="484"/>
      <point x="146" y="502"/>
      <point x="154" y="516" type="curve"/>
      <point x="157" y="523"/>
      <point x="162" y="530"/>
      <point x="167" y="539" type="curve"/>
      <point x="178" y="556"/>
      <point x="190" y="577"/>
      <point x="213" y="616" type="curve" smooth="yes"/>
      <point x="238" y="661"/>
      <point x="259" y="685"/>
      <point x="284" y="705" type="curve" smooth="yes"/>
      <point x="296" y="714"/>
      <point x="310" y="723"/>
      <point x="325" y="732" type="curve" smooth="yes"/>
      <point x="340" y="741"/>
      <point x="357" y="752"/>
      <point x="378" y="765" type="curve" smooth="yes"/>
      <point x="427" y="794"/>
      <point x="480" y="800"/>
      <point x="527" y="785" type="curve" smooth="yes"/>
      <point x="574" y="770"/>
      <point x="613" y="734"/>
      <point x="636" y="682" type="curve" smooth="yes"/>
      <point x="657" y="630"/>
      <point x="658" y="556"/>
      <point x="646" y="483" type="curve" smooth="yes"/>
      <point x="634" y="410"/>
      <point x="608" y="337"/>
      <point x="579" y="288" type="curve" smooth="yes"/>
    </contour>
    <contour>
      <point x="364" y="316"/>
      <point x="399" y="358"/>
      <point x="418" y="410" type="curve" smooth="yes"/>
      <point x="437" y="462"/>
      <point x="438" y="524"/>
      <point x="429" y="580" type="curve"/>
      <point x="414" y="554"/>
      <point x="400" y="527"/>
      <point x="388" y="499" type="curve" smooth="yes"/>
      <point x="375" y="471"/>
      <point x="364" y="445"/>
      <point x="353" y="421" type="curve" smooth="yes"/>
      <point x="336" y="382"/>
      <point x="319" y="343"/>
      <point x="304" y="303" type="curve"/>
    </contour>
  </outline>
</glyph>
